# Wavefront OBJ exported by MilkShape 3D

mtllib rus_build_4et_01_LOD1.mtl

v -41.000000 41.000000 0.000000
v -59.000000 36.500000 0.000000
v -59.000000 36.500000 -18.000000
v -41.000000 41.000000 0.000000
v -59.000000 36.500000 0.000000
v -59.000000 36.500000 18.000000
v 41.000000 41.000000 0.000000
v 59.000000 36.500000 0.000000
v 59.000000 36.500000 18.000000
v 41.000000 41.000000 0.000000
v 59.000000 36.500000 0.000000
v 59.000000 36.500000 -18.000000
v -43.000000 40.000000 4.000000
v -43.000000 41.000000 12.000000
v -43.000000 37.000000 12.000000
v -43.000000 41.000000 12.000000
v -39.000000 41.000000 12.000000
v -43.000000 37.000000 12.000000
v -39.000000 37.000000 12.000000
v -39.000000 40.000000 4.000000
v -39.000000 41.000000 12.000000
v -39.000000 37.000000 12.000000
v -39.000000 41.000000 12.000000
v -43.000000 41.000000 12.000000
v -39.000000 40.000000 4.000000
v -43.000000 40.000000 4.000000
v -18.000000 40.000000 4.000000
v -18.000000 41.000000 12.000000
v -18.000000 37.000000 12.000000
v -18.000000 41.000000 12.000000
v -14.000000 41.000000 12.000000
v -18.000000 37.000000 12.000000
v -14.000000 37.000000 12.000000
v -14.000000 40.000000 4.000000
v -14.000000 41.000000 12.000000
v -14.000000 37.000000 12.000000
v -14.000000 41.000000 12.000000
v -18.000000 41.000000 12.000000
v -14.000000 40.000000 4.000000
v -18.000000 40.000000 4.000000
v 14.000000 40.000000 4.000000
v 14.000000 41.000000 12.000000
v 14.000000 37.000000 12.000000
v 14.000000 41.000000 12.000000
v 18.000000 41.000000 12.000000
v 14.000000 37.000000 12.000000
v 18.000000 37.000000 12.000000
v 18.000000 40.000000 4.000000
v 18.000000 41.000000 12.000000
v 18.000000 37.000000 12.000000
v 18.000000 41.000000 12.000000
v 14.000000 41.000000 12.000000
v 18.000000 40.000000 4.000000
v 14.000000 40.000000 4.000000
v 39.000000 40.000000 4.000000
v 39.000000 41.000000 12.000000
v 39.000000 37.000000 12.000000
v 39.000000 41.000000 12.000000
v 43.000000 41.000000 12.000000
v 39.000000 37.000000 12.000000
v 43.000000 37.000000 12.000000
v 43.000000 40.000000 4.000000
v 43.000000 41.000000 12.000000
v 43.000000 37.000000 12.000000
v 43.000000 41.000000 12.000000
v 39.000000 41.000000 12.000000
v 43.000000 40.000000 4.000000
v 39.000000 40.000000 4.000000
v 43.000000 40.000000 -4.000000
v 43.000000 41.000000 -12.000000
v 43.000000 37.000000 -12.000000
v 43.000000 41.000000 -12.000000
v 39.000000 41.000000 -12.000000
v 43.000000 37.000000 -12.000000
v 39.000000 37.000000 -12.000000
v 39.000000 40.000000 -4.000000
v 39.000000 41.000000 -12.000000
v 39.000000 37.000000 -12.000000
v 39.000000 41.000000 -12.000000
v 43.000000 41.000000 -12.000000
v 39.000000 40.000000 -4.000000
v 43.000000 40.000000 -4.000000
v 18.000000 40.000000 -4.000000
v 18.000000 41.000000 -12.000000
v 18.000000 37.000000 -12.000000
v 18.000000 41.000000 -12.000000
v 14.000000 41.000000 -12.000000
v 18.000000 37.000000 -12.000000
v 14.000000 37.000000 -12.000000
v 14.000000 40.000000 -4.000000
v 14.000000 41.000000 -12.000000
v 14.000000 37.000000 -12.000000
v 14.000000 41.000000 -12.000000
v 18.000000 41.000000 -12.000000
v 14.000000 40.000000 -4.000000
v 18.000000 40.000000 -4.000000
v -14.000000 40.000000 -4.000000
v -14.000000 41.000000 -12.000000
v -14.000000 37.000000 -12.000000
v -14.000000 41.000000 -12.000000
v -18.000000 41.000000 -12.000000
v -14.000000 37.000000 -12.000000
v -18.000000 37.000000 -12.000000
v -18.000000 40.000000 -4.000000
v -18.000000 41.000000 -12.000000
v -18.000000 37.000000 -12.000000
v -18.000000 41.000000 -12.000000
v -14.000000 41.000000 -12.000000
v -18.000000 40.000000 -4.000000
v -14.000000 40.000000 -4.000000
v -39.000000 40.000000 -4.000000
v -39.000000 41.000000 -12.000000
v -39.000000 37.000000 -12.000000
v -39.000000 41.000000 -12.000000
v -43.000000 41.000000 -12.000000
v -39.000000 37.000000 -12.000000
v -43.000000 37.000000 -12.000000
v -43.000000 40.000000 -4.000000
v -43.000000 41.000000 -12.000000
v -43.000000 37.000000 -12.000000
v -43.000000 41.000000 -12.000000
v -39.000000 41.000000 -12.000000
v -43.000000 40.000000 -4.000000
v -39.000000 40.000000 -4.000000
v -45.000000 40.000000 -2.000000
v -53.000000 41.000000 -2.000000
v -53.000000 37.000000 -2.000000
v -53.000000 41.000000 -2.000000
v -53.000000 41.000000 2.000000
v -53.000000 37.000000 -2.000000
v -53.000000 37.000000 2.000000
v -45.000000 40.000000 2.000000
v -53.000000 41.000000 2.000000
v -53.000000 37.000000 2.000000
v -53.000000 41.000000 2.000000
v -53.000000 41.000000 -2.000000
v -45.000000 40.000000 2.000000
v -45.000000 40.000000 -2.000000
v 45.000000 40.000000 2.000000
v 53.000000 41.000000 2.000000
v 53.000000 37.000000 2.000000
v 53.000000 41.000000 2.000000
v 53.000000 41.000000 -2.000000
v 53.000000 37.000000 2.000000
v 53.000000 37.000000 -2.000000
v 45.000000 40.000000 -2.000000
v 53.000000 41.000000 -2.000000
v 53.000000 37.000000 -2.000000
v 53.000000 41.000000 -2.000000
v 53.000000 41.000000 2.000000
v 45.000000 40.000000 -2.000000
v 45.000000 40.000000 2.000000
v 59.000000 36.500000 18.000000
v 41.000000 36.500000 18.000000
v -41.000000 36.500000 18.000000
v 41.000000 41.000000 0.000000
v -41.000000 41.000000 0.000000
v -59.000000 36.500000 18.000000
v -59.000000 36.500000 -18.000000
v -41.000000 36.500000 -18.000000
v 41.000000 36.500000 -18.000000
v -41.000000 41.000000 0.000000
v 41.000000 41.000000 0.000000
v 59.000000 36.500000 -18.000000
v -41.000000 41.000000 0.000000
v -59.000000 36.500000 0.000000
v -59.000000 36.500000 -18.000000
v -41.000000 41.000000 0.000000
v -59.000000 36.500000 0.000000
v -59.000000 36.500000 18.000000
v 41.000000 41.000000 0.000000
v 59.000000 36.500000 0.000000
v 59.000000 36.500000 18.000000
v 41.000000 41.000000 0.000000
v 59.000000 36.500000 0.000000
v 59.000000 36.500000 -18.000000
v 59.000000 36.500000 18.000000
v 41.000000 36.500000 18.000000
v -41.000000 36.500000 18.000000
v 41.000000 41.000000 0.000000
v -41.000000 41.000000 0.000000
v -59.000000 36.500000 18.000000
v -59.000000 36.500000 -18.000000
v -41.000000 36.500000 -18.000000
v 41.000000 36.500000 -18.000000
v -41.000000 41.000000 0.000000
v 41.000000 41.000000 0.000000
v 59.000000 36.500000 -18.000000
v 0.000000 37.000000 16.000000
v -57.000000 37.000000 16.000000
v 0.000000 0.000000 16.000000
v -57.000000 0.000000 16.000000
v 0.000000 37.000000 16.000000
v 57.000000 37.000000 16.000000
v 0.000000 0.000000 16.000000
v 57.000000 0.000000 16.000000
v 57.000000 37.000000 -16.000000
v 0.000000 37.000000 -16.000000
v 57.000000 0.000000 -16.000000
v 0.000000 0.000000 -16.000000
v -57.000000 37.000000 -16.000000
v 0.000000 37.000000 -16.000000
v -57.000000 0.000000 -16.000000
v 0.000000 0.000000 -16.000000
v -57.000000 37.000000 -16.000000
v -57.000000 37.000000 16.000000
v -57.000000 0.000000 -16.000000
v -57.000000 0.000000 16.000000
v 57.000000 37.000000 16.000000
v 57.000000 37.000000 -16.000000
v 57.000000 0.000000 16.000000
v 57.000000 0.000000 -16.000000
v -48.000000 36.000000 19.000000
v -40.000000 36.000000 19.000000
v -48.000000 20.000000 19.000000
v -40.000000 20.000000 19.000000
v -40.000000 36.000000 19.000000
v -40.000000 36.000000 16.000000
v -40.000000 20.000000 19.000000
v -40.000000 20.000000 16.000000
v -48.000000 36.000000 16.000000
v -48.000000 36.000000 19.000000
v -48.000000 20.000000 16.000000
v -48.000000 20.000000 19.000000
v -16.000000 36.000000 19.000000
v -8.000000 36.000000 19.000000
v -16.000000 20.000000 19.000000
v -8.000000 20.000000 19.000000
v -8.000000 36.000000 19.000000
v -8.000000 36.000000 16.000000
v -8.000000 20.000000 19.000000
v -8.000000 20.000000 16.000000
v -16.000000 36.000000 16.000000
v -16.000000 36.000000 19.000000
v -16.000000 20.000000 16.000000
v -16.000000 20.000000 19.000000
v 8.000000 36.000000 19.000000
v 16.000000 36.000000 19.000000
v 8.000000 20.000000 19.000000
v 16.000000 20.000000 19.000000
v 16.000000 36.000000 19.000000
v 16.000000 36.000000 16.000000
v 16.000000 20.000000 19.000000
v 16.000000 20.000000 16.000000
v 8.000000 36.000000 16.000000
v 8.000000 36.000000 19.000000
v 8.000000 20.000000 16.000000
v 8.000000 20.000000 19.000000
v 40.000000 36.000000 19.000000
v 48.000000 36.000000 19.000000
v 40.000000 20.000000 19.000000
v 48.000000 20.000000 19.000000
v 48.000000 36.000000 19.000000
v 48.000000 36.000000 16.000000
v 48.000000 20.000000 19.000000
v 48.000000 20.000000 16.000000
v 40.000000 36.000000 16.000000
v 40.000000 36.000000 19.000000
v 40.000000 20.000000 16.000000
v 40.000000 20.000000 19.000000
v 48.000000 36.000000 -19.000000
v 40.000000 36.000000 -19.000000
v 48.000000 20.000000 -19.000000
v 40.000000 20.000000 -19.000000
v 40.000000 36.000000 -19.000000
v 40.000000 36.000000 -16.000000
v 40.000000 20.000000 -19.000000
v 40.000000 20.000000 -16.000000
v 48.000000 36.000000 -16.000000
v 48.000000 36.000000 -19.000000
v 48.000000 20.000000 -16.000000
v 48.000000 20.000000 -19.000000
v 16.000000 36.000000 -19.000000
v 8.000000 36.000000 -19.000000
v 16.000000 20.000000 -19.000000
v 8.000000 20.000000 -19.000000
v 8.000000 36.000000 -19.000000
v 8.000000 36.000000 -16.000000
v 8.000000 20.000000 -19.000000
v 8.000000 20.000000 -16.000000
v 16.000000 36.000000 -16.000000
v 16.000000 36.000000 -19.000000
v 16.000000 20.000000 -16.000000
v 16.000000 20.000000 -19.000000
v -8.000000 36.000000 -19.000000
v -16.000000 36.000000 -19.000000
v -8.000000 20.000000 -19.000000
v -16.000000 20.000000 -19.000000
v -16.000000 36.000000 -19.000000
v -16.000000 36.000000 -16.000000
v -16.000000 20.000000 -19.000000
v -16.000000 20.000000 -16.000000
v -8.000000 36.000000 -16.000000
v -8.000000 36.000000 -19.000000
v -8.000000 20.000000 -16.000000
v -8.000000 20.000000 -19.000000
v -40.000000 36.000000 -19.000000
v -48.000000 36.000000 -19.000000
v -40.000000 20.000000 -19.000000
v -48.000000 20.000000 -19.000000
v -48.000000 36.000000 -19.000000
v -48.000000 36.000000 -16.000000
v -48.000000 20.000000 -19.000000
v -48.000000 20.000000 -16.000000
v -40.000000 36.000000 -16.000000
v -40.000000 36.000000 -19.000000
v -40.000000 20.000000 -16.000000
v -40.000000 20.000000 -19.000000
v -25.000000 7.000000 19.000000
v -31.000000 7.000000 19.000000
v -25.000000 7.500000 16.000000
v -31.000000 7.500000 16.000000
v -25.000000 7.000000 19.000000
v -31.000000 7.000000 19.000000
v -25.000000 7.500000 16.000000
v -31.000000 7.500000 16.000000
v -40.000000 36.000000 19.000000
v -48.000000 36.000000 19.000000
v -40.000000 36.000000 16.000000
v -48.000000 36.000000 16.000000
v -40.000000 20.000000 19.000000
v -48.000000 20.000000 19.000000
v -40.000000 20.000000 16.000000
v -48.000000 20.000000 16.000000
v -8.000000 36.000000 19.000000
v -16.000000 36.000000 19.000000
v -8.000000 36.000000 16.000000
v -16.000000 36.000000 16.000000
v -8.000000 20.000000 19.000000
v -16.000000 20.000000 19.000000
v -8.000000 20.000000 16.000000
v -16.000000 20.000000 16.000000
v 16.000000 36.000000 19.000000
v 8.000000 36.000000 19.000000
v 16.000000 36.000000 16.000000
v 8.000000 36.000000 16.000000
v 16.000000 20.000000 19.000000
v 8.000000 20.000000 19.000000
v 16.000000 20.000000 16.000000
v 8.000000 20.000000 16.000000
v 48.000000 36.000000 19.000000
v 40.000000 36.000000 19.000000
v 48.000000 36.000000 16.000000
v 40.000000 36.000000 16.000000
v 48.000000 20.000000 19.000000
v 40.000000 20.000000 19.000000
v 48.000000 20.000000 16.000000
v 40.000000 20.000000 16.000000
v -40.000000 36.000000 -16.000000
v -48.000000 36.000000 -16.000000
v -40.000000 36.000000 -19.000000
v -48.000000 36.000000 -19.000000
v -40.000000 20.000000 -16.000000
v -48.000000 20.000000 -16.000000
v -40.000000 20.000000 -19.000000
v -48.000000 20.000000 -19.000000
v -8.000000 36.000000 -16.000000
v -16.000000 36.000000 -16.000000
v -8.000000 36.000000 -19.000000
v -16.000000 36.000000 -19.000000
v -8.000000 20.000000 -16.000000
v -16.000000 20.000000 -16.000000
v -8.000000 20.000000 -19.000000
v -16.000000 20.000000 -19.000000
v 16.000000 36.000000 -16.000000
v 8.000000 36.000000 -16.000000
v 16.000000 36.000000 -19.000000
v 8.000000 36.000000 -19.000000
v 16.000000 20.000000 -16.000000
v 8.000000 20.000000 -16.000000
v 16.000000 20.000000 -19.000000
v 8.000000 20.000000 -19.000000
v 48.000000 36.000000 -16.000000
v 40.000000 36.000000 -16.000000
v 48.000000 36.000000 -19.000000
v 40.000000 36.000000 -19.000000
v 48.000000 20.000000 -16.000000
v 40.000000 20.000000 -16.000000
v 48.000000 20.000000 -19.000000
v 40.000000 20.000000 -19.000000
v 31.000000 7.000000 19.000000
v 25.000000 7.000000 19.000000
v 31.000000 7.500000 16.000000
v 25.000000 7.500000 16.000000
v 31.000000 7.000000 19.000000
v 25.000000 7.000000 19.000000
v 31.000000 7.500000 16.000000
v 25.000000 7.500000 16.000000
# 388 vertices

vt 0.937500 0.046875
vt 1.000000 0.000000
vt 1.000000 0.046875
vt 0.562500 0.312500
vt 0.593750 0.296875
vt 0.593750 0.312500
vt 0.609375 0.296875
vt 0.609375 0.312500
vt 0.875000 0.039063
vt 0.875000 0.015625
vt 0.890625 0.015625
vt 0.890625 0.039063
vt 0.933263 0.046875
vt 0.933263 0.000000
vt 0.629237 0.046875
vt 0.629237 0.000000
vt 0.562500 0.000000
vt 0.562500 0.859375
vt 0.343750 0.859375
vt 0.343750 1.000000
vt 0.562500 1.000000
vt 0.000000 1.000000
vt 0.000000 0.859375
vt 0.218750 0.859375
vt 0.218750 1.000000
vt 0.968750 0.234375
vt 0.968750 0.171875
vt 1.000000 0.171875
vt 1.000000 0.234375
vt 0.980469 0.171875
vt 0.980469 0.234375
vt 0.988281 0.234375
vt 0.988281 0.171875
vt 0.937500 0.234375
vt 0.937500 0.171875
vt 0.949219 0.171875
vt 0.949219 0.234375
vt 0.957031 0.234375
vt 0.957031 0.171875
vt 0.968750 0.296875
vt 1.000000 0.296875
vt 0.980469 0.296875
vt 0.988281 0.296875
vt 0.937500 0.296875
vt 0.949219 0.296875
vt 0.957031 0.296875
vt 0.640625 0.296875
vt 0.640625 0.312500
vt 0.671875 0.296875
vt 0.671875 0.312500
# 50 texture coordinates

vn -0.242536 0.970142 0.000000
vn 0.242536 0.970142 0.000000
vn -1.000000 0.000000 0.000000
vn 0.000000 0.000000 1.000000
vn 1.000000 0.000000 0.000000
vn 0.000000 0.992278 -0.124035
vn 0.000000 0.000000 -1.000000
vn 0.000000 0.992278 0.124035
vn 0.124035 0.992278 0.000000
vn -0.124035 0.992278 0.000000
vn 0.000000 0.970142 0.242536
vn 0.000000 0.970142 -0.242536
vn 0.242536 -0.970142 0.000000
vn -0.242536 -0.970142 0.000000
vn 0.000000 -0.970142 -0.242536
vn 0.000000 -0.970142 0.242536
vn 0.000000 0.986394 0.164399
vn 0.000000 -0.986394 -0.164399
vn 0.000000 1.000000 0.000000
vn 0.000000 -1.000000 0.000000
# 20 normals

g Regroup14
usemtl Material02
s 1
f 1/1/1 3/2/1 2/3/1
f 5/3/1 6/2/1 4/1/1
f 7/1/2 9/2/2 8/3/2
f 11/3/2 12/2/2 10/1/2
f 13/4/3 15/5/3 14/6/3
f 16/6/4 18/5/4 19/7/4
f 16/6/4 19/7/4 17/8/4
f 21/6/5 22/5/5 20/4/5
f 23/9/6 25/10/6 26/11/6
f 23/9/6 26/11/6 24/12/6
f 27/4/3 29/5/3 28/6/3
f 30/6/4 32/5/4 33/7/4
f 30/6/4 33/7/4 31/8/4
f 35/6/5 36/5/5 34/4/5
f 37/9/6 39/10/6 40/11/6
f 37/9/6 40/11/6 38/12/6
f 41/4/3 43/5/3 42/6/3
f 44/6/4 46/5/4 47/7/4
f 44/6/4 47/7/4 45/8/4
f 49/6/5 50/5/5 48/4/5
f 51/9/6 53/10/6 54/11/6
f 51/9/6 54/11/6 52/12/6
f 55/4/3 57/5/3 56/6/3
f 58/6/4 60/5/4 61/7/4
f 58/6/4 61/7/4 59/8/4
f 63/6/5 64/5/5 62/4/5
f 65/9/6 67/10/6 68/11/6
f 65/9/6 68/11/6 66/12/6
f 69/4/5 71/5/5 70/6/5
f 72/6/7 74/5/7 75/7/7
f 72/6/7 75/7/7 73/8/7
f 77/6/3 78/5/3 76/4/3
f 79/9/8 81/10/8 82/11/8
f 79/9/8 82/11/8 80/12/8
f 83/4/5 85/5/5 84/6/5
f 86/6/7 88/5/7 89/7/7
f 86/6/7 89/7/7 87/8/7
f 91/6/3 92/5/3 90/4/3
f 93/9/8 95/10/8 96/11/8
f 93/9/8 96/11/8 94/12/8
f 97/4/5 99/5/5 98/6/5
f 100/6/7 102/5/7 103/7/7
f 100/6/7 103/7/7 101/8/7
f 105/6/3 106/5/3 104/4/3
f 107/9/8 109/10/8 110/11/8
f 107/9/8 110/11/8 108/12/8
f 111/4/5 113/5/5 112/6/5
f 114/6/7 116/5/7 117/7/7
f 114/6/7 117/7/7 115/8/7
f 119/6/3 120/5/3 118/4/3
f 121/9/8 123/10/8 124/11/8
f 121/9/8 124/11/8 122/12/8
f 125/4/7 127/5/7 126/6/7
f 128/6/3 130/5/3 131/7/3
f 128/6/3 131/7/3 129/8/3
f 133/6/4 134/5/4 132/4/4
f 135/9/9 137/10/9 138/11/9
f 135/9/9 138/11/9 136/12/9
f 139/4/4 141/5/4 140/6/4
f 142/6/5 144/5/5 145/7/5
f 142/6/5 145/7/5 143/8/5
f 147/6/7 148/5/7 146/4/7
f 149/9/10 151/10/10 152/11/10
f 149/9/10 152/11/10 150/12/10
f 153/2/11 156/13/11 154/14/11
f 156/13/11 157/15/11 155/16/11
f 156/13/11 155/16/11 154/14/11
f 155/16/11 157/15/11 158/17/11
f 159/2/12 162/13/12 160/14/12
f 162/13/12 163/15/12 161/16/12
f 162/13/12 161/16/12 160/14/12
f 161/16/12 163/15/12 164/17/12
f 166/3/13 167/2/13 165/1/13
f 168/1/13 170/2/13 169/3/13
f 172/3/14 173/2/14 171/1/14
f 174/1/14 176/2/14 175/3/14
f 178/14/15 180/13/15 177/2/15
f 179/16/15 181/15/15 180/13/15
f 178/14/15 179/16/15 180/13/15
f 182/17/15 181/15/15 179/16/15
f 184/14/16 186/13/16 183/2/16
f 185/16/16 187/15/16 186/13/16
f 184/14/16 185/16/16 186/13/16
f 188/17/16 187/15/16 185/16/16
f 192/18/4 191/19/4 189/20/4
f 190/21/4 192/18/4 189/20/4
f 193/20/4 195/19/4 196/18/4
f 193/20/4 196/18/4 194/21/4
f 197/22/7 199/23/7 200/24/7
f 197/22/7 200/24/7 198/25/7
f 204/24/7 203/23/7 201/22/7
f 202/25/7 204/24/7 201/22/7
f 205/25/3 207/24/3 208/19/3
f 205/25/3 208/19/3 206/20/3
f 209/25/5 211/24/5 212/19/5
f 209/25/5 212/19/5 210/20/5
f 213/26/4 215/27/4 216/28/4
f 213/26/4 216/28/4 214/29/4
f 217/26/5 219/27/5 220/30/5
f 217/26/5 220/30/5 218/31/5
f 221/32/3 223/33/3 224/28/3
f 221/32/3 224/28/3 222/29/3
f 225/34/4 227/35/4 228/27/4
f 225/34/4 228/27/4 226/26/4
f 229/34/5 231/35/5 232/36/5
f 229/34/5 232/36/5 230/37/5
f 233/38/3 235/39/3 236/27/3
f 233/38/3 236/27/3 234/26/3
f 237/40/4 239/26/4 240/29/4
f 237/40/4 240/29/4 238/41/4
f 241/40/5 243/26/5 244/31/5
f 241/40/5 244/31/5 242/42/5
f 245/43/3 247/32/3 248/29/3
f 245/43/3 248/29/3 246/41/3
f 249/44/4 251/34/4 252/26/4
f 249/44/4 252/26/4 250/40/4
f 253/44/5 255/34/5 256/37/5
f 253/44/5 256/37/5 254/45/5
f 257/46/3 259/38/3 260/26/3
f 257/46/3 260/26/3 258/40/3
f 261/26/7 263/27/7 264/28/7
f 261/26/7 264/28/7 262/29/7
f 265/26/3 267/27/3 268/30/3
f 265/26/3 268/30/3 266/31/3
f 269/32/5 271/33/5 272/28/5
f 269/32/5 272/28/5 270/29/5
f 273/34/7 275/35/7 276/27/7
f 273/34/7 276/27/7 274/26/7
f 277/34/3 279/35/3 280/36/3
f 277/34/3 280/36/3 278/37/3
f 281/38/5 283/39/5 284/27/5
f 281/38/5 284/27/5 282/26/5
f 285/40/7 287/26/7 288/29/7
f 285/40/7 288/29/7 286/41/7
f 289/40/3 291/26/3 292/31/3
f 289/40/3 292/31/3 290/42/3
f 293/43/5 295/32/5 296/29/5
f 293/43/5 296/29/5 294/41/5
f 297/44/7 299/34/7 300/26/7
f 297/44/7 300/26/7 298/40/7
f 301/44/3 303/34/3 304/37/3
f 301/44/3 304/37/3 302/45/3
f 305/46/5 307/38/5 308/26/5
f 305/46/5 308/26/5 306/40/5
f 309/8/17 311/7/17 312/47/17
f 309/8/17 312/47/17 310/48/17
f 316/47/18 315/7/18 313/8/18
f 314/48/18 316/47/18 313/8/18
f 317/48/19 319/47/19 320/49/19
f 317/48/19 320/49/19 318/50/19
f 324/49/20 323/47/20 321/48/20
f 322/50/20 324/49/20 321/48/20
f 325/48/19 327/47/19 328/49/19
f 325/48/19 328/49/19 326/50/19
f 332/49/20 331/47/20 329/48/20
f 330/50/20 332/49/20 329/48/20
f 333/48/19 335/47/19 336/49/19
f 333/48/19 336/49/19 334/50/19
f 340/49/20 339/47/20 337/48/20
f 338/50/20 340/49/20 337/48/20
f 341/48/19 343/47/19 344/49/19
f 341/48/19 344/49/19 342/50/19
f 348/49/20 347/47/20 345/48/20
f 346/50/20 348/49/20 345/48/20
f 349/48/19 351/47/19 352/49/19
f 349/48/19 352/49/19 350/50/19
f 356/49/20 355/47/20 353/48/20
f 354/50/20 356/49/20 353/48/20
f 357/48/19 359/47/19 360/49/19
f 357/48/19 360/49/19 358/50/19
f 364/49/20 363/47/20 361/48/20
f 362/50/20 364/49/20 361/48/20
f 365/48/19 367/47/19 368/49/19
f 365/48/19 368/49/19 366/50/19
f 372/49/20 371/47/20 369/48/20
f 370/50/20 372/49/20 369/48/20
f 373/48/19 375/47/19 376/49/19
f 373/48/19 376/49/19 374/50/19
f 380/49/20 379/47/20 377/48/20
f 378/50/20 380/49/20 377/48/20
f 381/8/17 383/7/17 384/47/17
f 381/8/17 384/47/17 382/48/17
f 388/47/18 387/7/18 385/8/18
f 386/48/18 388/47/18 385/8/18
# 184 triangles in group

# 184 triangles total

