# Wavefront OBJ exported by MilkShape 3D

mtllib rus_build_5et_05_LOD2.mtl

v 28.000000 45.000000 -16.000000
v -28.000000 45.000000 -16.000000
v 28.000000 0.000000 -16.000000
v -28.000000 0.000000 -16.000000
v -28.000000 45.000000 16.000000
v 28.000000 45.000000 16.000000
v -28.000000 0.000000 16.000000
v 28.000000 0.000000 16.000000
v 85.000000 37.000000 -16.000000
v 28.000000 37.000000 -16.000000
v 85.000000 0.000000 -16.000000
v 28.000000 0.000000 -16.000000
v -85.000000 37.000000 -16.000000
v -28.000000 37.000000 -16.000000
v -85.000000 0.000000 -16.000000
v -28.000000 0.000000 -16.000000
v 28.000000 37.000000 16.000000
v 85.000000 37.000000 16.000000
v 28.000000 0.000000 16.000000
v 85.000000 0.000000 16.000000
v -28.000000 37.000000 16.000000
v -85.000000 37.000000 16.000000
v -28.000000 0.000000 16.000000
v -85.000000 0.000000 16.000000
v -85.000000 37.000000 -16.000000
v -85.000000 37.000000 16.000000
v -85.000000 0.000000 -16.000000
v -85.000000 0.000000 16.000000
v 85.000000 37.000000 16.000000
v 85.000000 37.000000 -16.000000
v 85.000000 0.000000 16.000000
v 85.000000 0.000000 -16.000000
v -69.000000 41.000000 0.000000
v -87.000000 36.500000 0.000000
v -87.000000 36.500000 -18.000000
v -69.000000 41.000000 0.000000
v -87.000000 36.500000 0.000000
v -87.000000 36.500000 18.000000
v -28.000000 36.500000 18.000000
v -69.000000 36.500000 18.000000
v -28.000000 41.000000 0.000000
v -69.000000 41.000000 0.000000
v -87.000000 36.500000 18.000000
v -87.000000 36.500000 -18.000000
v -69.000000 36.500000 -18.000000
v -69.000000 41.000000 0.000000
v -69.000000 41.000000 0.000000
v -87.000000 36.500000 0.000000
v -87.000000 36.500000 -18.000000
v -69.000000 41.000000 0.000000
v -87.000000 36.500000 0.000000
v -87.000000 36.500000 18.000000
v -28.000000 36.500000 18.000000
v -69.000000 36.500000 18.000000
v -28.000000 41.000000 0.000000
v -69.000000 41.000000 0.000000
v -87.000000 36.500000 18.000000
v -87.000000 36.500000 -18.000000
v -69.000000 36.500000 -18.000000
v -69.000000 41.000000 0.000000
v -28.000000 36.500000 -18.000000
v -69.000000 36.500000 -18.000000
v -28.000000 41.000000 0.000000
v -69.000000 41.000000 0.000000
v -28.000000 36.500000 -18.000000
v -69.000000 36.500000 -18.000000
v -28.000000 41.000000 0.000000
v -69.000000 41.000000 0.000000
v 69.000000 41.000000 0.000000
v 87.000000 36.500000 0.000000
v 87.000000 36.500000 18.000000
v 69.000000 41.000000 0.000000
v 87.000000 36.500000 0.000000
v 87.000000 36.500000 -18.000000
v 28.000000 36.500000 -18.000000
v 69.000000 36.500000 -18.000000
v 28.000000 41.000000 0.000000
v 69.000000 41.000000 0.000000
v 87.000000 36.500000 -18.000000
v 87.000000 36.500000 18.000000
v 69.000000 36.500000 18.000000
v 69.000000 41.000000 0.000000
v 69.000000 41.000000 0.000000
v 87.000000 36.500000 0.000000
v 87.000000 36.500000 18.000000
v 69.000000 41.000000 0.000000
v 87.000000 36.500000 0.000000
v 87.000000 36.500000 -18.000000
v 28.000000 36.500000 -18.000000
v 69.000000 36.500000 -18.000000
v 28.000000 41.000000 0.000000
v 69.000000 41.000000 0.000000
v 87.000000 36.500000 -18.000000
v 87.000000 36.500000 18.000000
v 69.000000 36.500000 18.000000
v 69.000000 41.000000 0.000000
v 28.000000 36.500000 18.000000
v 69.000000 36.500000 18.000000
v 28.000000 41.000000 0.000000
v 69.000000 41.000000 0.000000
v 28.000000 36.500000 18.000000
v 69.000000 36.500000 18.000000
v 28.000000 41.000000 0.000000
v 69.000000 41.000000 0.000000
v 12.000000 49.000000 0.000000
v 30.000000 44.500000 0.000000
v 30.000000 44.500000 18.000000
v 12.000000 49.000000 0.000000
v 30.000000 44.500000 0.000000
v 30.000000 44.500000 -18.000000
v -12.000000 44.500000 -18.000000
v 12.000000 44.500000 -18.000000
v -12.000000 49.000000 0.000000
v 12.000000 49.000000 0.000000
v 30.000000 44.500000 -18.000000
v 30.000000 44.500000 18.000000
v 12.000000 44.500000 18.000000
v 12.000000 49.000000 0.000000
v 12.000000 49.000000 0.000000
v 30.000000 44.500000 0.000000
v 30.000000 44.500000 18.000000
v 12.000000 49.000000 0.000000
v 30.000000 44.500000 0.000000
v 30.000000 44.500000 -18.000000
v -12.000000 44.500000 -18.000000
v 12.000000 44.500000 -18.000000
v -12.000000 49.000000 0.000000
v 12.000000 49.000000 0.000000
v 30.000000 44.500000 -18.000000
v 30.000000 44.500000 18.000000
v 12.000000 44.500000 18.000000
v 12.000000 49.000000 0.000000
v -12.000000 44.500000 18.000000
v 12.000000 44.500000 18.000000
v -12.000000 49.000000 0.000000
v 12.000000 49.000000 0.000000
v -12.000000 44.500000 18.000000
v 12.000000 44.500000 18.000000
v -12.000000 49.000000 0.000000
v 12.000000 49.000000 0.000000
v -12.000000 49.000000 0.000000
v -30.000000 44.500000 0.000000
v -30.000000 44.500000 -18.000000
v -12.000000 49.000000 0.000000
v -30.000000 44.500000 0.000000
v -30.000000 44.500000 18.000000
v -12.000000 44.500000 18.000000
v -12.000000 49.000000 0.000000
v -30.000000 44.500000 18.000000
v -30.000000 44.500000 -18.000000
v -12.000000 44.500000 -18.000000
v -12.000000 49.000000 0.000000
v -12.000000 49.000000 0.000000
v -30.000000 44.500000 0.000000
v -30.000000 44.500000 -18.000000
v -12.000000 49.000000 0.000000
v -30.000000 44.500000 0.000000
v -30.000000 44.500000 18.000000
v -12.000000 44.500000 18.000000
v -12.000000 49.000000 0.000000
v -30.000000 44.500000 18.000000
v -30.000000 44.500000 -18.000000
v -12.000000 44.500000 -18.000000
v -12.000000 49.000000 0.000000
v -28.000000 45.000000 -16.000000
v -28.000000 45.000000 16.000000
v -28.000000 0.000000 -16.000000
v -28.000000 0.000000 16.000000
v 28.000000 45.000000 16.000000
v 28.000000 45.000000 -16.000000
v 28.000000 0.000000 16.000000
v 28.000000 0.000000 -16.000000
# 172 vertices

vt 0.218750 1.000000
vt 0.218750 0.828125
vt 0.437500 0.828125
vt 0.437500 1.000000
vt 0.562500 1.000000
vt 0.562500 0.828125
vt 0.781250 0.828125
vt 0.781250 1.000000
vt 0.000000 0.968750
vt 0.000000 0.828125
vt 0.218750 0.968750
vt 0.781250 0.968750
vt 1.000000 0.828125
vt 1.000000 0.968750
vt 0.437500 0.968750
vt 0.562500 0.968750
vt 0.932966 0.781250
vt 1.000000 0.734375
vt 1.000000 0.781250
vt 0.781735 0.781250
vt 0.629237 0.781250
vt 0.629237 0.734375
vt 0.781735 0.734375
vt 0.562500 0.734375
vt 0.933263 0.734375
vt 0.718128 0.781250
vt 0.718128 0.734375
# 27 texture coordinates

vn 0.000000 0.000000 -1.000000
vn 0.000000 0.000000 1.000000
vn -1.000000 0.000000 0.000000
vn 1.000000 0.000000 0.000000
vn -0.242536 0.970142 0.000000
vn 0.000000 0.970142 0.242536
vn 0.000000 0.970142 -0.242536
vn 0.242536 0.970142 0.000000
# 8 normals

g Regroup06
usemtl Material03
s 1
f 1/1/1 3/2/1 4/3/1
f 1/1/1 4/3/1 2/4/1
f 5/5/2 7/6/2 8/7/2
f 5/5/2 8/7/2 6/8/2
f 9/9/1 11/10/1 12/2/1
f 9/9/1 12/2/1 10/11/1
f 16/2/1 15/10/1 13/9/1
f 14/11/1 16/2/1 13/9/1
f 17/12/2 19/7/2 20/13/2
f 17/12/2 20/13/2 18/14/2
f 24/13/2 23/7/2 21/12/2
f 22/14/2 24/13/2 21/12/2
f 25/15/3 27/3/3 28/6/3
f 25/15/3 28/6/3 26/16/3
f 29/15/4 31/3/4 32/6/4
f 29/15/4 32/6/4 30/16/4
f 33/17/5 35/18/5 34/19/5
f 37/19/5 38/18/5 36/17/5
f 41/20/6 42/21/6 40/22/6
f 41/20/6 40/22/6 39/23/6
f 40/22/6 42/21/6 43/24/6
f 44/18/7 46/17/7 45/25/7
f 47/17/5 49/18/5 48/19/5
f 51/19/5 52/18/5 50/17/5
f 55/20/6 56/21/6 54/22/6
f 55/20/6 54/22/6 53/23/6
f 54/22/6 56/21/6 57/24/6
f 58/18/7 60/17/7 59/25/7
f 62/22/7 64/21/7 63/20/7
f 61/23/7 62/22/7 63/20/7
f 66/22/7 68/21/7 67/20/7
f 65/23/7 66/22/7 67/20/7
f 69/17/8 71/18/8 70/19/8
f 73/19/8 74/18/8 72/17/8
f 77/20/7 78/21/7 76/22/7
f 77/20/7 76/22/7 75/23/7
f 76/22/7 78/21/7 79/24/7
f 80/18/6 82/17/6 81/25/6
f 83/17/8 85/18/8 84/19/8
f 87/19/8 88/18/8 86/17/8
f 91/20/7 92/21/7 90/22/7
f 91/20/7 90/22/7 89/23/7
f 90/22/7 92/21/7 93/24/7
f 94/18/6 96/17/6 95/25/6
f 98/22/6 100/21/6 99/20/6
f 97/23/6 98/22/6 99/20/6
f 102/22/6 104/21/6 103/20/6
f 101/23/6 102/22/6 103/20/6
f 105/17/8 107/18/8 106/19/8
f 109/19/8 110/18/8 108/17/8
f 113/26/7 114/21/7 112/22/7
f 113/26/7 112/22/7 111/27/7
f 112/22/7 114/21/7 115/24/7
f 116/18/6 118/17/6 117/25/6
f 119/17/8 121/18/8 120/19/8
f 123/19/8 124/18/8 122/17/8
f 127/26/7 128/21/7 126/22/7
f 127/26/7 126/22/7 125/27/7
f 126/22/7 128/21/7 129/24/7
f 130/18/6 132/17/6 131/25/6
f 134/22/6 136/21/6 135/26/6
f 133/27/6 134/22/6 135/26/6
f 138/22/6 140/21/6 139/26/6
f 137/27/6 138/22/6 139/26/6
f 141/17/5 143/18/5 142/19/5
f 145/19/5 146/18/5 144/17/5
f 147/22/6 148/21/6 149/24/6
f 150/18/7 152/17/7 151/25/7
f 153/17/5 155/18/5 154/19/5
f 157/19/5 158/18/5 156/17/5
f 159/22/6 160/21/6 161/24/6
f 162/18/7 164/17/7 163/25/7
f 165/4/3 167/3/3 168/6/3
f 165/4/3 168/6/3 166/5/3
f 169/4/4 171/3/4 172/6/4
f 169/4/4 172/6/4 170/5/4
# 76 triangles in group

# 76 triangles total

