# Wavefront OBJ exported by MilkShape 3D

mtllib rus_build_5et_04_LOD1.mtl

v 57.000000 44.500000 -16.000000
v 0.000000 44.500000 -16.000000
v 57.000000 0.000000 -16.000000
v 0.000000 0.000000 -16.000000
v -57.000000 44.500000 -16.000000
v 0.000000 44.500000 -16.000000
v -57.000000 0.000000 -16.000000
v 0.000000 0.000000 -16.000000
v 0.000000 45.000000 16.000000
v 57.000000 45.000000 16.000000
v 0.000000 0.000000 16.000000
v 57.000000 0.000000 16.000000
v 0.000000 45.000000 16.000000
v -57.000000 45.000000 16.000000
v 0.000000 0.000000 16.000000
v -57.000000 0.000000 16.000000
v 57.000000 44.500000 16.000000
v 57.000000 44.500000 -16.000000
v 57.000000 0.000000 16.000000
v 57.000000 0.000000 -16.000000
v -57.000000 44.500000 -16.000000
v -57.000000 44.500000 16.000000
v -57.000000 0.000000 -16.000000
v -57.000000 0.000000 16.000000
v -18.000000 48.000000 4.000000
v -18.000000 49.000000 12.000000
v -18.000000 45.000000 12.000000
v -18.000000 49.000000 12.000000
v -14.000000 49.000000 12.000000
v -18.000000 45.000000 12.000000
v -14.000000 45.000000 12.000000
v -14.000000 48.000000 4.000000
v -14.000000 49.000000 12.000000
v -14.000000 45.000000 12.000000
v -14.000000 49.000000 12.000000
v -18.000000 49.000000 12.000000
v -14.000000 48.000000 4.000000
v -18.000000 48.000000 4.000000
v -43.000000 48.000000 4.000000
v -43.000000 49.000000 12.000000
v -43.000000 45.000000 12.000000
v -43.000000 49.000000 12.000000
v -39.000000 49.000000 12.000000
v -43.000000 45.000000 12.000000
v -39.000000 45.000000 12.000000
v -39.000000 48.000000 4.000000
v -39.000000 49.000000 12.000000
v -39.000000 45.000000 12.000000
v -39.000000 49.000000 12.000000
v -43.000000 49.000000 12.000000
v -39.000000 48.000000 4.000000
v -43.000000 48.000000 4.000000
v -45.000000 48.000000 -2.000000
v -53.000000 49.000000 -2.000000
v -53.000000 45.000000 -2.000000
v -53.000000 49.000000 -2.000000
v -53.000000 49.000000 2.000000
v -53.000000 45.000000 -2.000000
v -53.000000 45.000000 2.000000
v -45.000000 48.000000 2.000000
v -53.000000 49.000000 2.000000
v -53.000000 45.000000 2.000000
v -53.000000 49.000000 2.000000
v -53.000000 49.000000 -2.000000
v -45.000000 48.000000 2.000000
v -45.000000 48.000000 -2.000000
v -39.000000 48.000000 -4.000000
v -39.000000 49.000000 -12.000000
v -39.000000 45.000000 -12.000000
v -39.000000 49.000000 -12.000000
v -43.000000 49.000000 -12.000000
v -39.000000 45.000000 -12.000000
v -43.000000 45.000000 -12.000000
v -43.000000 48.000000 -4.000000
v -43.000000 49.000000 -12.000000
v -43.000000 45.000000 -12.000000
v -43.000000 49.000000 -12.000000
v -39.000000 49.000000 -12.000000
v -43.000000 48.000000 -4.000000
v -39.000000 48.000000 -4.000000
v -14.000000 48.000000 -4.000000
v -14.000000 49.000000 -12.000000
v -14.000000 45.000000 -12.000000
v -14.000000 49.000000 -12.000000
v -18.000000 49.000000 -12.000000
v -14.000000 45.000000 -12.000000
v -18.000000 45.000000 -12.000000
v -18.000000 48.000000 -4.000000
v -18.000000 49.000000 -12.000000
v -18.000000 45.000000 -12.000000
v -18.000000 49.000000 -12.000000
v -14.000000 49.000000 -12.000000
v -18.000000 48.000000 -4.000000
v -14.000000 48.000000 -4.000000
v 18.000000 48.000000 -4.000000
v 18.000000 49.000000 -12.000000
v 18.000000 45.000000 -12.000000
v 18.000000 49.000000 -12.000000
v 14.000000 49.000000 -12.000000
v 18.000000 45.000000 -12.000000
v 14.000000 45.000000 -12.000000
v 14.000000 48.000000 -4.000000
v 14.000000 49.000000 -12.000000
v 14.000000 45.000000 -12.000000
v 14.000000 49.000000 -12.000000
v 18.000000 49.000000 -12.000000
v 14.000000 48.000000 -4.000000
v 18.000000 48.000000 -4.000000
v 43.000000 48.000000 -4.000000
v 43.000000 49.000000 -12.000000
v 43.000000 45.000000 -12.000000
v 43.000000 49.000000 -12.000000
v 39.000000 49.000000 -12.000000
v 43.000000 45.000000 -12.000000
v 39.000000 45.000000 -12.000000
v 39.000000 48.000000 -4.000000
v 39.000000 49.000000 -12.000000
v 39.000000 45.000000 -12.000000
v 39.000000 49.000000 -12.000000
v 43.000000 49.000000 -12.000000
v 39.000000 48.000000 -4.000000
v 43.000000 48.000000 -4.000000
v 45.000000 48.000000 2.000000
v 53.000000 49.000000 2.000000
v 53.000000 45.000000 2.000000
v 53.000000 49.000000 2.000000
v 53.000000 49.000000 -2.000000
v 53.000000 45.000000 2.000000
v 53.000000 45.000000 -2.000000
v 45.000000 48.000000 -2.000000
v 53.000000 49.000000 -2.000000
v 53.000000 45.000000 -2.000000
v 53.000000 49.000000 -2.000000
v 53.000000 49.000000 2.000000
v 45.000000 48.000000 -2.000000
v 45.000000 48.000000 2.000000
v 39.000000 48.000000 4.000000
v 39.000000 49.000000 12.000000
v 39.000000 45.000000 12.000000
v 39.000000 49.000000 12.000000
v 43.000000 49.000000 12.000000
v 39.000000 45.000000 12.000000
v 43.000000 45.000000 12.000000
v 43.000000 48.000000 4.000000
v 43.000000 49.000000 12.000000
v 43.000000 45.000000 12.000000
v 43.000000 49.000000 12.000000
v 39.000000 49.000000 12.000000
v 43.000000 48.000000 4.000000
v 39.000000 48.000000 4.000000
v 14.000000 48.000000 4.000000
v 14.000000 49.000000 12.000000
v 14.000000 45.000000 12.000000
v 14.000000 49.000000 12.000000
v 18.000000 49.000000 12.000000
v 14.000000 45.000000 12.000000
v 18.000000 45.000000 12.000000
v 18.000000 48.000000 4.000000
v 18.000000 49.000000 12.000000
v 18.000000 45.000000 12.000000
v 18.000000 49.000000 12.000000
v 14.000000 49.000000 12.000000
v 18.000000 48.000000 4.000000
v 14.000000 48.000000 4.000000
v 59.000000 44.500000 18.000000
v 41.000000 44.500000 18.000000
v 41.000000 44.500000 18.000000
v -41.000000 44.500000 18.000000
v -59.000000 44.500000 18.000000
v 59.000000 44.500000 0.000000
v 41.000000 49.000000 0.000000
v 41.000000 49.000000 0.000000
v -41.000000 49.000000 0.000000
v -59.000000 44.500000 0.000000
v -59.000000 44.500000 -18.000000
v -41.000000 44.500000 -18.000000
v -41.000000 44.500000 -18.000000
v 41.000000 44.500000 -18.000000
v 59.000000 44.500000 -18.000000
v -59.000000 44.500000 0.000000
v -41.000000 49.000000 0.000000
v -41.000000 49.000000 0.000000
v 41.000000 49.000000 0.000000
v 59.000000 44.500000 0.000000
v 59.000000 44.500000 18.000000
v 41.000000 44.500000 18.000000
v 41.000000 44.500000 18.000000
v -41.000000 44.500000 18.000000
v -59.000000 44.500000 18.000000
v 59.000000 44.500000 0.000000
v 41.000000 49.000000 0.000000
v 41.000000 49.000000 0.000000
v -41.000000 49.000000 0.000000
v -59.000000 44.500000 0.000000
v -59.000000 44.500000 -18.000000
v -41.000000 44.500000 -18.000000
v -41.000000 44.500000 -18.000000
v 41.000000 44.500000 -18.000000
v 59.000000 44.500000 -18.000000
v -59.000000 44.500000 0.000000
v -41.000000 49.000000 0.000000
v -41.000000 49.000000 0.000000
v 41.000000 49.000000 0.000000
v 59.000000 44.500000 0.000000
v -25.000000 7.000000 19.000000
v -31.000000 7.000000 19.000000
v -25.000000 7.500000 16.000000
v -31.000000 7.500000 16.000000
v -25.000000 7.000000 19.000000
v -31.000000 7.000000 19.000000
v -25.000000 7.500000 16.000000
v -31.000000 7.500000 16.000000
v -31.000000 44.000000 19.000000
v -31.000000 44.000000 16.000000
v -31.000000 0.000000 19.000000
v -31.000000 0.000000 16.000000
v -49.000000 44.000000 16.000000
v -49.000000 44.000000 19.000000
v -49.000000 0.000000 16.000000
v -49.000000 0.000000 19.000000
v -49.000000 44.000000 19.000000
v -49.000000 44.000000 16.000000
v -31.000000 44.000000 19.000000
v -31.000000 44.000000 16.000000
v -49.000000 44.000000 19.000000
v -49.000000 44.000000 16.000000
v -49.000000 0.000000 19.000000
v -49.000000 0.000000 16.000000
v -31.000000 44.000000 16.000000
v -31.000000 44.000000 19.000000
v -31.000000 0.000000 16.000000
v -31.000000 0.000000 19.000000
v -25.000000 44.000000 19.000000
v -25.000000 44.000000 16.000000
v -7.000000 44.000000 19.000000
v -7.000000 44.000000 16.000000
v -49.000000 4.000000 16.000000
v -49.000000 4.000000 19.000000
v -31.000000 4.000000 16.000000
v -31.000000 4.000000 19.000000
v -25.000000 4.000000 16.000000
v -25.000000 4.000000 19.000000
v -7.000000 4.000000 16.000000
v -7.000000 4.000000 19.000000
v -7.000000 44.000000 19.000000
v -7.000000 44.000000 16.000000
v -7.000000 0.000000 19.000000
v -7.000000 0.000000 16.000000
v -25.000000 44.000000 16.000000
v -25.000000 44.000000 19.000000
v -25.000000 0.000000 16.000000
v -25.000000 0.000000 19.000000
v -25.000000 44.000000 19.000000
v -25.000000 44.000000 16.000000
v -25.000000 0.000000 19.000000
v -25.000000 0.000000 16.000000
v -7.000000 44.000000 16.000000
v -7.000000 44.000000 19.000000
v -7.000000 0.000000 16.000000
v -7.000000 0.000000 19.000000
v 31.000000 7.000000 19.000000
v 25.000000 7.000000 19.000000
v 31.000000 7.500000 16.000000
v 25.000000 7.500000 16.000000
v 31.000000 7.000000 19.000000
v 25.000000 7.000000 19.000000
v 31.000000 7.500000 16.000000
v 25.000000 7.500000 16.000000
v 25.000000 44.000000 19.000000
v 25.000000 44.000000 16.000000
v 25.000000 0.000000 19.000000
v 25.000000 0.000000 16.000000
v 7.000000 44.000000 16.000000
v 7.000000 44.000000 19.000000
v 7.000000 0.000000 16.000000
v 7.000000 0.000000 19.000000
v 7.000000 44.000000 19.000000
v 7.000000 44.000000 16.000000
v 25.000000 44.000000 19.000000
v 25.000000 44.000000 16.000000
v 7.000000 44.000000 19.000000
v 7.000000 44.000000 16.000000
v 7.000000 0.000000 19.000000
v 7.000000 0.000000 16.000000
v 25.000000 44.000000 16.000000
v 25.000000 44.000000 19.000000
v 25.000000 0.000000 16.000000
v 25.000000 0.000000 19.000000
v 31.000000 44.000000 19.000000
v 31.000000 44.000000 16.000000
v 49.000000 44.000000 19.000000
v 49.000000 44.000000 16.000000
v 7.000000 4.000000 16.000000
v 7.000000 4.000000 19.000000
v 25.000000 4.000000 16.000000
v 25.000000 4.000000 19.000000
v 31.000000 4.000000 16.000000
v 31.000000 4.000000 19.000000
v 49.000000 4.000000 16.000000
v 49.000000 4.000000 19.000000
v 49.000000 44.000000 19.000000
v 49.000000 44.000000 16.000000
v 49.000000 0.000000 19.000000
v 49.000000 0.000000 16.000000
v 31.000000 44.000000 16.000000
v 31.000000 44.000000 19.000000
v 31.000000 0.000000 16.000000
v 31.000000 0.000000 19.000000
v 31.000000 44.000000 19.000000
v 31.000000 44.000000 16.000000
v 31.000000 0.000000 19.000000
v 31.000000 0.000000 16.000000
v 49.000000 44.000000 16.000000
v 49.000000 44.000000 19.000000
v 49.000000 0.000000 16.000000
v 49.000000 0.000000 19.000000
v 31.000000 44.000000 -19.000000
v 31.000000 44.000000 -16.000000
v 31.000000 0.000000 -19.000000
v 31.000000 0.000000 -16.000000
v 49.000000 44.000000 -16.000000
v 49.000000 44.000000 -19.000000
v 49.000000 0.000000 -16.000000
v 49.000000 0.000000 -19.000000
v 49.000000 44.000000 -19.000000
v 49.000000 44.000000 -16.000000
v 31.000000 44.000000 -19.000000
v 31.000000 44.000000 -16.000000
v 49.000000 44.000000 -19.000000
v 49.000000 44.000000 -16.000000
v 49.000000 0.000000 -19.000000
v 49.000000 0.000000 -16.000000
v 31.000000 44.000000 -16.000000
v 31.000000 44.000000 -19.000000
v 31.000000 0.000000 -16.000000
v 31.000000 0.000000 -19.000000
v 25.000000 44.000000 -19.000000
v 25.000000 44.000000 -16.000000
v 7.000000 44.000000 -19.000000
v 7.000000 44.000000 -16.000000
v 49.000000 4.000000 -16.000000
v 49.000000 4.000000 -19.000000
v 31.000000 4.000000 -16.000000
v 31.000000 4.000000 -19.000000
v 25.000000 4.000000 -16.000000
v 25.000000 4.000000 -19.000000
v 7.000000 4.000000 -16.000000
v 7.000000 4.000000 -19.000000
v 7.000000 44.000000 -19.000000
v 7.000000 44.000000 -16.000000
v 7.000000 0.000000 -19.000000
v 7.000000 0.000000 -16.000000
v 25.000000 44.000000 -16.000000
v 25.000000 44.000000 -19.000000
v 25.000000 0.000000 -16.000000
v 25.000000 0.000000 -19.000000
v 25.000000 44.000000 -19.000000
v 25.000000 44.000000 -16.000000
v 25.000000 0.000000 -19.000000
v 25.000000 0.000000 -16.000000
v 7.000000 44.000000 -16.000000
v 7.000000 44.000000 -19.000000
v 7.000000 0.000000 -16.000000
v 7.000000 0.000000 -19.000000
v -25.000000 44.000000 -19.000000
v -25.000000 44.000000 -16.000000
v -25.000000 0.000000 -19.000000
v -25.000000 0.000000 -16.000000
v -7.000000 44.000000 -16.000000
v -7.000000 44.000000 -19.000000
v -7.000000 0.000000 -16.000000
v -7.000000 0.000000 -19.000000
v -7.000000 44.000000 -19.000000
v -7.000000 44.000000 -16.000000
v -25.000000 44.000000 -19.000000
v -25.000000 44.000000 -16.000000
v -7.000000 44.000000 -19.000000
v -7.000000 44.000000 -16.000000
v -7.000000 0.000000 -19.000000
v -7.000000 0.000000 -16.000000
v -25.000000 44.000000 -16.000000
v -25.000000 44.000000 -19.000000
v -25.000000 0.000000 -16.000000
v -25.000000 0.000000 -19.000000
v -31.000000 44.000000 -19.000000
v -31.000000 44.000000 -16.000000
v -49.000000 44.000000 -19.000000
v -49.000000 44.000000 -16.000000
v -7.000000 4.000000 -16.000000
v -7.000000 4.000000 -19.000000
v -25.000000 4.000000 -16.000000
v -25.000000 4.000000 -19.000000
v -31.000000 4.000000 -16.000000
v -31.000000 4.000000 -19.000000
v -49.000000 4.000000 -16.000000
v -49.000000 4.000000 -19.000000
v -49.000000 44.000000 -19.000000
v -49.000000 44.000000 -16.000000
v -49.000000 0.000000 -19.000000
v -49.000000 0.000000 -16.000000
v -31.000000 44.000000 -16.000000
v -31.000000 44.000000 -19.000000
v -31.000000 0.000000 -16.000000
v -31.000000 0.000000 -19.000000
v -31.000000 44.000000 -19.000000
v -31.000000 44.000000 -16.000000
v -31.000000 0.000000 -19.000000
v -31.000000 0.000000 -16.000000
v -49.000000 44.000000 -16.000000
v -49.000000 44.000000 -19.000000
v -49.000000 0.000000 -16.000000
v -49.000000 0.000000 -19.000000
v 31.000000 44.000000 19.000000
v 49.000000 44.000000 19.000000
v 31.000000 4.000000 19.000000
v 49.000000 4.000000 19.000000
v 7.000000 44.000000 19.000000
v 25.000000 44.000000 19.000000
v 7.000000 4.000000 19.000000
v 25.000000 4.000000 19.000000
v -25.000000 44.000000 19.000000
v -7.000000 44.000000 19.000000
v -25.000000 4.000000 19.000000
v -7.000000 4.000000 19.000000
v -49.000000 44.000000 19.000000
v -31.000000 44.000000 19.000000
v -49.000000 4.000000 19.000000
v -31.000000 4.000000 19.000000
v -31.000000 44.000000 -19.000000
v -49.000000 44.000000 -19.000000
v -31.000000 4.000000 -19.000000
v -49.000000 4.000000 -19.000000
v -7.000000 44.000000 -19.000000
v -25.000000 44.000000 -19.000000
v -7.000000 4.000000 -19.000000
v -25.000000 4.000000 -19.000000
v 25.000000 44.000000 -19.000000
v 7.000000 44.000000 -19.000000
v 25.000000 4.000000 -19.000000
v 7.000000 4.000000 -19.000000
v 49.000000 44.000000 -19.000000
v 31.000000 44.000000 -19.000000
v 49.000000 4.000000 -19.000000
v 31.000000 4.000000 -19.000000
# 444 vertices

vt 0.562500 0.656250
vt 0.562500 0.484375
vt 0.781250 0.484375
vt 0.781250 0.656250
vt 1.000000 0.484375
vt 1.000000 0.656250
vt 0.812500 0.484375
vt 0.812500 0.312500
vt 0.937500 0.312500
vt 0.937500 0.484375
vt 0.562500 0.312500
vt 0.593750 0.296875
vt 0.593750 0.312500
vt 0.609375 0.296875
vt 0.609375 0.312500
vt 0.861747 0.086182
vt 0.861747 0.070463
vt 0.873372 0.070463
vt 0.873372 0.086182
vt 1.000000 0.093750
vt 1.000000 0.140625
vt 0.933263 0.140625
vt 0.933263 0.093750
vt 0.629237 0.140625
vt 0.629237 0.093750
vt 0.562500 0.140625
vt 0.562500 0.093750
vt 0.640625 0.296875
vt 0.640625 0.312500
vt 0.827148 0.484049
vt 0.827148 0.312826
vt 0.817708 0.312826
vt 0.817708 0.484049
vt 0.873759 0.298925
vt 0.926493 0.298925
vt 0.926493 0.310969
vt 0.873759 0.310969
vt 0.937500 0.328125
vt 1.000000 0.328125
vt 0.937500 0.453125
vt 0.937500 0.296875
vt 1.000000 0.296875
vt 1.000000 0.453125
# 43 texture coordinates

vn 0.000000 0.000000 -1.000000
vn 0.000000 0.000000 1.000000
vn 1.000000 0.000000 0.000000
vn -1.000000 0.000000 0.000000
vn 0.000000 0.992278 -0.124035
vn 0.124035 0.992278 0.000000
vn 0.000000 0.992278 0.124035
vn -0.124035 0.992278 0.000000
vn 0.123091 0.984732 0.123091
vn 0.242536 0.970142 0.000000
vn 0.000000 0.970142 0.242536
vn -0.061314 0.981023 0.183942
vn -0.242536 0.970142 0.000000
vn -0.123091 0.984732 0.123091
vn -0.123091 0.984732 -0.123091
vn 0.000000 0.970142 -0.242536
vn 0.061314 0.981023 -0.183942
vn 0.123091 0.984732 -0.123091
vn -0.123091 -0.984732 -0.123091
vn -0.242536 -0.970142 0.000000
vn 0.000000 -0.970142 -0.242536
vn 0.061314 -0.981023 -0.183942
vn 0.123091 -0.984732 -0.123091
vn 0.242536 -0.970142 0.000000
vn 0.123091 -0.984732 0.123091
vn 0.000000 -0.970142 0.242536
vn -0.061314 -0.981023 0.183942
vn -0.123091 -0.984732 0.123091
vn 0.000000 0.986394 0.164399
vn 0.000000 -0.986394 -0.164399
vn 0.000000 1.000000 0.000000
vn 0.000000 -1.000000 0.000000
# 32 normals

g Regroup07
usemtl rus_build_LOD_01
s 1
f 1/1/1 3/2/1 4/3/1
f 1/1/1 4/3/1 2/4/1
f 8/3/1 7/2/1 5/1/1
f 6/4/1 8/3/1 5/1/1
f 9/4/2 11/3/2 12/5/2
f 9/4/2 12/5/2 10/6/2
f 16/5/2 15/3/2 13/4/2
f 14/6/2 16/5/2 13/4/2
f 17/7/3 19/8/3 20/9/3
f 17/7/3 20/9/3 18/10/3
f 21/7/4 23/8/4 24/9/4
f 21/7/4 24/9/4 22/10/4
f 25/11/4 27/12/4 26/13/4
f 28/13/2 30/12/2 31/14/2
f 28/13/2 31/14/2 29/15/2
f 33/13/3 34/12/3 32/11/3
f 35/16/5 37/17/5 38/18/5
f 35/16/5 38/18/5 36/19/5
f 39/11/4 41/12/4 40/13/4
f 42/13/2 44/12/2 45/14/2
f 42/13/2 45/14/2 43/15/2
f 47/13/3 48/12/3 46/11/3
f 49/16/5 51/17/5 52/18/5
f 49/16/5 52/18/5 50/19/5
f 53/11/1 55/12/1 54/13/1
f 56/13/4 58/12/4 59/14/4
f 56/13/4 59/14/4 57/15/4
f 61/13/2 62/12/2 60/11/2
f 63/16/6 65/17/6 66/18/6
f 63/16/6 66/18/6 64/19/6
f 67/11/3 69/12/3 68/13/3
f 70/13/1 72/12/1 73/14/1
f 70/13/1 73/14/1 71/15/1
f 75/13/4 76/12/4 74/11/4
f 77/16/7 79/17/7 80/18/7
f 77/16/7 80/18/7 78/19/7
f 81/11/3 83/12/3 82/13/3
f 84/13/1 86/12/1 87/14/1
f 84/13/1 87/14/1 85/15/1
f 89/13/4 90/12/4 88/11/4
f 91/16/7 93/17/7 94/18/7
f 91/16/7 94/18/7 92/19/7
f 95/11/3 97/12/3 96/13/3
f 98/13/1 100/12/1 101/14/1
f 98/13/1 101/14/1 99/15/1
f 103/13/4 104/12/4 102/11/4
f 105/16/7 107/17/7 108/18/7
f 105/16/7 108/18/7 106/19/7
f 109/11/3 111/12/3 110/13/3
f 112/13/1 114/12/1 115/14/1
f 112/13/1 115/14/1 113/15/1
f 117/13/4 118/12/4 116/11/4
f 119/16/7 121/17/7 122/18/7
f 119/16/7 122/18/7 120/19/7
f 123/11/2 125/12/2 124/13/2
f 126/13/3 128/12/3 129/14/3
f 126/13/3 129/14/3 127/15/3
f 131/13/1 132/12/1 130/11/1
f 133/16/8 135/17/8 136/18/8
f 133/16/8 136/18/8 134/19/8
f 137/11/4 139/12/4 138/13/4
f 140/13/2 142/12/2 143/14/2
f 140/13/2 143/14/2 141/15/2
f 145/13/3 146/12/3 144/11/3
f 147/16/5 149/17/5 150/18/5
f 147/16/5 150/18/5 148/19/5
f 151/11/4 153/12/4 152/13/4
f 154/13/2 156/12/2 157/14/2
f 154/13/2 157/14/2 155/15/2
f 159/13/3 160/12/3 158/11/3
f 161/16/5 163/17/5 164/18/5
f 161/16/5 164/18/5 162/19/5
f 165/20/9 170/21/10 171/22/9
f 165/20/9 171/22/9 166/23/11
f 167/23/11 172/22/11 173/24/12
f 167/23/11 173/24/12 168/25/11
f 173/24/12 174/26/13 169/27/14
f 173/24/12 169/27/14 168/25/11
f 175/20/15 180/21/13 181/22/15
f 175/20/15 181/22/15 176/23/16
f 177/23/16 182/22/16 183/24/17
f 177/23/16 183/24/17 178/25/16
f 183/24/17 184/26/10 179/27/18
f 183/24/17 179/27/18 178/25/16
f 191/22/19 190/21/20 185/20/19
f 186/23/21 191/22/19 185/20/19
f 193/24/22 192/22/21 187/23/21
f 188/25/21 193/24/22 187/23/21
f 189/27/23 194/26/24 193/24/22
f 188/25/21 189/27/23 193/24/22
f 201/22/25 200/21/24 195/20/25
f 196/23/26 201/22/25 195/20/25
f 203/24/27 202/22/26 197/23/26
f 198/25/26 203/24/27 197/23/26
f 199/27/28 204/26/20 203/24/27
f 198/25/26 199/27/28 203/24/27
f 205/15/29 207/14/29 208/28/29
f 205/15/29 208/28/29 206/29/29
f 212/28/30 211/14/30 209/15/30
f 210/29/30 212/28/30 209/15/30
f 213/30/3 215/31/3 216/32/3
f 213/30/3 216/32/3 214/33/3
f 217/30/4 219/31/4 220/32/4
f 217/30/4 220/32/4 218/33/4
f 221/34/31 223/35/31 224/36/31
f 221/34/31 224/36/31 222/37/31
f 225/30/3 227/31/3 228/32/3
f 225/30/3 228/32/3 226/33/3
f 229/30/4 231/31/4 232/32/4
f 229/30/4 232/32/4 230/33/4
f 233/34/31 235/35/31 236/36/31
f 233/34/31 236/36/31 234/37/31
f 237/34/32 239/35/32 240/36/32
f 237/34/32 240/36/32 238/37/32
f 241/34/32 243/35/32 244/36/32
f 241/34/32 244/36/32 242/37/32
f 245/30/3 247/31/3 248/32/3
f 245/30/3 248/32/3 246/33/3
f 249/30/4 251/31/4 252/32/4
f 249/30/4 252/32/4 250/33/4
f 253/30/3 255/31/3 256/32/3
f 253/30/3 256/32/3 254/33/3
f 257/30/4 259/31/4 260/32/4
f 257/30/4 260/32/4 258/33/4
f 261/15/29 263/14/29 264/28/29
f 261/15/29 264/28/29 262/29/29
f 268/28/30 267/14/30 265/15/30
f 266/29/30 268/28/30 265/15/30
f 269/30/3 271/31/3 272/32/3
f 269/30/3 272/32/3 270/33/3
f 273/30/4 275/31/4 276/32/4
f 273/30/4 276/32/4 274/33/4
f 277/34/31 279/35/31 280/36/31
f 277/34/31 280/36/31 278/37/31
f 281/30/3 283/31/3 284/32/3
f 281/30/3 284/32/3 282/33/3
f 285/30/4 287/31/4 288/32/4
f 285/30/4 288/32/4 286/33/4
f 289/34/31 291/35/31 292/36/31
f 289/34/31 292/36/31 290/37/31
f 293/34/32 295/35/32 296/36/32
f 293/34/32 296/36/32 294/37/32
f 297/34/32 299/35/32 300/36/32
f 297/34/32 300/36/32 298/37/32
f 301/30/3 303/31/3 304/32/3
f 301/30/3 304/32/3 302/33/3
f 305/30/4 307/31/4 308/32/4
f 305/30/4 308/32/4 306/33/4
f 309/30/3 311/31/3 312/32/3
f 309/30/3 312/32/3 310/33/3
f 313/30/4 315/31/4 316/32/4
f 313/30/4 316/32/4 314/33/4
f 317/30/4 319/31/4 320/32/4
f 317/30/4 320/32/4 318/33/4
f 321/30/3 323/31/3 324/32/3
f 321/30/3 324/32/3 322/33/3
f 325/34/31 327/35/31 328/36/31
f 325/34/31 328/36/31 326/37/31
f 329/30/4 331/31/4 332/32/4
f 329/30/4 332/32/4 330/33/4
f 333/30/3 335/31/3 336/32/3
f 333/30/3 336/32/3 334/33/3
f 337/34/31 339/35/31 340/36/31
f 337/34/31 340/36/31 338/37/31
f 341/34/32 343/35/32 344/36/32
f 341/34/32 344/36/32 342/37/32
f 345/34/32 347/35/32 348/36/32
f 345/34/32 348/36/32 346/37/32
f 349/30/4 351/31/4 352/32/4
f 349/30/4 352/32/4 350/33/4
f 353/30/3 355/31/3 356/32/3
f 353/30/3 356/32/3 354/33/3
f 357/30/4 359/31/4 360/32/4
f 357/30/4 360/32/4 358/33/4
f 361/30/3 363/31/3 364/32/3
f 361/30/3 364/32/3 362/33/3
f 365/30/4 367/31/4 368/32/4
f 365/30/4 368/32/4 366/33/4
f 369/30/3 371/31/3 372/32/3
f 369/30/3 372/32/3 370/33/3
f 373/34/31 375/35/31 376/36/31
f 373/34/31 376/36/31 374/37/31
f 377/30/4 379/31/4 380/32/4
f 377/30/4 380/32/4 378/33/4
f 381/30/3 383/31/3 384/32/3
f 381/30/3 384/32/3 382/33/3
f 385/34/31 387/35/31 388/36/31
f 385/34/31 388/36/31 386/37/31
f 389/34/32 391/35/32 392/36/32
f 389/34/32 392/36/32 390/37/32
f 393/34/32 395/35/32 396/36/32
f 393/34/32 396/36/32 394/37/32
f 397/30/4 399/31/4 400/32/4
f 397/30/4 400/32/4 398/33/4
f 401/30/3 403/31/3 404/32/3
f 401/30/3 404/32/3 402/33/3
f 405/30/4 407/31/4 408/32/4
f 405/30/4 408/32/4 406/33/4
f 409/30/3 411/31/3 412/32/3
f 409/30/3 412/32/3 410/33/3
f 413/10/2 415/38/2 416/39/2
f 413/10/2 416/39/2 414/5/2
f 417/40/2 419/41/2 420/42/2
f 417/40/2 420/42/2 418/43/2
f 421/10/2 423/38/2 424/39/2
f 421/10/2 424/39/2 422/5/2
f 425/40/2 427/41/2 428/42/2
f 425/40/2 428/42/2 426/43/2
f 429/10/1 431/38/1 432/39/1
f 429/10/1 432/39/1 430/5/1
f 433/40/1 435/41/1 436/42/1
f 433/40/1 436/42/1 434/43/1
f 437/10/1 439/38/1 440/39/1
f 437/10/1 440/39/1 438/5/1
f 441/40/1 443/41/1 444/42/1
f 441/40/1 444/42/1 442/43/1
# 216 triangles in group

# 216 triangles total

