# Wavefront OBJ exported by MilkShape 3D

mtllib rus_build_9et_03b_LOD1.mtl

v 15.000000 84.000000 -16.000000
v -15.000000 84.000000 -16.000000
v 15.000000 0.000000 -16.000000
v -15.000000 0.000000 -16.000000
v -24.000000 84.000000 16.000000
v -24.000000 84.000000 -16.000000
v -65.000000 84.000000 -16.000000
v -65.000000 84.000000 16.000000
v -57.000000 87.000000 12.000000
v -57.000000 83.000000 12.000000
v -53.000000 83.000000 12.000000
v -53.000000 87.000000 12.000000
v -53.000000 83.000000 8.000000
v -53.000000 87.000000 8.000000
v -57.000000 87.000000 12.000000
v -53.000000 87.000000 12.000000
v -53.000000 87.000000 8.000000
v -57.000000 87.000000 8.000000
v -53.000000 87.000000 8.000000
v -53.000000 83.000000 8.000000
v -57.000000 83.000000 8.000000
v -57.000000 87.000000 8.000000
v -57.000000 83.000000 12.000000
v -57.000000 87.000000 -8.000000
v -57.000000 83.000000 -8.000000
v -53.000000 83.000000 -8.000000
v -53.000000 87.000000 -8.000000
v -53.000000 83.000000 -12.000000
v -53.000000 87.000000 -12.000000
v -57.000000 87.000000 -8.000000
v -53.000000 87.000000 -8.000000
v -53.000000 87.000000 -12.000000
v -57.000000 87.000000 -12.000000
v -53.000000 87.000000 -12.000000
v -53.000000 83.000000 -12.000000
v -57.000000 83.000000 -12.000000
v -57.000000 87.000000 -12.000000
v -57.000000 83.000000 -8.000000
v -25.000000 8.000000 18.000000
v -25.000000 8.000000 16.000000
v -39.000000 8.000000 16.000000
v -39.000000 8.000000 18.000000
v -39.000000 8.000000 18.000000
v -39.000000 8.000000 16.000000
v -25.000000 8.000000 16.000000
v -25.000000 8.000000 18.000000
v 39.000000 8.000000 18.000000
v 39.000000 8.000000 16.000000
v 25.000000 8.000000 16.000000
v 25.000000 8.000000 18.000000
v 25.000000 8.000000 18.000000
v 25.000000 8.000000 16.000000
v 39.000000 8.000000 16.000000
v 39.000000 8.000000 18.000000
v 24.000000 84.000000 -16.000000
v 24.000000 84.000000 16.000000
v 65.000000 84.000000 16.000000
v 65.000000 84.000000 -16.000000
v 57.000000 87.000000 -12.000000
v 57.000000 83.000000 -12.000000
v 53.000000 83.000000 -12.000000
v 53.000000 87.000000 -12.000000
v 53.000000 83.000000 -8.000000
v 53.000000 87.000000 -8.000000
v 57.000000 87.000000 -12.000000
v 53.000000 87.000000 -12.000000
v 53.000000 87.000000 -8.000000
v 57.000000 87.000000 -8.000000
v 53.000000 87.000000 -8.000000
v 53.000000 83.000000 -8.000000
v 57.000000 83.000000 -8.000000
v 57.000000 87.000000 -8.000000
v 57.000000 83.000000 -12.000000
v 57.000000 87.000000 8.000000
v 57.000000 83.000000 8.000000
v 53.000000 83.000000 8.000000
v 53.000000 87.000000 8.000000
v 53.000000 83.000000 12.000000
v 53.000000 87.000000 12.000000
v 57.000000 87.000000 8.000000
v 53.000000 87.000000 8.000000
v 53.000000 87.000000 12.000000
v 57.000000 87.000000 12.000000
v 53.000000 87.000000 12.000000
v 53.000000 83.000000 12.000000
v 57.000000 83.000000 12.000000
v 57.000000 87.000000 12.000000
v 57.000000 83.000000 8.000000
v 24.000000 84.000000 16.000000
v -24.000000 84.000000 16.000000
v 24.000000 84.000000 -16.000000
v -24.000000 84.000000 -16.000000
v -20.000000 87.000000 12.000000
v -20.000000 83.000000 12.000000
v -16.000000 83.000000 12.000000
v -16.000000 87.000000 12.000000
v -16.000000 83.000000 8.000000
v -16.000000 87.000000 8.000000
v -20.000000 87.000000 12.000000
v -16.000000 87.000000 12.000000
v -16.000000 87.000000 8.000000
v -20.000000 87.000000 8.000000
v -16.000000 87.000000 8.000000
v -16.000000 83.000000 8.000000
v -20.000000 83.000000 8.000000
v -20.000000 87.000000 8.000000
v -20.000000 83.000000 12.000000
v -20.000000 87.000000 -8.000000
v -20.000000 83.000000 -8.000000
v -16.000000 83.000000 -8.000000
v -16.000000 87.000000 -8.000000
v -16.000000 83.000000 -12.000000
v -16.000000 87.000000 -12.000000
v -20.000000 87.000000 -8.000000
v -16.000000 87.000000 -8.000000
v -16.000000 87.000000 -12.000000
v -20.000000 87.000000 -12.000000
v -16.000000 87.000000 -12.000000
v -16.000000 83.000000 -12.000000
v -20.000000 83.000000 -12.000000
v -20.000000 87.000000 -12.000000
v -20.000000 83.000000 -8.000000
v 16.000000 87.000000 12.000000
v 16.000000 83.000000 12.000000
v 20.000000 83.000000 12.000000
v 20.000000 87.000000 12.000000
v 20.000000 83.000000 8.000000
v 20.000000 87.000000 8.000000
v 16.000000 87.000000 12.000000
v 20.000000 87.000000 12.000000
v 20.000000 87.000000 8.000000
v 16.000000 87.000000 8.000000
v 20.000000 87.000000 8.000000
v 20.000000 83.000000 8.000000
v 16.000000 83.000000 8.000000
v 16.000000 87.000000 8.000000
v 16.000000 83.000000 12.000000
v 16.000000 87.000000 -8.000000
v 16.000000 83.000000 -8.000000
v 20.000000 83.000000 -8.000000
v 20.000000 87.000000 -8.000000
v 20.000000 83.000000 -12.000000
v 20.000000 87.000000 -12.000000
v 16.000000 87.000000 -8.000000
v 20.000000 87.000000 -8.000000
v 20.000000 87.000000 -12.000000
v 16.000000 87.000000 -12.000000
v 20.000000 87.000000 -12.000000
v 20.000000 83.000000 -12.000000
v 16.000000 83.000000 -12.000000
v 16.000000 87.000000 -12.000000
v 16.000000 83.000000 -8.000000
v -65.000000 84.000000 16.000000
v -15.000000 84.000000 16.000000
v -65.000000 44.000000 16.000000
v -15.000000 44.000000 16.000000
v -65.000000 44.000000 16.000000
v -15.000000 44.000000 16.000000
v -65.000000 0.000000 16.000000
v -15.000000 0.000000 16.000000
v 65.000000 84.000000 16.000000
v 15.000000 84.000000 16.000000
v 65.000000 44.000000 16.000000
v 15.000000 44.000000 16.000000
v 65.000000 44.000000 16.000000
v 15.000000 44.000000 16.000000
v 65.000000 0.000000 16.000000
v 15.000000 0.000000 16.000000
v 65.000000 84.000000 -16.000000
v 15.000000 84.000000 -16.000000
v 65.000000 44.000000 -16.000000
v 15.000000 44.000000 -16.000000
v 65.000000 44.000000 -16.000000
v 15.000000 44.000000 -16.000000
v 65.000000 0.000000 -16.000000
v 15.000000 0.000000 -16.000000
v -65.000000 84.000000 -16.000000
v -15.000000 84.000000 -16.000000
v -65.000000 44.000000 -16.000000
v -15.000000 44.000000 -16.000000
v -65.000000 44.000000 -16.000000
v -15.000000 44.000000 -16.000000
v -65.000000 0.000000 -16.000000
v -15.000000 0.000000 -16.000000
v 65.000000 84.000000 16.000000
v 65.000000 84.000000 -16.000000
v 65.000000 0.000000 16.000000
v 65.000000 0.000000 -16.000000
v -65.000000 84.000000 -16.000000
v -65.000000 84.000000 16.000000
v -65.000000 0.000000 -16.000000
v -65.000000 0.000000 16.000000
v -15.000000 84.000000 16.000000
v 15.000000 84.000000 16.000000
v -15.000000 0.000000 16.000000
v 15.000000 0.000000 16.000000
v 16.000000 76.000000 19.000000
v 16.000000 76.000000 16.000000
v -16.000000 76.000000 16.000000
v -16.000000 76.000000 19.000000
v -16.000000 4.000000 19.000000
v -16.000000 4.000000 16.000000
v 16.000000 4.000000 16.000000
v 16.000000 4.000000 19.000000
v -16.000000 84.000000 16.000000
v -16.000000 84.000000 19.000000
v -16.000000 0.000000 19.000000
v -16.000000 0.000000 16.000000
v -16.000000 0.000000 16.000000
v -16.000000 0.000000 19.000000
v -16.000000 84.000000 19.000000
v -16.000000 84.000000 16.000000
v 0.000000 84.000000 16.000000
v 0.000000 84.000000 19.000000
v 0.000000 0.000000 19.000000
v 0.000000 0.000000 16.000000
v 0.000000 0.000000 16.000000
v 0.000000 0.000000 19.000000
v 0.000000 84.000000 19.000000
v 0.000000 84.000000 16.000000
v 16.000000 84.000000 19.000000
v 16.000000 84.000000 16.000000
v 16.000000 0.000000 16.000000
v 16.000000 0.000000 19.000000
v 16.000000 0.000000 19.000000
v 16.000000 0.000000 16.000000
v 16.000000 84.000000 16.000000
v 16.000000 84.000000 19.000000
v -16.000000 76.000000 19.000000
v 16.000000 76.000000 19.000000
v -16.000000 4.000000 19.000000
v 16.000000 4.000000 19.000000
v -68.000000 76.000000 16.000000
v -65.000000 76.000000 16.000000
v -65.000000 76.000000 -16.000000
v -68.000000 76.000000 -16.000000
v -68.000000 4.000000 -16.000000
v -65.000000 4.000000 -16.000000
v -65.000000 4.000000 16.000000
v -68.000000 4.000000 16.000000
v -65.000000 84.000000 -16.000000
v -68.000000 84.000000 -16.000000
v -68.000000 0.000000 -16.000000
v -65.000000 0.000000 -16.000000
v -65.000000 0.000000 -16.000000
v -68.000000 0.000000 -16.000000
v -68.000000 84.000000 -16.000000
v -65.000000 84.000000 -16.000000
v -65.000000 84.000000 0.000000
v -68.000000 84.000000 0.000000
v -68.000000 0.000000 0.000000
v -65.000000 0.000000 0.000000
v -65.000000 0.000000 0.000000
v -68.000000 0.000000 0.000000
v -68.000000 84.000000 0.000000
v -65.000000 84.000000 0.000000
v -68.000000 84.000000 16.000000
v -65.000000 84.000000 16.000000
v -65.000000 0.000000 16.000000
v -68.000000 0.000000 16.000000
v -68.000000 0.000000 16.000000
v -65.000000 0.000000 16.000000
v -65.000000 84.000000 16.000000
v -68.000000 84.000000 16.000000
v -68.000000 76.000000 -16.000000
v -68.000000 76.000000 16.000000
v -68.000000 4.000000 -16.000000
v -68.000000 4.000000 16.000000
v 68.000000 76.000000 -16.000000
v 65.000000 76.000000 -16.000000
v 65.000000 76.000000 16.000000
v 68.000000 76.000000 16.000000
v 68.000000 4.000000 16.000000
v 65.000000 4.000000 16.000000
v 65.000000 4.000000 -16.000000
v 68.000000 4.000000 -16.000000
v 65.000000 84.000000 16.000000
v 68.000000 84.000000 16.000000
v 68.000000 0.000000 16.000000
v 65.000000 0.000000 16.000000
v 65.000000 0.000000 16.000000
v 68.000000 0.000000 16.000000
v 68.000000 84.000000 16.000000
v 65.000000 84.000000 16.000000
v 65.000000 84.000000 0.000000
v 68.000000 84.000000 0.000000
v 68.000000 0.000000 0.000000
v 65.000000 0.000000 0.000000
v 65.000000 0.000000 0.000000
v 68.000000 0.000000 0.000000
v 68.000000 84.000000 0.000000
v 65.000000 84.000000 0.000000
v 68.000000 84.000000 -16.000000
v 65.000000 84.000000 -16.000000
v 65.000000 0.000000 -16.000000
v 68.000000 0.000000 -16.000000
v 68.000000 0.000000 -16.000000
v 65.000000 0.000000 -16.000000
v 65.000000 84.000000 -16.000000
v 68.000000 84.000000 -16.000000
v 68.000000 76.000000 16.000000
v 68.000000 76.000000 -16.000000
v 68.000000 4.000000 16.000000
v 68.000000 4.000000 -16.000000
v -16.000000 76.000000 -19.000000
v -16.000000 76.000000 -16.000000
v 16.000000 76.000000 -16.000000
v 16.000000 76.000000 -19.000000
v 16.000000 4.000000 -19.000000
v 16.000000 4.000000 -16.000000
v -16.000000 4.000000 -16.000000
v -16.000000 4.000000 -19.000000
v 16.000000 84.000000 -16.000000
v 16.000000 84.000000 -19.000000
v 16.000000 0.000000 -19.000000
v 16.000000 0.000000 -16.000000
v 16.000000 0.000000 -16.000000
v 16.000000 0.000000 -19.000000
v 16.000000 84.000000 -19.000000
v 16.000000 84.000000 -16.000000
v 0.000000 84.000000 -16.000000
v 0.000000 84.000000 -19.000000
v 0.000000 0.000000 -19.000000
v 0.000000 0.000000 -16.000000
v 0.000000 0.000000 -16.000000
v 0.000000 0.000000 -19.000000
v 0.000000 84.000000 -19.000000
v 0.000000 84.000000 -16.000000
v -16.000000 84.000000 -19.000000
v -16.000000 84.000000 -16.000000
v -16.000000 0.000000 -16.000000
v -16.000000 0.000000 -19.000000
v -16.000000 0.000000 -19.000000
v -16.000000 0.000000 -16.000000
v -16.000000 84.000000 -16.000000
v -16.000000 84.000000 -19.000000
v 16.000000 76.000000 -19.000000
v -16.000000 76.000000 -19.000000
v 16.000000 4.000000 -19.000000
v -16.000000 4.000000 -19.000000
# 340 vertices

vt 0.251871 0.390602
vt 0.251871 0.062477
vt 0.373158 0.062477
vt 0.373158 0.390602
vt 0.843750 0.125000
vt 0.843750 0.000000
vt 1.000000 0.000000
vt 1.000000 0.125000
vt 0.859375 0.187500
vt 0.859375 0.171875
vt 0.875000 0.171875
vt 0.875000 0.187500
vt 0.890625 0.171875
vt 0.890625 0.187500
vt 0.906250 0.171875
vt 0.906250 0.187500
vt 0.781317 0.143087
vt 0.781317 0.154661
vt 0.722712 0.154661
vt 0.722712 0.143087
vt 0.796875 0.125000
vt 0.796875 0.000000
vt 0.984375 0.000000
vt 0.984375 0.125000
vt 0.812517 0.390602
vt 0.812517 0.234352
vt 1.000017 0.234352
vt 1.000017 0.390602
vt 0.812517 0.359349
vt 0.812517 0.187474
vt 1.000017 0.187474
vt 1.000017 0.359349
vt 0.812517 0.593727
vt 0.812517 0.437477
vt 1.000017 0.437477
vt 1.000017 0.593727
vt 0.812517 0.562474
vt 1.000017 0.562474
vt 0.250000 0.390602
vt 0.250000 0.062477
vt 0.375000 0.062477
vt 0.375000 0.390602
vt 0.840571 0.143087
vt 0.840571 0.154661
vt 0.998698 0.144531
vt 0.998698 0.154622
vt 0.688802 0.154622
vt 0.688802 0.144531
vt 0.250000 0.359375
vt 0.250000 0.078125
vt 0.375000 0.078125
vt 0.375000 0.359375
# 52 texture coordinates

vn 0.000000 0.000000 -1.000000
vn 0.000000 1.000000 0.000000
vn 0.000000 0.000000 1.000000
vn 0.447214 0.000000 0.894427
vn 0.894427 0.000000 0.447214
vn 1.000000 0.000000 0.000000
vn -0.447214 0.894427 0.000000
vn -0.447214 0.000000 -0.894427
vn -0.894427 0.000000 -0.447214
vn -1.000000 0.000000 0.000000
vn 0.000000 -1.000000 0.000000
vn 0.447214 0.894427 0.000000
# 12 normals

g Regroup45
usemtl rus_build_LOD_02
s 1
f 1/1/1 3/2/1 4/3/1
f 1/1/1 4/3/1 2/4/1
f 5/5/2 6/6/2 7/7/2
f 5/5/2 7/7/2 8/8/2
f 9/9/3 10/10/3 11/11/4
f 9/9/3 11/11/4 12/12/5
f 12/12/5 11/11/4 13/13/6
f 12/12/5 13/13/6 14/14/6
f 15/14/7 16/13/2 17/15/2
f 15/14/7 17/15/2 18/16/2
f 19/9/1 20/10/1 21/11/8
f 19/9/1 21/11/8 22/12/9
f 22/12/9 21/11/8 23/13/10
f 22/12/9 23/13/10 15/14/7
f 24/9/3 25/10/3 26/11/4
f 24/9/3 26/11/4 27/12/5
f 27/12/5 26/11/4 28/13/6
f 27/12/5 28/13/6 29/14/6
f 30/14/7 31/13/2 32/15/2
f 30/14/7 32/15/2 33/16/2
f 34/9/1 35/10/1 36/11/8
f 34/9/1 36/11/8 37/12/9
f 37/12/9 36/11/8 38/13/10
f 37/12/9 38/13/10 30/14/7
f 39/17/2 40/18/2 41/19/2
f 39/17/2 41/19/2 42/20/2
f 43/17/11 44/18/11 45/19/11
f 43/17/11 45/19/11 46/20/11
f 47/17/2 48/18/2 49/19/2
f 47/17/2 49/19/2 50/20/2
f 51/17/11 52/18/11 53/19/11
f 51/17/11 53/19/11 54/20/11
f 55/5/2 56/6/2 57/7/2
f 55/5/2 57/7/2 58/8/2
f 59/9/1 60/10/1 61/11/8
f 59/9/1 61/11/8 62/12/9
f 62/12/9 61/11/8 63/13/10
f 62/12/9 63/13/10 64/14/10
f 65/14/12 66/13/2 67/15/2
f 65/14/12 67/15/2 68/16/2
f 69/9/3 70/10/3 71/11/4
f 69/9/3 71/11/4 72/12/5
f 72/12/5 71/11/4 73/13/6
f 72/12/5 73/13/6 65/14/12
f 74/9/1 75/10/1 76/11/8
f 74/9/1 76/11/8 77/12/9
f 77/12/9 76/11/8 78/13/10
f 77/12/9 78/13/10 79/14/10
f 80/14/12 81/13/2 82/15/2
f 80/14/12 82/15/2 83/16/2
f 84/9/3 85/10/3 86/11/4
f 84/9/3 86/11/4 87/12/5
f 87/12/5 86/11/4 88/13/6
f 87/12/5 88/13/6 80/14/12
f 89/21/2 91/22/2 92/23/2
f 89/21/2 92/23/2 90/24/2
f 93/9/3 94/10/3 95/11/4
f 93/9/3 95/11/4 96/12/5
f 96/12/5 95/11/4 97/13/6
f 96/12/5 97/13/6 98/14/6
f 99/14/7 100/13/2 101/15/2
f 99/14/7 101/15/2 102/16/2
f 103/9/1 104/10/1 105/11/8
f 103/9/1 105/11/8 106/12/9
f 106/12/9 105/11/8 107/13/10
f 106/12/9 107/13/10 99/14/7
f 108/9/3 109/10/3 110/11/4
f 108/9/3 110/11/4 111/12/5
f 111/12/5 110/11/4 112/13/6
f 111/12/5 112/13/6 113/14/6
f 114/14/7 115/13/2 116/15/2
f 114/14/7 116/15/2 117/16/2
f 118/9/1 119/10/1 120/11/8
f 118/9/1 120/11/8 121/12/9
f 121/12/9 120/11/8 122/13/10
f 121/12/9 122/13/10 114/14/7
f 123/9/3 124/10/3 125/11/4
f 123/9/3 125/11/4 126/12/5
f 126/12/5 125/11/4 127/13/6
f 126/12/5 127/13/6 128/14/6
f 129/14/7 130/13/2 131/15/2
f 129/14/7 131/15/2 132/16/2
f 133/9/1 134/10/1 135/11/8
f 133/9/1 135/11/8 136/12/9
f 136/12/9 135/11/8 137/13/10
f 136/12/9 137/13/10 129/14/7
f 138/9/3 139/10/3 140/11/4
f 138/9/3 140/11/4 141/12/5
f 141/12/5 140/11/4 142/13/6
f 141/12/5 142/13/6 143/14/6
f 144/14/7 145/13/2 146/15/2
f 144/14/7 146/15/2 147/16/2
f 148/9/1 149/10/1 150/11/8
f 148/9/1 150/11/8 151/12/9
f 151/12/9 150/11/8 152/13/10
f 151/12/9 152/13/10 144/14/7
f 153/25/3 155/26/3 156/27/3
f 153/25/3 156/27/3 154/28/3
f 157/29/3 159/30/3 160/31/3
f 157/29/3 160/31/3 158/32/3
f 164/27/3 163/26/3 161/25/3
f 162/28/3 164/27/3 161/25/3
f 168/31/3 167/30/3 165/29/3
f 166/32/3 168/31/3 165/29/3
f 169/33/1 171/34/1 172/35/1
f 169/33/1 172/35/1 170/36/1
f 173/37/1 175/25/1 176/28/1
f 173/37/1 176/28/1 174/38/1
f 180/35/1 179/34/1 177/33/1
f 178/36/1 180/35/1 177/33/1
f 184/28/1 183/25/1 181/37/1
f 182/38/1 184/28/1 181/37/1
f 185/39/6 187/40/6 188/41/6
f 185/39/6 188/41/6 186/42/6
f 189/39/10 191/40/10 192/41/10
f 189/39/10 192/41/10 190/42/10
f 193/1/3 195/2/3 196/3/3
f 193/1/3 196/3/3 194/4/3
f 197/43/2 198/44/2 199/19/2
f 197/43/2 199/19/2 200/20/2
f 201/43/11 202/44/11 203/19/11
f 201/43/11 203/19/11 204/20/11
f 205/45/6 206/46/6 207/47/6
f 205/45/6 207/47/6 208/48/6
f 209/45/10 210/46/10 211/47/10
f 209/45/10 211/47/10 212/48/10
f 213/45/6 214/46/6 215/47/6
f 213/45/6 215/47/6 216/48/6
f 217/45/10 218/46/10 219/47/10
f 217/45/10 219/47/10 220/48/10
f 221/45/10 222/46/10 223/47/10
f 221/45/10 223/47/10 224/48/10
f 225/45/6 226/46/6 227/47/6
f 225/45/6 227/47/6 228/48/6
f 229/49/3 231/50/3 232/51/3
f 229/49/3 232/51/3 230/52/3
f 233/43/2 234/44/2 235/19/2
f 233/43/2 235/19/2 236/20/2
f 237/43/11 238/44/11 239/19/11
f 237/43/11 239/19/11 240/20/11
f 241/45/3 242/46/3 243/47/3
f 241/45/3 243/47/3 244/48/3
f 245/45/1 246/46/1 247/47/1
f 245/45/1 247/47/1 248/48/1
f 249/45/3 250/46/3 251/47/3
f 249/45/3 251/47/3 252/48/3
f 253/45/1 254/46/1 255/47/1
f 253/45/1 255/47/1 256/48/1
f 257/45/1 258/46/1 259/47/1
f 257/45/1 259/47/1 260/48/1
f 261/45/3 262/46/3 263/47/3
f 261/45/3 263/47/3 264/48/3
f 265/49/10 267/50/10 268/51/10
f 265/49/10 268/51/10 266/52/10
f 269/43/2 270/44/2 271/19/2
f 269/43/2 271/19/2 272/20/2
f 273/43/11 274/44/11 275/19/11
f 273/43/11 275/19/11 276/20/11
f 277/45/1 278/46/1 279/47/1
f 277/45/1 279/47/1 280/48/1
f 281/45/3 282/46/3 283/47/3
f 281/45/3 283/47/3 284/48/3
f 285/45/1 286/46/1 287/47/1
f 285/45/1 287/47/1 288/48/1
f 289/45/3 290/46/3 291/47/3
f 289/45/3 291/47/3 292/48/3
f 293/45/3 294/46/3 295/47/3
f 293/45/3 295/47/3 296/48/3
f 297/45/1 298/46/1 299/47/1
f 297/45/1 299/47/1 300/48/1
f 301/49/6 303/50/6 304/51/6
f 301/49/6 304/51/6 302/52/6
f 305/43/2 306/44/2 307/19/2
f 305/43/2 307/19/2 308/20/2
f 309/43/11 310/44/11 311/19/11
f 309/43/11 311/19/11 312/20/11
f 313/45/10 314/46/10 315/47/10
f 313/45/10 315/47/10 316/48/10
f 317/45/6 318/46/6 319/47/6
f 317/45/6 319/47/6 320/48/6
f 321/45/10 322/46/10 323/47/10
f 321/45/10 323/47/10 324/48/10
f 325/45/6 326/46/6 327/47/6
f 325/45/6 327/47/6 328/48/6
f 329/45/6 330/46/6 331/47/6
f 329/45/6 331/47/6 332/48/6
f 333/45/10 334/46/10 335/47/10
f 333/45/10 335/47/10 336/48/10
f 337/49/1 339/50/1 340/51/1
f 337/49/1 340/51/1 338/52/1
# 190 triangles in group

# 190 triangles total

