# Wavefront OBJ exported by MilkShape 3D

mtllib rus_build_5et_03_LOD1.mtl

v -41.000000 49.000000 0.000000
v -59.000000 44.500000 0.000000
v -59.000000 44.500000 -18.000000
v -41.000000 49.000000 0.000000
v -59.000000 44.500000 0.000000
v -59.000000 44.500000 18.000000
v 41.000000 49.000000 0.000000
v 59.000000 44.500000 0.000000
v 59.000000 44.500000 18.000000
v 41.000000 49.000000 0.000000
v 59.000000 44.500000 0.000000
v 59.000000 44.500000 -18.000000
v -43.000000 48.000000 4.000000
v -43.000000 49.000000 12.000000
v -43.000000 45.000000 12.000000
v -43.000000 49.000000 12.000000
v -39.000000 49.000000 12.000000
v -43.000000 45.000000 12.000000
v -39.000000 45.000000 12.000000
v -39.000000 48.000000 4.000000
v -39.000000 49.000000 12.000000
v -39.000000 45.000000 12.000000
v -39.000000 49.000000 12.000000
v -43.000000 49.000000 12.000000
v -39.000000 48.000000 4.000000
v -43.000000 48.000000 4.000000
v -18.000000 48.000000 4.000000
v -18.000000 49.000000 12.000000
v -18.000000 45.000000 12.000000
v -18.000000 49.000000 12.000000
v -14.000000 49.000000 12.000000
v -18.000000 45.000000 12.000000
v -14.000000 45.000000 12.000000
v -14.000000 48.000000 4.000000
v -14.000000 49.000000 12.000000
v -14.000000 45.000000 12.000000
v -14.000000 49.000000 12.000000
v -18.000000 49.000000 12.000000
v -14.000000 48.000000 4.000000
v -18.000000 48.000000 4.000000
v 14.000000 48.000000 4.000000
v 14.000000 49.000000 12.000000
v 14.000000 45.000000 12.000000
v 14.000000 49.000000 12.000000
v 18.000000 49.000000 12.000000
v 14.000000 45.000000 12.000000
v 18.000000 45.000000 12.000000
v 18.000000 48.000000 4.000000
v 18.000000 49.000000 12.000000
v 18.000000 45.000000 12.000000
v 18.000000 49.000000 12.000000
v 14.000000 49.000000 12.000000
v 18.000000 48.000000 4.000000
v 14.000000 48.000000 4.000000
v 39.000000 48.000000 4.000000
v 39.000000 49.000000 12.000000
v 39.000000 45.000000 12.000000
v 39.000000 49.000000 12.000000
v 43.000000 49.000000 12.000000
v 39.000000 45.000000 12.000000
v 43.000000 45.000000 12.000000
v 43.000000 48.000000 4.000000
v 43.000000 49.000000 12.000000
v 43.000000 45.000000 12.000000
v 43.000000 49.000000 12.000000
v 39.000000 49.000000 12.000000
v 43.000000 48.000000 4.000000
v 39.000000 48.000000 4.000000
v 43.000000 48.000000 -4.000000
v 43.000000 49.000000 -12.000000
v 43.000000 45.000000 -12.000000
v 43.000000 49.000000 -12.000000
v 39.000000 49.000000 -12.000000
v 43.000000 45.000000 -12.000000
v 39.000000 45.000000 -12.000000
v 39.000000 48.000000 -4.000000
v 39.000000 49.000000 -12.000000
v 39.000000 45.000000 -12.000000
v 39.000000 49.000000 -12.000000
v 43.000000 49.000000 -12.000000
v 39.000000 48.000000 -4.000000
v 43.000000 48.000000 -4.000000
v 18.000000 48.000000 -4.000000
v 18.000000 49.000000 -12.000000
v 18.000000 45.000000 -12.000000
v 18.000000 49.000000 -12.000000
v 14.000000 49.000000 -12.000000
v 18.000000 45.000000 -12.000000
v 14.000000 45.000000 -12.000000
v 14.000000 48.000000 -4.000000
v 14.000000 49.000000 -12.000000
v 14.000000 45.000000 -12.000000
v 14.000000 49.000000 -12.000000
v 18.000000 49.000000 -12.000000
v 14.000000 48.000000 -4.000000
v 18.000000 48.000000 -4.000000
v -14.000000 48.000000 -4.000000
v -14.000000 49.000000 -12.000000
v -14.000000 45.000000 -12.000000
v -14.000000 49.000000 -12.000000
v -18.000000 49.000000 -12.000000
v -14.000000 45.000000 -12.000000
v -18.000000 45.000000 -12.000000
v -18.000000 48.000000 -4.000000
v -18.000000 49.000000 -12.000000
v -18.000000 45.000000 -12.000000
v -18.000000 49.000000 -12.000000
v -14.000000 49.000000 -12.000000
v -18.000000 48.000000 -4.000000
v -14.000000 48.000000 -4.000000
v -39.000000 48.000000 -4.000000
v -39.000000 49.000000 -12.000000
v -39.000000 45.000000 -12.000000
v -39.000000 49.000000 -12.000000
v -43.000000 49.000000 -12.000000
v -39.000000 45.000000 -12.000000
v -43.000000 45.000000 -12.000000
v -43.000000 48.000000 -4.000000
v -43.000000 49.000000 -12.000000
v -43.000000 45.000000 -12.000000
v -43.000000 49.000000 -12.000000
v -39.000000 49.000000 -12.000000
v -43.000000 48.000000 -4.000000
v -39.000000 48.000000 -4.000000
v -45.000000 48.000000 -2.000000
v -53.000000 49.000000 -2.000000
v -53.000000 45.000000 -2.000000
v -53.000000 49.000000 -2.000000
v -53.000000 49.000000 2.000000
v -53.000000 45.000000 -2.000000
v -53.000000 45.000000 2.000000
v -45.000000 48.000000 2.000000
v -53.000000 49.000000 2.000000
v -53.000000 45.000000 2.000000
v -53.000000 49.000000 2.000000
v -53.000000 49.000000 -2.000000
v -45.000000 48.000000 2.000000
v -45.000000 48.000000 -2.000000
v 45.000000 48.000000 2.000000
v 53.000000 49.000000 2.000000
v 53.000000 45.000000 2.000000
v 53.000000 49.000000 2.000000
v 53.000000 49.000000 -2.000000
v 53.000000 45.000000 2.000000
v 53.000000 45.000000 -2.000000
v 45.000000 48.000000 -2.000000
v 53.000000 49.000000 -2.000000
v 53.000000 45.000000 -2.000000
v 53.000000 49.000000 -2.000000
v 53.000000 49.000000 2.000000
v 45.000000 48.000000 -2.000000
v 45.000000 48.000000 2.000000
v 59.000000 44.500000 18.000000
v 41.000000 44.500000 18.000000
v -41.000000 44.500000 18.000000
v 41.000000 49.000000 0.000000
v -41.000000 49.000000 0.000000
v -59.000000 44.500000 18.000000
v -59.000000 44.500000 -18.000000
v -41.000000 44.500000 -18.000000
v 41.000000 44.500000 -18.000000
v -41.000000 49.000000 0.000000
v 41.000000 49.000000 0.000000
v 59.000000 44.500000 -18.000000
v -41.000000 49.000000 0.000000
v -59.000000 44.500000 0.000000
v -59.000000 44.500000 -18.000000
v -41.000000 49.000000 0.000000
v -59.000000 44.500000 0.000000
v -59.000000 44.500000 18.000000
v 41.000000 49.000000 0.000000
v 59.000000 44.500000 0.000000
v 59.000000 44.500000 18.000000
v 41.000000 49.000000 0.000000
v 59.000000 44.500000 0.000000
v 59.000000 44.500000 -18.000000
v 59.000000 44.500000 18.000000
v 41.000000 44.500000 18.000000
v -41.000000 44.500000 18.000000
v 41.000000 49.000000 0.000000
v -41.000000 49.000000 0.000000
v -59.000000 44.500000 18.000000
v -59.000000 44.500000 -18.000000
v -41.000000 44.500000 -18.000000
v 41.000000 44.500000 -18.000000
v -41.000000 49.000000 0.000000
v 41.000000 49.000000 0.000000
v 59.000000 44.500000 -18.000000
v 57.000000 45.000000 -16.000000
v 0.000000 45.000000 -16.000000
v 57.000000 0.000000 -16.000000
v 0.000000 0.000000 -16.000000
v -57.000000 45.000000 -16.000000
v 0.000000 45.000000 -16.000000
v -57.000000 0.000000 -16.000000
v 0.000000 0.000000 -16.000000
v 0.000000 45.000000 16.000000
v 57.000000 45.000000 16.000000
v 0.000000 0.000000 16.000000
v 57.000000 0.000000 16.000000
v 0.000000 45.000000 16.000000
v -57.000000 45.000000 16.000000
v 0.000000 0.000000 16.000000
v -57.000000 0.000000 16.000000
v -57.000000 45.000000 -16.000000
v -57.000000 45.000000 16.000000
v -57.000000 0.000000 -16.000000
v -57.000000 0.000000 16.000000
v 57.000000 45.000000 16.000000
v 57.000000 45.000000 -16.000000
v 57.000000 0.000000 16.000000
v 57.000000 0.000000 -16.000000
v -25.000000 7.000000 19.000000
v -31.000000 7.000000 19.000000
v -25.000000 7.500000 16.000000
v -31.000000 7.500000 16.000000
v -25.000000 7.000000 19.000000
v -31.000000 7.000000 19.000000
v -25.000000 7.500000 16.000000
v -31.000000 7.500000 16.000000
v 31.000000 7.000000 19.000000
v 25.000000 7.000000 19.000000
v 31.000000 7.500000 16.000000
v 25.000000 7.500000 16.000000
v 31.000000 7.000000 19.000000
v 25.000000 7.000000 19.000000
v 31.000000 7.500000 16.000000
v 25.000000 7.500000 16.000000
v -40.000000 44.000000 19.000000
v -48.000000 44.000000 19.000000
v -40.000000 44.000000 16.000000
v -48.000000 44.000000 16.000000
v -40.000000 12.000000 16.000000
v -48.000000 12.000000 16.000000
v -40.000000 12.000000 19.000000
v -48.000000 12.000000 19.000000
v -8.000000 44.000000 19.000000
v -16.000000 44.000000 19.000000
v -8.000000 44.000000 16.000000
v -16.000000 44.000000 16.000000
v -8.000000 12.000000 16.000000
v -16.000000 12.000000 16.000000
v -8.000000 12.000000 19.000000
v -16.000000 12.000000 19.000000
v 16.000000 44.000000 19.000000
v 8.000000 44.000000 19.000000
v 16.000000 44.000000 16.000000
v 8.000000 44.000000 16.000000
v 16.000000 12.000000 16.000000
v 8.000000 12.000000 16.000000
v 16.000000 12.000000 19.000000
v 8.000000 12.000000 19.000000
v 48.000000 44.000000 19.000000
v 40.000000 44.000000 19.000000
v 48.000000 44.000000 16.000000
v 40.000000 44.000000 16.000000
v 48.000000 12.000000 16.000000
v 40.000000 12.000000 16.000000
v 48.000000 12.000000 19.000000
v 40.000000 12.000000 19.000000
v -48.000000 44.000000 19.000000
v -40.000000 44.000000 19.000000
v -48.000000 12.000000 19.000000
v -40.000000 12.000000 19.000000
v -40.000000 44.000000 19.000000
v -40.000000 44.000000 16.000000
v -40.000000 12.000000 19.000000
v -40.000000 12.000000 16.000000
v -48.000000 44.000000 16.000000
v -48.000000 44.000000 19.000000
v -48.000000 12.000000 16.000000
v -48.000000 12.000000 19.000000
v -16.000000 44.000000 19.000000
v -8.000000 44.000000 19.000000
v -16.000000 12.000000 19.000000
v -8.000000 12.000000 19.000000
v -8.000000 44.000000 19.000000
v -8.000000 44.000000 16.000000
v -8.000000 12.000000 19.000000
v -8.000000 12.000000 16.000000
v -16.000000 44.000000 16.000000
v -16.000000 44.000000 19.000000
v -16.000000 12.000000 16.000000
v -16.000000 12.000000 19.000000
v 8.000000 44.000000 19.000000
v 16.000000 44.000000 19.000000
v 8.000000 12.000000 19.000000
v 16.000000 12.000000 19.000000
v 16.000000 44.000000 19.000000
v 16.000000 44.000000 16.000000
v 16.000000 12.000000 19.000000
v 16.000000 12.000000 16.000000
v 8.000000 44.000000 16.000000
v 8.000000 44.000000 19.000000
v 8.000000 12.000000 16.000000
v 8.000000 12.000000 19.000000
v 40.000000 44.000000 19.000000
v 48.000000 44.000000 19.000000
v 40.000000 12.000000 19.000000
v 48.000000 12.000000 19.000000
v 48.000000 44.000000 19.000000
v 48.000000 44.000000 16.000000
v 48.000000 12.000000 19.000000
v 48.000000 12.000000 16.000000
v 40.000000 44.000000 16.000000
v 40.000000 44.000000 19.000000
v 40.000000 12.000000 16.000000
v 40.000000 12.000000 19.000000
v 40.000000 44.000000 -19.000000
v 48.000000 44.000000 -19.000000
v 40.000000 44.000000 -16.000000
v 48.000000 44.000000 -16.000000
v 40.000000 12.000000 -16.000000
v 48.000000 12.000000 -16.000000
v 40.000000 12.000000 -19.000000
v 48.000000 12.000000 -19.000000
v 8.000000 44.000000 -19.000000
v 16.000000 44.000000 -19.000000
v 8.000000 44.000000 -16.000000
v 16.000000 44.000000 -16.000000
v 8.000000 12.000000 -16.000000
v 16.000000 12.000000 -16.000000
v 8.000000 12.000000 -19.000000
v 16.000000 12.000000 -19.000000
v -16.000000 44.000000 -19.000000
v -8.000000 44.000000 -19.000000
v -16.000000 44.000000 -16.000000
v -8.000000 44.000000 -16.000000
v -16.000000 12.000000 -16.000000
v -8.000000 12.000000 -16.000000
v -16.000000 12.000000 -19.000000
v -8.000000 12.000000 -19.000000
v -48.000000 44.000000 -19.000000
v -40.000000 44.000000 -19.000000
v -48.000000 44.000000 -16.000000
v -40.000000 44.000000 -16.000000
v -48.000000 12.000000 -16.000000
v -40.000000 12.000000 -16.000000
v -48.000000 12.000000 -19.000000
v -40.000000 12.000000 -19.000000
v 48.000000 44.000000 -19.000000
v 40.000000 44.000000 -19.000000
v 48.000000 12.000000 -19.000000
v 40.000000 12.000000 -19.000000
v 40.000000 44.000000 -19.000000
v 40.000000 44.000000 -16.000000
v 40.000000 12.000000 -19.000000
v 40.000000 12.000000 -16.000000
v 48.000000 44.000000 -16.000000
v 48.000000 44.000000 -19.000000
v 48.000000 12.000000 -16.000000
v 48.000000 12.000000 -19.000000
v 16.000000 44.000000 -19.000000
v 8.000000 44.000000 -19.000000
v 16.000000 12.000000 -19.000000
v 8.000000 12.000000 -19.000000
v 8.000000 44.000000 -19.000000
v 8.000000 44.000000 -16.000000
v 8.000000 12.000000 -19.000000
v 8.000000 12.000000 -16.000000
v 16.000000 44.000000 -16.000000
v 16.000000 44.000000 -19.000000
v 16.000000 12.000000 -16.000000
v 16.000000 12.000000 -19.000000
v -8.000000 44.000000 -19.000000
v -16.000000 44.000000 -19.000000
v -8.000000 12.000000 -19.000000
v -16.000000 12.000000 -19.000000
v -16.000000 44.000000 -19.000000
v -16.000000 44.000000 -16.000000
v -16.000000 12.000000 -19.000000
v -16.000000 12.000000 -16.000000
v -8.000000 44.000000 -16.000000
v -8.000000 44.000000 -19.000000
v -8.000000 12.000000 -16.000000
v -8.000000 12.000000 -19.000000
v -40.000000 44.000000 -19.000000
v -48.000000 44.000000 -19.000000
v -40.000000 12.000000 -19.000000
v -48.000000 12.000000 -19.000000
v -48.000000 44.000000 -19.000000
v -48.000000 44.000000 -16.000000
v -48.000000 12.000000 -19.000000
v -48.000000 12.000000 -16.000000
v -40.000000 44.000000 -16.000000
v -40.000000 44.000000 -19.000000
v -40.000000 12.000000 -16.000000
v -40.000000 12.000000 -19.000000
# 388 vertices

vt 0.932966 0.093750
vt 1.000000 0.046875
vt 1.000000 0.093750
vt 0.562500 0.312500
vt 0.593750 0.296875
vt 0.593750 0.312500
vt 0.609375 0.296875
vt 0.609375 0.312500
vt 0.875000 0.085938
vt 0.875000 0.062500
vt 0.890625 0.062500
vt 0.890625 0.085938
vt 0.933263 0.046875
vt 0.629237 0.093750
vt 0.629237 0.046875
vt 0.562500 0.046875
vt 0.562500 1.000000
vt 0.562500 0.828125
vt 0.781250 0.828125
vt 0.781250 1.000000
vt 1.000000 0.828125
vt 1.000000 1.000000
vt 0.562500 0.484375
vt 0.687500 0.312500
vt 0.687500 0.484375
vt 0.640625 0.296875
vt 0.640625 0.312500
vt 0.875850 0.312500
vt 0.875850 0.296875
vt 0.907100 0.296875
vt 0.907100 0.312500
vt 0.812500 0.296902
vt 0.812500 0.171902
vt 0.843750 0.171902
vt 0.843750 0.296902
vt 0.824219 0.171902
vt 0.824219 0.296902
vt 0.832199 0.296902
vt 0.832199 0.171902
vt 0.875000 0.171902
vt 0.855469 0.171902
vt 0.855469 0.296902
vt 0.863449 0.296902
vt 0.863449 0.171902
vt 0.812500 0.265652
vt 0.812500 0.140652
vt 0.843750 0.140652
vt 0.843750 0.265652
vt 0.824219 0.140652
vt 0.824219 0.265652
vt 0.832199 0.265652
vt 0.832199 0.140652
vt 0.875000 0.140652
vt 0.875000 0.265652
vt 0.855469 0.140652
vt 0.855469 0.265652
vt 0.863449 0.265652
vt 0.863449 0.140652
# 58 texture coordinates

vn -0.242536 0.970142 0.000000
vn 0.242536 0.970142 0.000000
vn -1.000000 0.000000 0.000000
vn 0.000000 0.000000 1.000000
vn 1.000000 0.000000 0.000000
vn 0.000000 0.992278 -0.124035
vn 0.000000 0.000000 -1.000000
vn 0.000000 0.992278 0.124035
vn 0.124035 0.992278 0.000000
vn -0.124035 0.992278 0.000000
vn 0.000000 0.970142 0.242536
vn 0.000000 0.970142 -0.242536
vn 0.242536 -0.970142 0.000000
vn -0.242536 -0.970142 0.000000
vn 0.000000 -0.970142 -0.242536
vn 0.000000 -0.970142 0.242536
vn 0.000000 0.986394 0.164399
vn 0.000000 -0.986394 -0.164399
vn 0.000000 1.000000 0.000000
vn 0.000000 -1.000000 0.000000
# 20 normals

g Regroup04
usemtl Material03
s 1
f 1/1/1 3/2/1 2/3/1
f 5/3/1 6/2/1 4/1/1
f 7/1/2 9/2/2 8/3/2
f 11/3/2 12/2/2 10/1/2
f 13/4/3 15/5/3 14/6/3
f 16/6/4 18/5/4 19/7/4
f 16/6/4 19/7/4 17/8/4
f 21/6/5 22/5/5 20/4/5
f 23/9/6 25/10/6 26/11/6
f 23/9/6 26/11/6 24/12/6
f 27/4/3 29/5/3 28/6/3
f 30/6/4 32/5/4 33/7/4
f 30/6/4 33/7/4 31/8/4
f 35/6/5 36/5/5 34/4/5
f 37/9/6 39/10/6 40/11/6
f 37/9/6 40/11/6 38/12/6
f 41/4/3 43/5/3 42/6/3
f 44/6/4 46/5/4 47/7/4
f 44/6/4 47/7/4 45/8/4
f 49/6/5 50/5/5 48/4/5
f 51/9/6 53/10/6 54/11/6
f 51/9/6 54/11/6 52/12/6
f 55/4/3 57/5/3 56/6/3
f 58/6/4 60/5/4 61/7/4
f 58/6/4 61/7/4 59/8/4
f 63/6/5 64/5/5 62/4/5
f 65/9/6 67/10/6 68/11/6
f 65/9/6 68/11/6 66/12/6
f 69/4/5 71/5/5 70/6/5
f 72/6/7 74/5/7 75/7/7
f 72/6/7 75/7/7 73/8/7
f 77/6/3 78/5/3 76/4/3
f 79/9/8 81/10/8 82/11/8
f 79/9/8 82/11/8 80/12/8
f 83/4/5 85/5/5 84/6/5
f 86/6/7 88/5/7 89/7/7
f 86/6/7 89/7/7 87/8/7
f 91/6/3 92/5/3 90/4/3
f 93/9/8 95/10/8 96/11/8
f 93/9/8 96/11/8 94/12/8
f 97/4/5 99/5/5 98/6/5
f 100/6/7 102/5/7 103/7/7
f 100/6/7 103/7/7 101/8/7
f 105/6/3 106/5/3 104/4/3
f 107/9/8 109/10/8 110/11/8
f 107/9/8 110/11/8 108/12/8
f 111/4/5 113/5/5 112/6/5
f 114/6/7 116/5/7 117/7/7
f 114/6/7 117/7/7 115/8/7
f 119/6/3 120/5/3 118/4/3
f 121/9/8 123/10/8 124/11/8
f 121/9/8 124/11/8 122/12/8
f 125/4/7 127/5/7 126/6/7
f 128/6/3 130/5/3 131/7/3
f 128/6/3 131/7/3 129/8/3
f 133/6/4 134/5/4 132/4/4
f 135/9/9 137/10/9 138/11/9
f 135/9/9 138/11/9 136/12/9
f 139/4/4 141/5/4 140/6/4
f 142/6/5 144/5/5 145/7/5
f 142/6/5 145/7/5 143/8/5
f 147/6/7 148/5/7 146/4/7
f 149/9/10 151/10/10 152/11/10
f 149/9/10 152/11/10 150/12/10
f 153/2/11 156/1/11 154/13/11
f 156/1/11 157/14/11 155/15/11
f 156/1/11 155/15/11 154/13/11
f 155/15/11 157/14/11 158/16/11
f 159/2/12 162/1/12 160/13/12
f 162/1/12 163/14/12 161/15/12
f 162/1/12 161/15/12 160/13/12
f 161/15/12 163/14/12 164/16/12
f 166/3/13 167/2/13 165/1/13
f 168/1/13 170/2/13 169/3/13
f 172/3/14 173/2/14 171/1/14
f 174/1/14 176/2/14 175/3/14
f 178/13/15 180/1/15 177/2/15
f 179/15/15 181/14/15 180/1/15
f 178/13/15 179/15/15 180/1/15
f 182/16/15 181/14/15 179/15/15
f 184/13/16 186/1/16 183/2/16
f 185/15/16 187/14/16 186/1/16
f 184/13/16 185/15/16 186/1/16
f 188/16/16 187/14/16 185/15/16
f 189/17/7 191/18/7 192/19/7
f 189/17/7 192/19/7 190/20/7
f 196/19/7 195/18/7 193/17/7
f 194/20/7 196/19/7 193/17/7
f 197/20/4 199/19/4 200/21/4
f 197/20/4 200/21/4 198/22/4
f 204/21/4 203/19/4 201/20/4
f 202/22/4 204/21/4 201/20/4
f 205/23/3 207/4/3 208/24/3
f 205/23/3 208/24/3 206/25/3
f 209/23/5 211/4/5 212/24/5
f 209/23/5 212/24/5 210/25/5
f 213/8/17 215/7/17 216/26/17
f 213/8/17 216/26/17 214/27/17
f 220/26/18 219/7/18 217/8/18
f 218/27/18 220/26/18 217/8/18
f 221/8/17 223/7/17 224/26/17
f 221/8/17 224/26/17 222/27/17
f 228/26/18 227/7/18 225/8/18
f 226/27/18 228/26/18 225/8/18
f 229/28/19 231/29/19 232/30/19
f 229/28/19 232/30/19 230/31/19
f 233/28/20 235/29/20 236/30/20
f 233/28/20 236/30/20 234/31/20
f 237/28/19 239/29/19 240/30/19
f 237/28/19 240/30/19 238/31/19
f 241/28/20 243/29/20 244/30/20
f 241/28/20 244/30/20 242/31/20
f 245/28/19 247/29/19 248/30/19
f 245/28/19 248/30/19 246/31/19
f 249/28/20 251/29/20 252/30/20
f 249/28/20 252/30/20 250/31/20
f 253/28/19 255/29/19 256/30/19
f 253/28/19 256/30/19 254/31/19
f 257/28/20 259/29/20 260/30/20
f 257/28/20 260/30/20 258/31/20
f 261/32/4 263/33/4 264/34/4
f 261/32/4 264/34/4 262/35/4
f 265/32/5 267/33/5 268/36/5
f 265/32/5 268/36/5 266/37/5
f 269/38/3 271/39/3 272/34/3
f 269/38/3 272/34/3 270/35/3
f 273/35/4 275/34/4 276/40/4
f 273/35/4 276/40/4 274/29/4
f 277/35/5 279/34/5 280/41/5
f 277/35/5 280/41/5 278/42/5
f 281/43/3 283/44/3 284/40/3
f 281/43/3 284/40/3 282/29/3
f 285/45/4 287/46/4 288/47/4
f 285/45/4 288/47/4 286/48/4
f 289/45/5 291/46/5 292/49/5
f 289/45/5 292/49/5 290/50/5
f 293/51/3 295/52/3 296/47/3
f 293/51/3 296/47/3 294/48/3
f 297/48/4 299/47/4 300/53/4
f 297/48/4 300/53/4 298/54/4
f 301/48/5 303/47/5 304/55/5
f 301/48/5 304/55/5 302/56/5
f 305/57/3 307/58/3 308/53/3
f 305/57/3 308/53/3 306/54/3
f 309/28/19 311/29/19 312/30/19
f 309/28/19 312/30/19 310/31/19
f 313/28/20 315/29/20 316/30/20
f 313/28/20 316/30/20 314/31/20
f 317/28/19 319/29/19 320/30/19
f 317/28/19 320/30/19 318/31/19
f 321/28/20 323/29/20 324/30/20
f 321/28/20 324/30/20 322/31/20
f 325/28/19 327/29/19 328/30/19
f 325/28/19 328/30/19 326/31/19
f 329/28/20 331/29/20 332/30/20
f 329/28/20 332/30/20 330/31/20
f 333/28/19 335/29/19 336/30/19
f 333/28/19 336/30/19 334/31/19
f 337/28/20 339/29/20 340/30/20
f 337/28/20 340/30/20 338/31/20
f 341/32/7 343/33/7 344/34/7
f 341/32/7 344/34/7 342/35/7
f 345/32/3 347/33/3 348/36/3
f 345/32/3 348/36/3 346/37/3
f 349/38/5 351/39/5 352/34/5
f 349/38/5 352/34/5 350/35/5
f 353/35/7 355/34/7 356/40/7
f 353/35/7 356/40/7 354/29/7
f 357/35/3 359/34/3 360/41/3
f 357/35/3 360/41/3 358/42/3
f 361/43/5 363/44/5 364/40/5
f 361/43/5 364/40/5 362/29/5
f 365/45/7 367/46/7 368/47/7
f 365/45/7 368/47/7 366/48/7
f 369/45/3 371/46/3 372/49/3
f 369/45/3 372/49/3 370/50/3
f 373/51/5 375/52/5 376/47/5
f 373/51/5 376/47/5 374/48/5
f 377/48/7 379/47/7 380/53/7
f 377/48/7 380/53/7 378/54/7
f 381/48/3 383/47/3 384/55/3
f 381/48/3 384/55/3 382/56/3
f 385/57/5 387/58/5 388/53/5
f 385/57/5 388/53/5 386/54/5
# 184 triangles in group

# 184 triangles total

