# Wavefront OBJ exported by MilkShape 3D

mtllib rus_build_9et_02b_LOD1.mtl

v -24.000000 84.000000 16.000000
v -24.000000 84.000000 -16.000000
v -65.000000 84.000000 -16.000000
v -65.000000 84.000000 16.000000
v -39.000000 76.000000 19.000000
v -39.000000 76.000000 16.000000
v -57.000000 76.000000 16.000000
v -57.000000 76.000000 19.000000
v -57.000000 4.000000 19.000000
v -57.000000 4.000000 16.000000
v -39.000000 4.000000 16.000000
v -39.000000 4.000000 19.000000
v -25.000000 76.000000 16.000000
v -25.000000 76.000000 19.000000
v -7.000000 76.000000 19.000000
v -7.000000 76.000000 16.000000
v -7.000000 4.000000 16.000000
v -7.000000 4.000000 19.000000
v -25.000000 4.000000 19.000000
v -25.000000 4.000000 16.000000
v -57.000000 84.000000 16.000000
v -57.000000 84.000000 19.000000
v -57.000000 0.000000 19.000000
v -57.000000 0.000000 16.000000
v -57.000000 0.000000 16.000000
v -57.000000 0.000000 19.000000
v -57.000000 84.000000 19.000000
v -57.000000 84.000000 16.000000
v -39.000000 84.000000 16.000000
v -39.000000 84.000000 19.000000
v -39.000000 0.000000 19.000000
v -39.000000 0.000000 16.000000
v -39.000000 0.000000 16.000000
v -39.000000 0.000000 19.000000
v -39.000000 84.000000 19.000000
v -39.000000 84.000000 16.000000
v -7.000000 84.000000 19.000000
v -7.000000 84.000000 16.000000
v -7.000000 0.000000 16.000000
v -7.000000 0.000000 19.000000
v -7.000000 0.000000 19.000000
v -7.000000 0.000000 16.000000
v -7.000000 84.000000 16.000000
v -7.000000 84.000000 19.000000
v -25.000000 84.000000 19.000000
v -25.000000 84.000000 16.000000
v -25.000000 0.000000 16.000000
v -25.000000 0.000000 19.000000
v -25.000000 0.000000 19.000000
v -25.000000 0.000000 16.000000
v -25.000000 84.000000 16.000000
v -25.000000 84.000000 19.000000
v -57.000000 87.000000 12.000000
v -57.000000 83.000000 12.000000
v -53.000000 83.000000 12.000000
v -53.000000 87.000000 12.000000
v -53.000000 83.000000 8.000000
v -53.000000 87.000000 8.000000
v -57.000000 87.000000 12.000000
v -53.000000 87.000000 12.000000
v -53.000000 87.000000 8.000000
v -57.000000 87.000000 8.000000
v -53.000000 87.000000 8.000000
v -53.000000 83.000000 8.000000
v -57.000000 83.000000 8.000000
v -57.000000 87.000000 8.000000
v -57.000000 83.000000 12.000000
v -57.000000 87.000000 -8.000000
v -57.000000 83.000000 -8.000000
v -53.000000 83.000000 -8.000000
v -53.000000 87.000000 -8.000000
v -53.000000 83.000000 -12.000000
v -53.000000 87.000000 -12.000000
v -57.000000 87.000000 -8.000000
v -53.000000 87.000000 -8.000000
v -53.000000 87.000000 -12.000000
v -57.000000 87.000000 -12.000000
v -53.000000 87.000000 -12.000000
v -53.000000 83.000000 -12.000000
v -57.000000 83.000000 -12.000000
v -57.000000 87.000000 -12.000000
v -57.000000 83.000000 -8.000000
v -25.000000 8.000000 18.000000
v -25.000000 8.000000 16.000000
v -39.000000 8.000000 16.000000
v -39.000000 8.000000 18.000000
v -39.000000 8.000000 18.000000
v -39.000000 8.000000 16.000000
v -25.000000 8.000000 16.000000
v -25.000000 8.000000 18.000000
v -57.000000 76.000000 19.000000
v -39.000000 76.000000 19.000000
v -57.000000 4.000000 19.000000
v -39.000000 4.000000 19.000000
v -25.000000 76.000000 19.000000
v -7.000000 76.000000 19.000000
v -25.000000 4.000000 19.000000
v -7.000000 4.000000 19.000000
v -65.000000 84.000000 16.000000
v -65.000000 44.000000 16.000000
v -65.000000 44.000000 16.000000
v -65.000000 0.000000 16.000000
v -65.000000 44.000000 -16.000000
v -65.000000 84.000000 -16.000000
v -65.000000 0.000000 -16.000000
v -65.000000 44.000000 -16.000000
v -65.000000 84.000000 16.000000
v 0.000000 84.000000 16.000000
v -65.000000 44.000000 16.000000
v 0.000000 44.000000 16.000000
v -65.000000 44.000000 16.000000
v 0.000000 44.000000 16.000000
v -65.000000 0.000000 16.000000
v 0.000000 0.000000 16.000000
v 65.000000 84.000000 16.000000
v 0.000000 84.000000 16.000000
v 65.000000 44.000000 16.000000
v 0.000000 44.000000 16.000000
v 65.000000 44.000000 16.000000
v 0.000000 44.000000 16.000000
v 65.000000 0.000000 16.000000
v 0.000000 0.000000 16.000000
v 0.000000 84.000000 -16.000000
v -65.000000 84.000000 -16.000000
v 0.000000 44.000000 -16.000000
v -65.000000 44.000000 -16.000000
v 0.000000 44.000000 -16.000000
v -65.000000 44.000000 -16.000000
v 0.000000 0.000000 -16.000000
v -65.000000 0.000000 -16.000000
v 0.000000 84.000000 -16.000000
v 65.000000 84.000000 -16.000000
v 0.000000 44.000000 -16.000000
v 65.000000 44.000000 -16.000000
v 0.000000 44.000000 -16.000000
v 65.000000 44.000000 -16.000000
v 0.000000 0.000000 -16.000000
v 65.000000 0.000000 -16.000000
v 65.000000 84.000000 -16.000000
v 65.000000 44.000000 -16.000000
v 65.000000 44.000000 -16.000000
v 65.000000 0.000000 -16.000000
v 65.000000 44.000000 16.000000
v 65.000000 84.000000 16.000000
v 65.000000 0.000000 16.000000
v 65.000000 44.000000 16.000000
v 25.000000 76.000000 19.000000
v 25.000000 76.000000 16.000000
v 7.000000 76.000000 16.000000
v 7.000000 76.000000 19.000000
v 7.000000 4.000000 19.000000
v 7.000000 4.000000 16.000000
v 25.000000 4.000000 16.000000
v 25.000000 4.000000 19.000000
v 39.000000 76.000000 16.000000
v 39.000000 76.000000 19.000000
v 57.000000 76.000000 19.000000
v 57.000000 76.000000 16.000000
v 57.000000 4.000000 16.000000
v 57.000000 4.000000 19.000000
v 39.000000 4.000000 19.000000
v 39.000000 4.000000 16.000000
v 7.000000 84.000000 16.000000
v 7.000000 84.000000 19.000000
v 7.000000 0.000000 19.000000
v 7.000000 0.000000 16.000000
v 7.000000 0.000000 16.000000
v 7.000000 0.000000 19.000000
v 7.000000 84.000000 19.000000
v 7.000000 84.000000 16.000000
v 25.000000 84.000000 16.000000
v 25.000000 84.000000 19.000000
v 25.000000 0.000000 19.000000
v 25.000000 0.000000 16.000000
v 25.000000 0.000000 16.000000
v 25.000000 0.000000 19.000000
v 25.000000 84.000000 19.000000
v 25.000000 84.000000 16.000000
v 57.000000 84.000000 19.000000
v 57.000000 84.000000 16.000000
v 57.000000 0.000000 16.000000
v 57.000000 0.000000 19.000000
v 57.000000 0.000000 19.000000
v 57.000000 0.000000 16.000000
v 57.000000 84.000000 16.000000
v 57.000000 84.000000 19.000000
v 39.000000 84.000000 19.000000
v 39.000000 84.000000 16.000000
v 39.000000 0.000000 16.000000
v 39.000000 0.000000 19.000000
v 39.000000 0.000000 19.000000
v 39.000000 0.000000 16.000000
v 39.000000 84.000000 16.000000
v 39.000000 84.000000 19.000000
v 39.000000 8.000000 18.000000
v 39.000000 8.000000 16.000000
v 25.000000 8.000000 16.000000
v 25.000000 8.000000 18.000000
v 25.000000 8.000000 18.000000
v 25.000000 8.000000 16.000000
v 39.000000 8.000000 16.000000
v 39.000000 8.000000 18.000000
v 7.000000 76.000000 19.000000
v 25.000000 76.000000 19.000000
v 7.000000 4.000000 19.000000
v 25.000000 4.000000 19.000000
v 39.000000 76.000000 19.000000
v 57.000000 76.000000 19.000000
v 39.000000 4.000000 19.000000
v 57.000000 4.000000 19.000000
v 39.000000 76.000000 -19.000000
v 39.000000 76.000000 -16.000000
v 57.000000 76.000000 -16.000000
v 57.000000 76.000000 -19.000000
v 57.000000 4.000000 -19.000000
v 57.000000 4.000000 -16.000000
v 39.000000 4.000000 -16.000000
v 39.000000 4.000000 -19.000000
v 25.000000 76.000000 -16.000000
v 25.000000 76.000000 -19.000000
v 7.000000 76.000000 -19.000000
v 7.000000 76.000000 -16.000000
v 7.000000 4.000000 -16.000000
v 7.000000 4.000000 -19.000000
v 25.000000 4.000000 -19.000000
v 25.000000 4.000000 -16.000000
v 57.000000 84.000000 -16.000000
v 57.000000 84.000000 -19.000000
v 57.000000 0.000000 -19.000000
v 57.000000 0.000000 -16.000000
v 57.000000 0.000000 -16.000000
v 57.000000 0.000000 -19.000000
v 57.000000 84.000000 -19.000000
v 57.000000 84.000000 -16.000000
v 39.000000 84.000000 -16.000000
v 39.000000 84.000000 -19.000000
v 39.000000 0.000000 -19.000000
v 39.000000 0.000000 -16.000000
v 39.000000 0.000000 -16.000000
v 39.000000 0.000000 -19.000000
v 39.000000 84.000000 -19.000000
v 39.000000 84.000000 -16.000000
v 7.000000 84.000000 -19.000000
v 7.000000 84.000000 -16.000000
v 7.000000 0.000000 -16.000000
v 7.000000 0.000000 -19.000000
v 7.000000 0.000000 -19.000000
v 7.000000 0.000000 -16.000000
v 7.000000 84.000000 -16.000000
v 7.000000 84.000000 -19.000000
v 25.000000 84.000000 -19.000000
v 25.000000 84.000000 -16.000000
v 25.000000 0.000000 -16.000000
v 25.000000 0.000000 -19.000000
v 25.000000 0.000000 -19.000000
v 25.000000 0.000000 -16.000000
v 25.000000 84.000000 -16.000000
v 25.000000 84.000000 -19.000000
v 57.000000 76.000000 -19.000000
v 39.000000 76.000000 -19.000000
v 57.000000 4.000000 -19.000000
v 39.000000 4.000000 -19.000000
v 25.000000 76.000000 -19.000000
v 7.000000 76.000000 -19.000000
v 25.000000 4.000000 -19.000000
v 7.000000 4.000000 -19.000000
v -25.000000 76.000000 -19.000000
v -25.000000 76.000000 -16.000000
v -7.000000 76.000000 -16.000000
v -7.000000 76.000000 -19.000000
v -7.000000 4.000000 -19.000000
v -7.000000 4.000000 -16.000000
v -25.000000 4.000000 -16.000000
v -25.000000 4.000000 -19.000000
v -39.000000 76.000000 -16.000000
v -39.000000 76.000000 -19.000000
v -57.000000 76.000000 -19.000000
v -57.000000 76.000000 -16.000000
v -57.000000 4.000000 -16.000000
v -57.000000 4.000000 -19.000000
v -39.000000 4.000000 -19.000000
v -39.000000 4.000000 -16.000000
v -7.000000 84.000000 -16.000000
v -7.000000 84.000000 -19.000000
v -7.000000 0.000000 -19.000000
v -7.000000 0.000000 -16.000000
v -7.000000 0.000000 -16.000000
v -7.000000 0.000000 -19.000000
v -7.000000 84.000000 -19.000000
v -7.000000 84.000000 -16.000000
v -25.000000 84.000000 -16.000000
v -25.000000 84.000000 -19.000000
v -25.000000 0.000000 -19.000000
v -25.000000 0.000000 -16.000000
v -25.000000 0.000000 -16.000000
v -25.000000 0.000000 -19.000000
v -25.000000 84.000000 -19.000000
v -25.000000 84.000000 -16.000000
v -57.000000 84.000000 -19.000000
v -57.000000 84.000000 -16.000000
v -57.000000 0.000000 -16.000000
v -57.000000 0.000000 -19.000000
v -57.000000 0.000000 -19.000000
v -57.000000 0.000000 -16.000000
v -57.000000 84.000000 -16.000000
v -57.000000 84.000000 -19.000000
v -39.000000 84.000000 -19.000000
v -39.000000 84.000000 -16.000000
v -39.000000 0.000000 -16.000000
v -39.000000 0.000000 -19.000000
v -39.000000 0.000000 -19.000000
v -39.000000 0.000000 -16.000000
v -39.000000 84.000000 -16.000000
v -39.000000 84.000000 -19.000000
v -7.000000 76.000000 -19.000000
v -25.000000 76.000000 -19.000000
v -7.000000 4.000000 -19.000000
v -25.000000 4.000000 -19.000000
v -39.000000 76.000000 -19.000000
v -57.000000 76.000000 -19.000000
v -39.000000 4.000000 -19.000000
v -57.000000 4.000000 -19.000000
v 24.000000 84.000000 -16.000000
v 24.000000 84.000000 16.000000
v 65.000000 84.000000 16.000000
v 65.000000 84.000000 -16.000000
v 57.000000 87.000000 -12.000000
v 57.000000 83.000000 -12.000000
v 53.000000 83.000000 -12.000000
v 53.000000 87.000000 -12.000000
v 53.000000 83.000000 -8.000000
v 53.000000 87.000000 -8.000000
v 57.000000 87.000000 -12.000000
v 53.000000 87.000000 -12.000000
v 53.000000 87.000000 -8.000000
v 57.000000 87.000000 -8.000000
v 53.000000 87.000000 -8.000000
v 53.000000 83.000000 -8.000000
v 57.000000 83.000000 -8.000000
v 57.000000 87.000000 -8.000000
v 57.000000 83.000000 -12.000000
v 57.000000 87.000000 8.000000
v 57.000000 83.000000 8.000000
v 53.000000 83.000000 8.000000
v 53.000000 87.000000 8.000000
v 53.000000 83.000000 12.000000
v 53.000000 87.000000 12.000000
v 57.000000 87.000000 8.000000
v 53.000000 87.000000 8.000000
v 53.000000 87.000000 12.000000
v 57.000000 87.000000 12.000000
v 53.000000 87.000000 12.000000
v 53.000000 83.000000 12.000000
v 57.000000 83.000000 12.000000
v 57.000000 87.000000 12.000000
v 57.000000 83.000000 8.000000
v 24.000000 84.000000 16.000000
v -24.000000 84.000000 16.000000
v 24.000000 84.000000 -16.000000
v -24.000000 84.000000 -16.000000
v -20.000000 87.000000 12.000000
v -20.000000 83.000000 12.000000
v -16.000000 83.000000 12.000000
v -16.000000 87.000000 12.000000
v -16.000000 83.000000 8.000000
v -16.000000 87.000000 8.000000
v -20.000000 87.000000 12.000000
v -16.000000 87.000000 12.000000
v -16.000000 87.000000 8.000000
v -20.000000 87.000000 8.000000
v -16.000000 87.000000 8.000000
v -16.000000 83.000000 8.000000
v -20.000000 83.000000 8.000000
v -20.000000 87.000000 8.000000
v -20.000000 83.000000 12.000000
v -20.000000 87.000000 -8.000000
v -20.000000 83.000000 -8.000000
v -16.000000 83.000000 -8.000000
v -16.000000 87.000000 -8.000000
v -16.000000 83.000000 -12.000000
v -16.000000 87.000000 -12.000000
v -20.000000 87.000000 -8.000000
v -16.000000 87.000000 -8.000000
v -16.000000 87.000000 -12.000000
v -20.000000 87.000000 -12.000000
v -16.000000 87.000000 -12.000000
v -16.000000 83.000000 -12.000000
v -20.000000 83.000000 -12.000000
v -20.000000 87.000000 -12.000000
v -20.000000 83.000000 -8.000000
v 16.000000 87.000000 12.000000
v 16.000000 83.000000 12.000000
v 20.000000 83.000000 12.000000
v 20.000000 87.000000 12.000000
v 20.000000 83.000000 8.000000
v 20.000000 87.000000 8.000000
v 16.000000 87.000000 12.000000
v 20.000000 87.000000 12.000000
v 20.000000 87.000000 8.000000
v 16.000000 87.000000 8.000000
v 20.000000 87.000000 8.000000
v 20.000000 83.000000 8.000000
v 16.000000 83.000000 8.000000
v 16.000000 87.000000 8.000000
v 16.000000 83.000000 12.000000
v 16.000000 87.000000 -8.000000
v 16.000000 83.000000 -8.000000
v 20.000000 83.000000 -8.000000
v 20.000000 87.000000 -8.000000
v 20.000000 83.000000 -12.000000
v 20.000000 87.000000 -12.000000
v 16.000000 87.000000 -8.000000
v 20.000000 87.000000 -8.000000
v 20.000000 87.000000 -12.000000
v 16.000000 87.000000 -12.000000
v 20.000000 87.000000 -12.000000
v 20.000000 83.000000 -12.000000
v 16.000000 83.000000 -12.000000
v 16.000000 87.000000 -12.000000
v 16.000000 83.000000 -8.000000
# 420 vertices

vt 0.843750 0.125000
vt 0.843750 0.000000
vt 1.000000 0.000000
vt 1.000000 0.125000
vt 0.781317 0.143087
vt 0.781317 0.154661
vt 0.722712 0.154661
vt 0.722712 0.143087
vt 0.998698 0.144531
vt 0.998698 0.154622
vt 0.688802 0.154622
vt 0.688802 0.144531
vt 0.859375 0.187500
vt 0.859375 0.171875
vt 0.875000 0.171875
vt 0.875000 0.187500
vt 0.890625 0.171875
vt 0.890625 0.187500
vt 0.906250 0.171875
vt 0.906250 0.187500
vt 0.250000 0.359375
vt 0.250000 0.078125
vt 0.312500 0.078125
vt 0.312500 0.359375
vt 0.375000 0.078125
vt 0.375000 0.359375
vt 0.435608 0.593750
vt 0.435608 0.437500
vt 0.564395 0.437500
vt 0.564395 0.593750
vt 0.435608 0.562500
vt 0.435608 0.390625
vt 0.564395 0.390625
vt 0.564395 0.562500
vt 0.562500 0.593750
vt 0.562500 0.437500
vt 0.812500 0.437500
vt 0.812500 0.593750
vt 0.562500 0.562500
vt 0.562500 0.390625
vt 0.812500 0.390625
vt 0.812500 0.562500
vt 0.187500 0.593750
vt 0.187500 0.437500
vt 0.437500 0.437500
vt 0.437500 0.593750
vt 0.187500 0.562500
vt 0.187500 0.390625
vt 0.437500 0.390625
vt 0.437500 0.562500
vt 0.796875 0.125000
vt 0.796875 0.000000
vt 0.984375 0.000000
vt 0.984375 0.125000
# 54 texture coordinates

vn 0.000000 1.000000 0.000000
vn 0.000000 -1.000000 0.000000
vn 1.000000 0.000000 0.000000
vn -1.000000 0.000000 0.000000
vn 0.000000 0.000000 1.000000
vn 0.447214 0.000000 0.894427
vn 0.894427 0.000000 0.447214
vn -0.447214 0.894427 0.000000
vn 0.000000 0.000000 -1.000000
vn -0.447214 0.000000 -0.894427
vn -0.894427 0.000000 -0.447214
vn 0.447214 0.894427 0.000000
# 12 normals

g Regroup41
usemtl rus_build_LOD_02
s 1
f 1/1/1 2/2/1 3/3/1
f 1/1/1 3/3/1 4/4/1
f 5/5/1 6/6/1 7/7/1
f 5/5/1 7/7/1 8/8/1
f 9/5/2 10/6/2 11/7/2
f 9/5/2 11/7/2 12/8/2
f 13/5/1 14/6/1 15/7/1
f 13/5/1 15/7/1 16/8/1
f 17/5/2 18/6/2 19/7/2
f 17/5/2 19/7/2 20/8/2
f 21/9/3 22/10/3 23/11/3
f 21/9/3 23/11/3 24/12/3
f 25/9/4 26/10/4 27/11/4
f 25/9/4 27/11/4 28/12/4
f 29/9/3 30/10/3 31/11/3
f 29/9/3 31/11/3 32/12/3
f 33/9/4 34/10/4 35/11/4
f 33/9/4 35/11/4 36/12/4
f 37/9/4 38/10/4 39/11/4
f 37/9/4 39/11/4 40/12/4
f 41/9/3 42/10/3 43/11/3
f 41/9/3 43/11/3 44/12/3
f 45/9/4 46/10/4 47/11/4
f 45/9/4 47/11/4 48/12/4
f 49/9/3 50/10/3 51/11/3
f 49/9/3 51/11/3 52/12/3
f 53/13/5 54/14/5 55/15/6
f 53/13/5 55/15/6 56/16/7
f 56/16/7 55/15/6 57/17/3
f 56/16/7 57/17/3 58/18/3
f 59/18/8 60/17/1 61/19/1
f 59/18/8 61/19/1 62/20/1
f 63/13/9 64/14/9 65/15/10
f 63/13/9 65/15/10 66/16/11
f 66/16/11 65/15/10 67/17/4
f 66/16/11 67/17/4 59/18/8
f 68/13/5 69/14/5 70/15/6
f 68/13/5 70/15/6 71/16/7
f 71/16/7 70/15/6 72/17/3
f 71/16/7 72/17/3 73/18/3
f 74/18/8 75/17/1 76/19/1
f 74/18/8 76/19/1 77/20/1
f 78/13/9 79/14/9 80/15/10
f 78/13/9 80/15/10 81/16/11
f 81/16/11 80/15/10 82/17/4
f 81/16/11 82/17/4 74/18/8
f 83/5/1 84/6/1 85/7/1
f 83/5/1 85/7/1 86/8/1
f 87/5/2 88/6/2 89/7/2
f 87/5/2 89/7/2 90/8/2
f 91/21/5 93/22/5 94/23/5
f 91/21/5 94/23/5 92/24/5
f 95/24/5 97/23/5 98/25/5
f 95/24/5 98/25/5 96/26/5
f 104/27/4 103/28/4 100/29/4
f 104/27/4 100/29/4 99/30/4
f 106/31/4 105/32/4 102/33/4
f 106/31/4 102/33/4 101/34/4
f 107/35/5 109/36/5 110/37/5
f 107/35/5 110/37/5 108/38/5
f 111/39/5 113/40/5 114/41/5
f 111/39/5 114/41/5 112/42/5
f 118/37/5 117/36/5 115/35/5
f 116/38/5 118/37/5 115/35/5
f 122/41/5 121/40/5 119/39/5
f 120/42/5 122/41/5 119/39/5
f 123/43/9 125/44/9 126/45/9
f 123/43/9 126/45/9 124/46/9
f 127/47/9 129/48/9 130/49/9
f 127/47/9 130/49/9 128/50/9
f 134/45/9 133/44/9 131/43/9
f 132/46/9 134/45/9 131/43/9
f 138/49/9 137/48/9 135/47/9
f 136/50/9 138/49/9 135/47/9
f 144/27/3 143/28/3 140/29/3
f 144/27/3 140/29/3 139/30/3
f 146/31/3 145/32/3 142/33/3
f 146/31/3 142/33/3 141/34/3
f 147/5/1 148/6/1 149/7/1
f 147/5/1 149/7/1 150/8/1
f 151/5/2 152/6/2 153/7/2
f 151/5/2 153/7/2 154/8/2
f 155/5/1 156/6/1 157/7/1
f 155/5/1 157/7/1 158/8/1
f 159/5/2 160/6/2 161/7/2
f 159/5/2 161/7/2 162/8/2
f 163/9/3 164/10/3 165/11/3
f 163/9/3 165/11/3 166/12/3
f 167/9/4 168/10/4 169/11/4
f 167/9/4 169/11/4 170/12/4
f 171/9/3 172/10/3 173/11/3
f 171/9/3 173/11/3 174/12/3
f 175/9/4 176/10/4 177/11/4
f 175/9/4 177/11/4 178/12/4
f 179/9/4 180/10/4 181/11/4
f 179/9/4 181/11/4 182/12/4
f 183/9/3 184/10/3 185/11/3
f 183/9/3 185/11/3 186/12/3
f 187/9/4 188/10/4 189/11/4
f 187/9/4 189/11/4 190/12/4
f 191/9/3 192/10/3 193/11/3
f 191/9/3 193/11/3 194/12/3
f 195/5/1 196/6/1 197/7/1
f 195/5/1 197/7/1 198/8/1
f 199/5/2 200/6/2 201/7/2
f 199/5/2 201/7/2 202/8/2
f 203/21/5 205/22/5 206/23/5
f 203/21/5 206/23/5 204/24/5
f 207/24/5 209/23/5 210/25/5
f 207/24/5 210/25/5 208/26/5
f 211/5/1 212/6/1 213/7/1
f 211/5/1 213/7/1 214/8/1
f 215/5/2 216/6/2 217/7/2
f 215/5/2 217/7/2 218/8/2
f 219/5/1 220/6/1 221/7/1
f 219/5/1 221/7/1 222/8/1
f 223/5/2 224/6/2 225/7/2
f 223/5/2 225/7/2 226/8/2
f 227/9/4 228/10/4 229/11/4
f 227/9/4 229/11/4 230/12/4
f 231/9/3 232/10/3 233/11/3
f 231/9/3 233/11/3 234/12/3
f 235/9/4 236/10/4 237/11/4
f 235/9/4 237/11/4 238/12/4
f 239/9/3 240/10/3 241/11/3
f 239/9/3 241/11/3 242/12/3
f 243/9/3 244/10/3 245/11/3
f 243/9/3 245/11/3 246/12/3
f 247/9/4 248/10/4 249/11/4
f 247/9/4 249/11/4 250/12/4
f 251/9/3 252/10/3 253/11/3
f 251/9/3 253/11/3 254/12/3
f 255/9/4 256/10/4 257/11/4
f 255/9/4 257/11/4 258/12/4
f 259/21/9 261/22/9 262/23/9
f 259/21/9 262/23/9 260/24/9
f 263/24/9 265/23/9 266/25/9
f 263/24/9 266/25/9 264/26/9
f 267/5/1 268/6/1 269/7/1
f 267/5/1 269/7/1 270/8/1
f 271/5/2 272/6/2 273/7/2
f 271/5/2 273/7/2 274/8/2
f 275/5/1 276/6/1 277/7/1
f 275/5/1 277/7/1 278/8/1
f 279/5/2 280/6/2 281/7/2
f 279/5/2 281/7/2 282/8/2
f 283/9/4 284/10/4 285/11/4
f 283/9/4 285/11/4 286/12/4
f 287/9/3 288/10/3 289/11/3
f 287/9/3 289/11/3 290/12/3
f 291/9/4 292/10/4 293/11/4
f 291/9/4 293/11/4 294/12/4
f 295/9/3 296/10/3 297/11/3
f 295/9/3 297/11/3 298/12/3
f 299/9/3 300/10/3 301/11/3
f 299/9/3 301/11/3 302/12/3
f 303/9/4 304/10/4 305/11/4
f 303/9/4 305/11/4 306/12/4
f 307/9/3 308/10/3 309/11/3
f 307/9/3 309/11/3 310/12/3
f 311/9/4 312/10/4 313/11/4
f 311/9/4 313/11/4 314/12/4
f 315/21/9 317/22/9 318/23/9
f 315/21/9 318/23/9 316/24/9
f 319/24/9 321/23/9 322/25/9
f 319/24/9 322/25/9 320/26/9
f 323/1/1 324/2/1 325/3/1
f 323/1/1 325/3/1 326/4/1
f 327/13/9 328/14/9 329/15/10
f 327/13/9 329/15/10 330/16/11
f 330/16/11 329/15/10 331/17/4
f 330/16/11 331/17/4 332/18/4
f 333/18/12 334/17/1 335/19/1
f 333/18/12 335/19/1 336/20/1
f 337/13/5 338/14/5 339/15/6
f 337/13/5 339/15/6 340/16/7
f 340/16/7 339/15/6 341/17/3
f 340/16/7 341/17/3 333/18/12
f 342/13/9 343/14/9 344/15/10
f 342/13/9 344/15/10 345/16/11
f 345/16/11 344/15/10 346/17/4
f 345/16/11 346/17/4 347/18/4
f 348/18/12 349/17/1 350/19/1
f 348/18/12 350/19/1 351/20/1
f 352/13/5 353/14/5 354/15/6
f 352/13/5 354/15/6 355/16/7
f 355/16/7 354/15/6 356/17/3
f 355/16/7 356/17/3 348/18/12
f 357/51/1 359/52/1 360/53/1
f 357/51/1 360/53/1 358/54/1
f 361/13/5 362/14/5 363/15/6
f 361/13/5 363/15/6 364/16/7
f 364/16/7 363/15/6 365/17/3
f 364/16/7 365/17/3 366/18/3
f 367/18/8 368/17/1 369/19/1
f 367/18/8 369/19/1 370/20/1
f 371/13/9 372/14/9 373/15/10
f 371/13/9 373/15/10 374/16/11
f 374/16/11 373/15/10 375/17/4
f 374/16/11 375/17/4 367/18/8
f 376/13/5 377/14/5 378/15/6
f 376/13/5 378/15/6 379/16/7
f 379/16/7 378/15/6 380/17/3
f 379/16/7 380/17/3 381/18/3
f 382/18/8 383/17/1 384/19/1
f 382/18/8 384/19/1 385/20/1
f 386/13/9 387/14/9 388/15/10
f 386/13/9 388/15/10 389/16/11
f 389/16/11 388/15/10 390/17/4
f 389/16/11 390/17/4 382/18/8
f 391/13/5 392/14/5 393/15/6
f 391/13/5 393/15/6 394/16/7
f 394/16/7 393/15/6 395/17/3
f 394/16/7 395/17/3 396/18/3
f 397/18/8 398/17/1 399/19/1
f 397/18/8 399/19/1 400/20/1
f 401/13/9 402/14/9 403/15/10
f 401/13/9 403/15/10 404/16/11
f 404/16/11 403/15/10 405/17/4
f 404/16/11 405/17/4 397/18/8
f 406/13/5 407/14/5 408/15/6
f 406/13/5 408/15/6 409/16/7
f 409/16/7 408/15/6 410/17/3
f 409/16/7 410/17/3 411/18/3
f 412/18/8 413/17/1 414/19/1
f 412/18/8 414/19/1 415/20/1
f 416/13/9 417/14/9 418/15/10
f 416/13/9 418/15/10 419/16/11
f 419/16/11 418/15/10 420/17/4
f 419/16/11 420/17/4 412/18/8
# 230 triangles in group

# 230 triangles total

