# Wavefront OBJ exported by MilkShape 3D

mtllib rus_build_9et_01_LOD2.mtl

v 11.000000 84.000000 16.000000
v 11.000000 84.000000 -16.000000
v -30.000000 84.000000 -16.000000
v -30.000000 84.000000 16.000000
v 45.000000 84.000000 24.000000
v 45.000000 44.000000 24.000000
v 45.000000 44.000000 -24.000000
v 45.000000 84.000000 -24.000000
v 45.000000 44.000000 24.000000
v 45.000000 0.000000 24.000000
v 45.000000 0.000000 -24.000000
v 45.000000 44.000000 -24.000000
v 45.000000 84.000000 -24.000000
v 45.000000 44.000000 -24.000000
v 11.000000 44.000000 -24.000000
v 11.000000 84.000000 -24.000000
v 45.000000 44.000000 -24.000000
v 45.000000 0.000000 -24.000000
v 11.000000 0.000000 -24.000000
v 11.000000 44.000000 -24.000000
v 11.000000 44.000000 16.000000
v 11.000000 0.000000 16.000000
v 11.000000 0.000000 24.000000
v 11.000000 44.000000 24.000000
v 11.000000 44.000000 -24.000000
v 11.000000 0.000000 -24.000000
v 11.000000 0.000000 -16.000000
v 11.000000 44.000000 -16.000000
v 11.000000 84.000000 16.000000
v 11.000000 44.000000 16.000000
v 11.000000 44.000000 24.000000
v 11.000000 84.000000 24.000000
v 11.000000 84.000000 -24.000000
v 11.000000 44.000000 -24.000000
v 11.000000 44.000000 -16.000000
v 11.000000 84.000000 -16.000000
v 45.000000 84.000000 0.000000
v 11.000000 84.000000 0.000000
v 11.000000 84.000000 24.000000
v 45.000000 84.000000 24.000000
v 11.000000 84.000000 0.000000
v 45.000000 84.000000 0.000000
v 45.000000 84.000000 -24.000000
v 11.000000 84.000000 -24.000000
v -30.000000 84.000000 16.000000
v 11.000000 84.000000 16.000000
v -30.000000 44.000000 16.000000
v 11.000000 44.000000 16.000000
v -30.000000 44.000000 16.000000
v 11.000000 44.000000 16.000000
v -30.000000 0.000000 16.000000
v 11.000000 0.000000 16.000000
v 11.000000 84.000000 -16.000000
v -30.000000 84.000000 -16.000000
v 11.000000 44.000000 -16.000000
v -30.000000 44.000000 -16.000000
v 11.000000 44.000000 -16.000000
v -30.000000 44.000000 -16.000000
v 11.000000 0.000000 -16.000000
v -30.000000 0.000000 -16.000000
v -30.000000 84.000000 16.000000
v -30.000000 44.000000 16.000000
v -30.000000 44.000000 16.000000
v -30.000000 0.000000 16.000000
v -30.000000 44.000000 -16.000000
v -30.000000 84.000000 -16.000000
v -30.000000 0.000000 -16.000000
v -30.000000 44.000000 -16.000000
v 11.000000 84.000000 24.000000
v 11.000000 44.000000 24.000000
v 45.000000 44.000000 24.000000
v 45.000000 84.000000 24.000000
v 11.000000 44.000000 24.000000
v 11.000000 0.000000 24.000000
v 45.000000 0.000000 24.000000
v 45.000000 44.000000 24.000000
# 76 vertices

vt 0.843750 0.125000
vt 0.843750 0.000000
vt 1.000000 0.000000
vt 1.000000 0.125000
vt 0.000000 1.000000
vt 0.000000 0.843750
vt 0.187500 0.843750
vt 0.187500 1.000000
vt 0.000000 0.968750
vt 0.000000 0.796875
vt 0.187500 0.796875
vt 0.187500 0.968750
vt 0.432943 0.999874
vt 0.432943 0.843895
vt 0.565104 0.843895
vt 0.565104 0.999874
vt 0.432943 0.968584
vt 0.432943 0.796942
vt 0.565104 0.796942
vt 0.565104 0.968584
vt 0.938700 0.968750
vt 0.938700 0.796875
vt 0.969950 0.796875
vt 0.969950 0.968750
vt 0.938700 1.000000
vt 0.938700 0.843750
vt 0.969950 0.843750
vt 0.969950 1.000000
vt 0.906250 0.125000
vt 0.906250 0.000000
vt 0.562500 1.000000
vt 0.562500 0.843750
vt 0.718750 0.843750
vt 0.718750 1.000000
vt 0.562500 0.968750
vt 0.562500 0.796875
vt 0.718750 0.796875
vt 0.718750 0.968750
vt 0.281250 1.000000
vt 0.281250 0.843750
vt 0.437500 0.843750
vt 0.437500 1.000000
vt 0.281250 0.968750
vt 0.281250 0.796875
vt 0.437500 0.796875
vt 0.437500 0.968750
vt 0.435608 1.000000
vt 0.435608 0.843750
vt 0.435608 0.968750
vt 0.435608 0.796875
# 50 texture coordinates

vn 0.000000 1.000000 0.000000
vn 1.000000 0.000000 0.000000
vn 0.000000 0.000000 -1.000000
vn -1.000000 0.000000 0.000000
vn 0.000000 0.000000 1.000000
# 5 normals

g Regroup40
usemtl rus_build_LOD_02
s 1
f 1/1/1 2/2/1 3/3/1
f 1/1/1 3/3/1 4/4/1
f 5/5/2 6/6/2 7/7/2
f 5/5/2 7/7/2 8/8/2
f 9/9/2 10/10/2 11/11/2
f 9/9/2 11/11/2 12/12/2
f 13/13/3 14/14/3 15/15/3
f 13/13/3 15/15/3 16/16/3
f 17/17/3 18/18/3 19/19/3
f 17/17/3 19/19/3 20/20/3
f 21/21/4 22/22/4 23/23/4
f 21/21/4 23/23/4 24/24/4
f 25/21/4 26/22/4 27/23/4
f 25/21/4 27/23/4 28/24/4
f 29/25/4 30/26/4 31/27/4
f 29/25/4 31/27/4 32/28/4
f 33/25/4 34/26/4 35/27/4
f 33/25/4 35/27/4 36/28/4
f 37/29/1 38/30/1 39/3/1
f 37/29/1 39/3/1 40/4/1
f 41/29/1 42/30/1 43/3/1
f 41/29/1 43/3/1 44/4/1
f 45/31/5 47/32/5 48/33/5
f 45/31/5 48/33/5 46/34/5
f 49/35/5 51/36/5 52/37/5
f 49/35/5 52/37/5 50/38/5
f 53/39/3 55/40/3 56/41/3
f 53/39/3 56/41/3 54/42/3
f 57/43/3 59/44/3 60/45/3
f 57/43/3 60/45/3 58/46/3
f 66/47/4 65/48/4 62/15/4
f 66/47/4 62/15/4 61/16/4
f 68/49/4 67/50/4 64/19/4
f 68/49/4 64/19/4 63/20/4
f 69/13/5 70/14/5 71/15/5
f 69/13/5 71/15/5 72/16/5
f 73/17/5 74/18/5 75/19/5
f 73/17/5 75/19/5 76/20/5
# 38 triangles in group

# 38 triangles total

