# Wavefront OBJ exported by MilkShape 3D

mtllib rus_build_9et_02a_LOD2.mtl

v -24.000000 84.000000 16.000000
v -24.000000 84.000000 -16.000000
v -65.000000 84.000000 -16.000000
v -65.000000 84.000000 16.000000
v -65.000000 84.000000 16.000000
v -65.000000 44.000000 16.000000
v -65.000000 44.000000 16.000000
v -65.000000 0.000000 16.000000
v -65.000000 44.000000 -16.000000
v -65.000000 84.000000 -16.000000
v -65.000000 0.000000 -16.000000
v -65.000000 44.000000 -16.000000
v -65.000000 84.000000 16.000000
v 0.000000 84.000000 16.000000
v -65.000000 44.000000 16.000000
v 0.000000 44.000000 16.000000
v -65.000000 44.000000 16.000000
v 0.000000 44.000000 16.000000
v -65.000000 0.000000 16.000000
v 0.000000 0.000000 16.000000
v 65.000000 84.000000 16.000000
v 0.000000 84.000000 16.000000
v 65.000000 44.000000 16.000000
v 0.000000 44.000000 16.000000
v 65.000000 44.000000 16.000000
v 0.000000 44.000000 16.000000
v 65.000000 0.000000 16.000000
v 0.000000 0.000000 16.000000
v 0.000000 84.000000 -16.000000
v -65.000000 84.000000 -16.000000
v 0.000000 44.000000 -16.000000
v -65.000000 44.000000 -16.000000
v 0.000000 44.000000 -16.000000
v -65.000000 44.000000 -16.000000
v 0.000000 0.000000 -16.000000
v -65.000000 0.000000 -16.000000
v 0.000000 84.000000 -16.000000
v 65.000000 84.000000 -16.000000
v 0.000000 44.000000 -16.000000
v 65.000000 44.000000 -16.000000
v 0.000000 44.000000 -16.000000
v 65.000000 44.000000 -16.000000
v 0.000000 0.000000 -16.000000
v 65.000000 0.000000 -16.000000
v 65.000000 84.000000 -16.000000
v 65.000000 44.000000 -16.000000
v 65.000000 44.000000 -16.000000
v 65.000000 0.000000 -16.000000
v 65.000000 44.000000 16.000000
v 65.000000 84.000000 16.000000
v 65.000000 0.000000 16.000000
v 65.000000 44.000000 16.000000
v 24.000000 84.000000 -16.000000
v 24.000000 84.000000 16.000000
v 65.000000 84.000000 16.000000
v 65.000000 84.000000 -16.000000
v 24.000000 84.000000 16.000000
v -24.000000 84.000000 16.000000
v 24.000000 84.000000 -16.000000
v -24.000000 84.000000 -16.000000
# 60 vertices

vt 0.843750 0.125000
vt 0.843750 0.000000
vt 1.000000 0.000000
vt 1.000000 0.125000
vt 0.435608 0.796875
vt 0.435608 0.640625
vt 0.564395 0.640625
vt 0.564395 0.796875
vt 0.435608 0.765625
vt 0.435608 0.593750
vt 0.564395 0.593750
vt 0.564395 0.765625
vt 0.562500 0.796875
vt 0.562500 0.640625
vt 0.812500 0.640625
vt 0.812500 0.796875
vt 0.562500 0.765625
vt 0.562500 0.593750
vt 0.812500 0.593750
vt 0.812500 0.765625
vt 0.187500 0.796875
vt 0.187500 0.640625
vt 0.437500 0.640625
vt 0.437500 0.796875
vt 0.187500 0.765625
vt 0.187500 0.593750
vt 0.437500 0.593750
vt 0.437500 0.765625
vt 0.796875 0.125000
vt 0.796875 0.000000
vt 0.984375 0.000000
vt 0.984375 0.125000
# 32 texture coordinates

vn 0.000000 1.000000 0.000000
vn -1.000000 0.000000 0.000000
vn 0.000000 0.000000 1.000000
vn 0.000000 0.000000 -1.000000
vn 1.000000 0.000000 0.000000
# 5 normals

g Regroup41
usemtl rus_build_LOD_02
s 1
f 1/1/1 2/2/1 3/3/1
f 1/1/1 3/3/1 4/4/1
f 10/5/2 9/6/2 6/7/2
f 10/5/2 6/7/2 5/8/2
f 12/9/2 11/10/2 8/11/2
f 12/9/2 8/11/2 7/12/2
f 13/13/3 15/14/3 16/15/3
f 13/13/3 16/15/3 14/16/3
f 17/17/3 19/18/3 20/19/3
f 17/17/3 20/19/3 18/20/3
f 24/15/3 23/14/3 21/13/3
f 22/16/3 24/15/3 21/13/3
f 28/19/3 27/18/3 25/17/3
f 26/20/3 28/19/3 25/17/3
f 29/21/4 31/22/4 32/23/4
f 29/21/4 32/23/4 30/24/4
f 33/25/4 35/26/4 36/27/4
f 33/25/4 36/27/4 34/28/4
f 40/23/4 39/22/4 37/21/4
f 38/24/4 40/23/4 37/21/4
f 44/27/4 43/26/4 41/25/4
f 42/28/4 44/27/4 41/25/4
f 50/5/5 49/6/5 46/7/5
f 50/5/5 46/7/5 45/8/5
f 52/9/5 51/10/5 48/11/5
f 52/9/5 48/11/5 47/12/5
f 53/1/1 54/2/1 55/3/1
f 53/1/1 55/3/1 56/4/1
f 57/29/1 59/30/1 60/31/1
f 57/29/1 60/31/1 58/32/1
# 30 triangles in group

# 30 triangles total

