# Wavefront OBJ exported by MilkShape 3D

mtllib rus_build_9et_01_LOD1.mtl

v 11.000000 84.000000 16.000000
v 11.000000 84.000000 -16.000000
v -30.000000 84.000000 -16.000000
v -30.000000 84.000000 16.000000
v 45.000000 84.000000 24.000000
v 45.000000 44.000000 24.000000
v 45.000000 44.000000 -24.000000
v 45.000000 84.000000 -24.000000
v 45.000000 44.000000 24.000000
v 45.000000 0.000000 24.000000
v 45.000000 0.000000 -24.000000
v 45.000000 44.000000 -24.000000
v 45.000000 84.000000 -24.000000
v 45.000000 44.000000 -24.000000
v 11.000000 44.000000 -24.000000
v 11.000000 84.000000 -24.000000
v 45.000000 44.000000 -24.000000
v 45.000000 0.000000 -24.000000
v 11.000000 0.000000 -24.000000
v 11.000000 44.000000 -24.000000
v -4.000000 76.000000 19.000000
v -4.000000 76.000000 16.000000
v -22.000000 76.000000 16.000000
v -22.000000 76.000000 19.000000
v -22.000000 4.000000 19.000000
v -22.000000 4.000000 16.000000
v -4.000000 4.000000 16.000000
v -4.000000 4.000000 19.000000
v -4.000000 76.000000 -16.000000
v -4.000000 76.000000 -19.000000
v -22.000000 76.000000 -19.000000
v -22.000000 76.000000 -16.000000
v -22.000000 4.000000 -16.000000
v -22.000000 4.000000 -19.000000
v -4.000000 4.000000 -19.000000
v -4.000000 4.000000 -16.000000
v 48.000000 76.000000 -17.000000
v 45.000000 76.000000 -17.000000
v 45.000000 76.000000 -7.000000
v 48.000000 76.000000 -7.000000
v 48.000000 4.000000 -7.000000
v 45.000000 4.000000 -7.000000
v 45.000000 4.000000 -17.000000
v 48.000000 4.000000 -17.000000
v 48.000000 76.000000 7.000000
v 45.000000 76.000000 7.000000
v 45.000000 76.000000 17.000000
v 48.000000 76.000000 17.000000
v 48.000000 4.000000 17.000000
v 45.000000 4.000000 17.000000
v 45.000000 4.000000 7.000000
v 48.000000 4.000000 7.000000
v -22.000000 84.000000 16.000000
v -22.000000 84.000000 19.000000
v -22.000000 0.000000 19.000000
v -22.000000 0.000000 16.000000
v -22.000000 0.000000 16.000000
v -22.000000 0.000000 19.000000
v -22.000000 84.000000 19.000000
v -22.000000 84.000000 16.000000
v -4.000000 84.000000 16.000000
v -4.000000 84.000000 19.000000
v -4.000000 0.000000 19.000000
v -4.000000 0.000000 16.000000
v -4.000000 0.000000 16.000000
v -4.000000 0.000000 19.000000
v -4.000000 84.000000 19.000000
v -4.000000 84.000000 16.000000
v -22.000000 84.000000 -19.000000
v -22.000000 84.000000 -16.000000
v -22.000000 0.000000 -16.000000
v -22.000000 0.000000 -19.000000
v -22.000000 0.000000 -19.000000
v -22.000000 0.000000 -16.000000
v -22.000000 84.000000 -16.000000
v -22.000000 84.000000 -19.000000
v -4.000000 84.000000 -19.000000
v -4.000000 84.000000 -16.000000
v -4.000000 0.000000 -16.000000
v -4.000000 0.000000 -19.000000
v -4.000000 0.000000 -19.000000
v -4.000000 0.000000 -16.000000
v -4.000000 84.000000 -16.000000
v -4.000000 84.000000 -19.000000
v 48.000000 84.000000 -17.000000
v 45.000000 84.000000 -17.000000
v 45.000000 0.000000 -17.000000
v 48.000000 0.000000 -17.000000
v 48.000000 0.000000 -17.000000
v 45.000000 0.000000 -17.000000
v 45.000000 84.000000 -17.000000
v 48.000000 84.000000 -17.000000
v 48.000000 84.000000 -7.000000
v 45.000000 84.000000 -7.000000
v 45.000000 0.000000 -7.000000
v 48.000000 0.000000 -7.000000
v 48.000000 0.000000 -7.000000
v 45.000000 0.000000 -7.000000
v 45.000000 84.000000 -7.000000
v 48.000000 84.000000 -7.000000
v 48.000000 84.000000 7.000000
v 45.000000 84.000000 7.000000
v 45.000000 0.000000 7.000000
v 48.000000 0.000000 7.000000
v 48.000000 0.000000 7.000000
v 45.000000 0.000000 7.000000
v 45.000000 84.000000 7.000000
v 48.000000 84.000000 7.000000
v 48.000000 84.000000 17.000000
v 45.000000 84.000000 17.000000
v 45.000000 0.000000 17.000000
v 48.000000 0.000000 17.000000
v 48.000000 0.000000 17.000000
v 45.000000 0.000000 17.000000
v 45.000000 84.000000 17.000000
v 48.000000 84.000000 17.000000
v -22.000000 87.000000 12.000000
v -22.000000 83.000000 12.000000
v -18.000000 83.000000 12.000000
v -18.000000 87.000000 12.000000
v -18.000000 83.000000 8.000000
v -18.000000 87.000000 8.000000
v -22.000000 87.000000 12.000000
v -18.000000 87.000000 12.000000
v -18.000000 87.000000 8.000000
v -22.000000 87.000000 8.000000
v -18.000000 87.000000 8.000000
v -18.000000 83.000000 8.000000
v -22.000000 83.000000 8.000000
v -22.000000 87.000000 8.000000
v -22.000000 83.000000 12.000000
v -22.000000 87.000000 -8.000000
v -22.000000 83.000000 -8.000000
v -18.000000 83.000000 -8.000000
v -18.000000 87.000000 -8.000000
v -18.000000 83.000000 -12.000000
v -18.000000 87.000000 -12.000000
v -22.000000 87.000000 -8.000000
v -18.000000 87.000000 -8.000000
v -18.000000 87.000000 -12.000000
v -22.000000 87.000000 -12.000000
v -18.000000 87.000000 -12.000000
v -18.000000 83.000000 -12.000000
v -22.000000 83.000000 -12.000000
v -22.000000 87.000000 -12.000000
v -22.000000 83.000000 -8.000000
v 15.000000 87.000000 12.000000
v 15.000000 83.000000 12.000000
v 15.000000 83.000000 16.000000
v 15.000000 87.000000 16.000000
v 19.000000 83.000000 16.000000
v 19.000000 87.000000 16.000000
v 15.000000 87.000000 12.000000
v 15.000000 87.000000 16.000000
v 19.000000 87.000000 16.000000
v 19.000000 87.000000 12.000000
v 19.000000 87.000000 16.000000
v 19.000000 83.000000 16.000000
v 19.000000 83.000000 12.000000
v 19.000000 87.000000 12.000000
v 15.000000 83.000000 12.000000
v 37.000000 87.000000 12.000000
v 37.000000 83.000000 12.000000
v 37.000000 83.000000 16.000000
v 37.000000 87.000000 16.000000
v 41.000000 83.000000 16.000000
v 41.000000 87.000000 16.000000
v 37.000000 87.000000 12.000000
v 37.000000 87.000000 16.000000
v 41.000000 87.000000 16.000000
v 41.000000 87.000000 12.000000
v 41.000000 87.000000 16.000000
v 41.000000 83.000000 16.000000
v 41.000000 83.000000 12.000000
v 41.000000 87.000000 12.000000
v 37.000000 83.000000 12.000000
v 15.000000 87.000000 -16.000000
v 15.000000 83.000000 -16.000000
v 15.000000 83.000000 -12.000000
v 15.000000 87.000000 -12.000000
v 19.000000 83.000000 -12.000000
v 19.000000 87.000000 -12.000000
v 15.000000 87.000000 -16.000000
v 15.000000 87.000000 -12.000000
v 19.000000 87.000000 -12.000000
v 19.000000 87.000000 -16.000000
v 19.000000 87.000000 -12.000000
v 19.000000 83.000000 -12.000000
v 19.000000 83.000000 -16.000000
v 19.000000 87.000000 -16.000000
v 15.000000 83.000000 -16.000000
v 37.000000 87.000000 -16.000000
v 37.000000 83.000000 -16.000000
v 37.000000 83.000000 -12.000000
v 37.000000 87.000000 -12.000000
v 41.000000 83.000000 -12.000000
v 41.000000 87.000000 -12.000000
v 37.000000 87.000000 -16.000000
v 37.000000 87.000000 -12.000000
v 41.000000 87.000000 -12.000000
v 41.000000 87.000000 -16.000000
v 41.000000 87.000000 -12.000000
v 41.000000 83.000000 -12.000000
v 41.000000 83.000000 -16.000000
v 41.000000 87.000000 -16.000000
v 37.000000 83.000000 -16.000000
v 11.000000 44.000000 16.000000
v 11.000000 0.000000 16.000000
v 11.000000 0.000000 24.000000
v 11.000000 44.000000 24.000000
v 11.000000 44.000000 -24.000000
v 11.000000 0.000000 -24.000000
v 11.000000 0.000000 -16.000000
v 11.000000 44.000000 -16.000000
v 11.000000 84.000000 16.000000
v 11.000000 44.000000 16.000000
v 11.000000 44.000000 24.000000
v 11.000000 84.000000 24.000000
v 11.000000 84.000000 -24.000000
v 11.000000 44.000000 -24.000000
v 11.000000 44.000000 -16.000000
v 11.000000 84.000000 -16.000000
v 11.000000 8.000000 18.000000
v 11.000000 8.000000 16.000000
v -4.000000 8.000000 16.000000
v -4.000000 8.000000 18.000000
v -4.000000 8.000000 18.000000
v -4.000000 8.000000 16.000000
v 11.000000 8.000000 16.000000
v 11.000000 8.000000 18.000000
v 45.000000 84.000000 0.000000
v 11.000000 84.000000 0.000000
v 11.000000 84.000000 24.000000
v 45.000000 84.000000 24.000000
v 11.000000 84.000000 0.000000
v 45.000000 84.000000 0.000000
v 45.000000 84.000000 -24.000000
v 11.000000 84.000000 -24.000000
v -30.000000 84.000000 16.000000
v 11.000000 84.000000 16.000000
v -30.000000 44.000000 16.000000
v 11.000000 44.000000 16.000000
v -30.000000 44.000000 16.000000
v 11.000000 44.000000 16.000000
v -30.000000 0.000000 16.000000
v 11.000000 0.000000 16.000000
v 11.000000 84.000000 -16.000000
v -30.000000 84.000000 -16.000000
v 11.000000 44.000000 -16.000000
v -30.000000 44.000000 -16.000000
v 11.000000 44.000000 -16.000000
v -30.000000 44.000000 -16.000000
v 11.000000 0.000000 -16.000000
v -30.000000 0.000000 -16.000000
v 48.000000 76.000000 17.000000
v 48.000000 76.000000 7.000000
v 48.000000 4.000000 17.000000
v 48.000000 4.000000 7.000000
v 48.000000 76.000000 -7.000000
v 48.000000 76.000000 -17.000000
v 48.000000 4.000000 -7.000000
v 48.000000 4.000000 -17.000000
v -22.000000 76.000000 19.000000
v -4.000000 76.000000 19.000000
v -22.000000 4.000000 19.000000
v -4.000000 4.000000 19.000000
v -4.000000 76.000000 -19.000000
v -22.000000 76.000000 -19.000000
v -4.000000 4.000000 -19.000000
v -22.000000 4.000000 -19.000000
v -30.000000 84.000000 16.000000
v -30.000000 44.000000 16.000000
v -30.000000 44.000000 16.000000
v -30.000000 0.000000 16.000000
v -30.000000 44.000000 -16.000000
v -30.000000 84.000000 -16.000000
v -30.000000 0.000000 -16.000000
v -30.000000 44.000000 -16.000000
v 11.000000 84.000000 24.000000
v 11.000000 44.000000 24.000000
v 45.000000 44.000000 24.000000
v 45.000000 84.000000 24.000000
v 11.000000 44.000000 24.000000
v 11.000000 0.000000 24.000000
v 45.000000 0.000000 24.000000
v 45.000000 44.000000 24.000000
# 286 vertices

vt 0.843750 0.125000
vt 0.843750 0.000000
vt 1.000000 0.000000
vt 1.000000 0.125000
vt 0.000000 1.000000
vt 0.000000 0.843750
vt 0.187500 0.843750
vt 0.187500 1.000000
vt 0.000000 0.968750
vt 0.000000 0.796875
vt 0.187500 0.796875
vt 0.187500 0.968750
vt 0.432943 0.999874
vt 0.432943 0.843895
vt 0.565104 0.843895
vt 0.565104 0.999874
vt 0.432943 0.968584
vt 0.432943 0.796942
vt 0.565104 0.796942
vt 0.565104 0.968584
vt 0.781317 0.143087
vt 0.781317 0.154661
vt 0.722712 0.154661
vt 0.722712 0.143087
vt 0.752507 0.154168
vt 0.752507 0.142595
vt 0.998698 0.144531
vt 0.998698 0.154622
vt 0.688802 0.154622
vt 0.688802 0.144531
vt 0.859375 0.187500
vt 0.859375 0.171875
vt 0.875000 0.171875
vt 0.875000 0.187500
vt 0.890625 0.171875
vt 0.890625 0.187500
vt 0.906250 0.171875
vt 0.906250 0.187500
vt 0.938700 0.968750
vt 0.938700 0.796875
vt 0.969950 0.796875
vt 0.969950 0.968750
vt 0.938700 1.000000
vt 0.938700 0.843750
vt 0.969950 0.843750
vt 0.969950 1.000000
vt 0.906250 0.125000
vt 0.906250 0.000000
vt 0.562500 1.000000
vt 0.562500 0.843750
vt 0.718750 0.843750
vt 0.718750 1.000000
vt 0.562500 0.968750
vt 0.562500 0.796875
vt 0.718750 0.796875
vt 0.718750 0.968750
vt 0.281250 1.000000
vt 0.281250 0.843750
vt 0.437500 0.843750
vt 0.437500 1.000000
vt 0.281250 0.968750
vt 0.281250 0.796875
vt 0.437500 0.796875
vt 0.437500 0.968750
vt 0.656250 0.187500
vt 0.375000 0.187500
vt 0.375000 0.156250
vt 0.656250 0.156250
vt 0.375000 0.125000
vt 0.656250 0.125000
vt 0.000000 0.359375
vt 0.000000 0.078125
vt 0.062500 0.078125
vt 0.062500 0.359375
vt 0.125000 0.078125
vt 0.125000 0.359375
vt 0.435608 1.000000
vt 0.435608 0.843750
vt 0.435608 0.968750
vt 0.435608 0.796875
# 80 texture coordinates

vn 0.000000 1.000000 0.000000
vn 1.000000 0.000000 0.000000
vn 0.000000 0.000000 -1.000000
vn 0.000000 -1.000000 0.000000
vn -1.000000 0.000000 0.000000
vn 0.000000 0.000000 1.000000
vn 0.447214 0.000000 0.894427
vn 0.894427 0.000000 0.447214
vn -0.447214 0.894427 0.000000
vn -0.447214 0.000000 -0.894427
vn -0.894427 0.000000 -0.447214
vn -0.894427 0.000000 0.447214
vn -0.447214 0.000000 0.894427
vn 0.000000 0.894427 -0.447214
vn 0.894427 0.000000 -0.447214
vn 0.447214 0.000000 -0.894427
# 16 normals

g Regroup40
usemtl rus_build_LOD_02
s 1
f 1/1/1 2/2/1 3/3/1
f 1/1/1 3/3/1 4/4/1
f 5/5/2 6/6/2 7/7/2
f 5/5/2 7/7/2 8/8/2
f 9/9/2 10/10/2 11/11/2
f 9/9/2 11/11/2 12/12/2
f 13/13/3 14/14/3 15/15/3
f 13/13/3 15/15/3 16/16/3
f 17/17/3 18/18/3 19/19/3
f 17/17/3 19/19/3 20/20/3
f 21/21/1 22/22/1 23/23/1
f 21/21/1 23/23/1 24/24/1
f 25/21/4 26/22/4 27/23/4
f 25/21/4 27/23/4 28/24/4
f 29/21/1 30/22/1 31/23/1
f 29/21/1 31/23/1 32/24/1
f 33/21/4 34/22/4 35/23/4
f 33/21/4 35/23/4 36/24/4
f 37/25/1 38/23/1 39/24/1
f 37/25/1 39/24/1 40/26/1
f 41/26/4 42/24/4 43/23/4
f 41/26/4 43/23/4 44/25/4
f 45/25/1 46/23/1 47/24/1
f 45/25/1 47/24/1 48/26/1
f 49/26/4 50/24/4 51/23/4
f 49/26/4 51/23/4 52/25/4
f 53/27/2 54/28/2 55/29/2
f 53/27/2 55/29/2 56/30/2
f 57/27/5 58/28/5 59/29/5
f 57/27/5 59/29/5 60/30/5
f 61/27/2 62/28/2 63/29/2
f 61/27/2 63/29/2 64/30/2
f 65/27/5 66/28/5 67/29/5
f 65/27/5 67/29/5 68/30/5
f 69/27/2 70/28/2 71/29/2
f 69/27/2 71/29/2 72/30/2
f 73/27/5 74/28/5 75/29/5
f 73/27/5 75/29/5 76/30/5
f 77/27/2 78/28/2 79/29/2
f 77/27/2 79/29/2 80/30/2
f 81/27/5 82/28/5 83/29/5
f 81/27/5 83/29/5 84/30/5
f 85/27/6 86/28/6 87/29/6
f 85/27/6 87/29/6 88/30/6
f 89/27/3 90/28/3 91/29/3
f 89/27/3 91/29/3 92/30/3
f 93/27/6 94/28/6 95/29/6
f 93/27/6 95/29/6 96/30/6
f 97/27/3 98/28/3 99/29/3
f 97/27/3 99/29/3 100/30/3
f 101/27/6 102/28/6 103/29/6
f 101/27/6 103/29/6 104/30/6
f 105/27/3 106/28/3 107/29/3
f 105/27/3 107/29/3 108/30/3
f 109/27/6 110/28/6 111/29/6
f 109/27/6 111/29/6 112/30/6
f 113/27/3 114/28/3 115/29/3
f 113/27/3 115/29/3 116/30/3
f 117/31/6 118/32/6 119/33/7
f 117/31/6 119/33/7 120/34/8
f 120/34/8 119/33/7 121/35/2
f 120/34/8 121/35/2 122/36/2
f 123/36/9 124/35/1 125/37/1
f 123/36/9 125/37/1 126/38/1
f 127/31/3 128/32/3 129/33/10
f 127/31/3 129/33/10 130/34/11
f 130/34/11 129/33/10 131/35/5
f 130/34/11 131/35/5 123/36/9
f 132/31/6 133/32/6 134/33/7
f 132/31/6 134/33/7 135/34/8
f 135/34/8 134/33/7 136/35/2
f 135/34/8 136/35/2 137/36/2
f 138/36/9 139/35/1 140/37/1
f 138/36/9 140/37/1 141/38/1
f 142/31/3 143/32/3 144/33/10
f 142/31/3 144/33/10 145/34/11
f 145/34/11 144/33/10 146/35/5
f 145/34/11 146/35/5 138/36/9
f 147/31/5 148/32/5 149/33/12
f 147/31/5 149/33/12 150/34/13
f 150/34/13 149/33/12 151/35/6
f 150/34/13 151/35/6 152/36/6
f 153/36/14 154/35/1 155/37/1
f 153/36/14 155/37/1 156/38/1
f 157/31/2 158/32/2 159/33/15
f 157/31/2 159/33/15 160/34/16
f 160/34/16 159/33/15 161/35/3
f 160/34/16 161/35/3 153/36/14
f 162/31/5 163/32/5 164/33/12
f 162/31/5 164/33/12 165/34/13
f 165/34/13 164/33/12 166/35/6
f 165/34/13 166/35/6 167/36/6
f 168/36/14 169/35/1 170/37/1
f 168/36/14 170/37/1 171/38/1
f 172/31/2 173/32/2 174/33/15
f 172/31/2 174/33/15 175/34/16
f 175/34/16 174/33/15 176/35/3
f 175/34/16 176/35/3 168/36/14
f 177/31/5 178/32/5 179/33/12
f 177/31/5 179/33/12 180/34/13
f 180/34/13 179/33/12 181/35/6
f 180/34/13 181/35/6 182/36/6
f 183/36/14 184/35/1 185/37/1
f 183/36/14 185/37/1 186/38/1
f 187/31/2 188/32/2 189/33/15
f 187/31/2 189/33/15 190/34/16
f 190/34/16 189/33/15 191/35/3
f 190/34/16 191/35/3 183/36/14
f 192/31/5 193/32/5 194/33/12
f 192/31/5 194/33/12 195/34/13
f 195/34/13 194/33/12 196/35/6
f 195/34/13 196/35/6 197/36/6
f 198/36/14 199/35/1 200/37/1
f 198/36/14 200/37/1 201/38/1
f 202/31/2 203/32/2 204/33/15
f 202/31/2 204/33/15 205/34/16
f 205/34/16 204/33/15 206/35/3
f 205/34/16 206/35/3 198/36/14
f 207/39/5 208/40/5 209/41/5
f 207/39/5 209/41/5 210/42/5
f 211/39/5 212/40/5 213/41/5
f 211/39/5 213/41/5 214/42/5
f 215/43/5 216/44/5 217/45/5
f 215/43/5 217/45/5 218/46/5
f 219/43/5 220/44/5 221/45/5
f 219/43/5 221/45/5 222/46/5
f 223/21/1 224/22/1 225/23/1
f 223/21/1 225/23/1 226/24/1
f 227/21/4 228/22/4 229/23/4
f 227/21/4 229/23/4 230/24/4
f 231/47/1 232/48/1 233/3/1
f 231/47/1 233/3/1 234/4/1
f 235/47/1 236/48/1 237/3/1
f 235/47/1 237/3/1 238/4/1
f 239/49/6 241/50/6 242/51/6
f 239/49/6 242/51/6 240/52/6
f 243/53/6 245/54/6 246/55/6
f 243/53/6 246/55/6 244/56/6
f 247/57/3 249/58/3 250/59/3
f 247/57/3 250/59/3 248/60/3
f 251/61/3 253/62/3 254/63/3
f 251/61/3 254/63/3 252/64/3
f 255/65/2 257/66/2 258/67/2
f 255/65/2 258/67/2 256/68/2
f 259/68/2 261/67/2 262/69/2
f 259/68/2 262/69/2 260/70/2
f 263/71/6 265/72/6 266/73/6
f 263/71/6 266/73/6 264/74/6
f 267/74/3 269/73/3 270/75/3
f 267/74/3 270/75/3 268/76/3
f 276/77/5 275/78/5 272/15/5
f 276/77/5 272/15/5 271/16/5
f 278/79/5 277/80/5 274/19/5
f 278/79/5 274/19/5 273/20/5
f 279/13/6 280/14/6 281/15/6
f 279/13/6 281/15/6 282/16/6
f 283/17/6 284/18/6 285/19/6
f 283/17/6 285/19/6 286/20/6
# 158 triangles in group

# 158 triangles total

