# Wavefront OBJ exported by MilkShape 3D

mtllib rus_build_5et_03e_LOD2.mtl

v -41.000000 49.000000 0.000000
v -59.000000 44.500000 0.000000
v -59.000000 44.500000 -18.000000
v -41.000000 49.000000 0.000000
v -59.000000 44.500000 0.000000
v -59.000000 44.500000 18.000000
v 41.000000 49.000000 0.000000
v 59.000000 44.500000 0.000000
v 59.000000 44.500000 18.000000
v 41.000000 49.000000 0.000000
v 59.000000 44.500000 0.000000
v 59.000000 44.500000 -18.000000
v 59.000000 44.500000 18.000000
v 41.000000 44.500000 18.000000
v -41.000000 44.500000 18.000000
v 41.000000 49.000000 0.000000
v -41.000000 49.000000 0.000000
v -59.000000 44.500000 18.000000
v -59.000000 44.500000 -18.000000
v -41.000000 44.500000 -18.000000
v 41.000000 44.500000 -18.000000
v -41.000000 49.000000 0.000000
v 41.000000 49.000000 0.000000
v 59.000000 44.500000 -18.000000
v 0.000003 45.000000 16.000000
v 57.000000 45.000000 15.999989
v 0.000003 0.000000 16.000000
v 57.000000 0.000000 15.999989
v 0.000003 45.000000 16.000000
v -57.000000 45.000000 16.000008
v 0.000003 0.000000 16.000000
v -57.000000 0.000000 16.000008
v -57.000000 45.000000 -15.999989
v -57.000000 45.000000 16.000008
v -57.000000 0.000000 -15.999989
v -57.000000 0.000000 16.000008
v 57.000000 45.000000 15.999989
v 57.000000 45.000000 -16.000008
v 57.000000 0.000000 15.999989
v 57.000000 0.000000 -16.000008
v -41.000000 49.000000 0.000000
v -59.000000 44.500000 0.000000
v -59.000000 44.500000 -18.000000
v -41.000000 49.000000 0.000000
v -59.000000 44.500000 0.000000
v -59.000000 44.500000 18.000000
v 41.000000 49.000000 0.000000
v 59.000000 44.500000 0.000000
v 59.000000 44.500000 18.000000
v 41.000000 49.000000 0.000000
v 59.000000 44.500000 0.000000
v 59.000000 44.500000 -18.000000
v 59.000000 44.500000 18.000000
v 41.000000 44.500000 18.000000
v -41.000000 44.500000 18.000000
v 41.000000 49.000000 0.000000
v -41.000000 49.000000 0.000000
v -59.000000 44.500000 18.000000
v -59.000000 44.500000 -18.000000
v -41.000000 44.500000 -18.000000
v 41.000000 44.500000 -18.000000
v -41.000000 49.000000 0.000000
v 41.000000 49.000000 0.000000
v 59.000000 44.500000 -18.000000
v 0.000003 45.000000 16.000000
v 57.000000 45.000000 15.999989
v 0.000003 0.000000 16.000000
v 57.000000 0.000000 15.999989
v 0.000003 45.000000 16.000000
v -57.000000 45.000000 16.000008
v 0.000003 0.000000 16.000000
v -57.000000 0.000000 16.000008
v -57.000000 45.000000 -15.999989
v -57.000000 45.000000 16.000008
v -57.000000 0.000000 -15.999989
v -57.000000 0.000000 16.000008
v 57.000000 45.000000 15.999989
v 57.000000 45.000000 -16.000008
v 57.000000 0.000000 15.999989
v 57.000000 0.000000 -16.000008
v 57.000000 45.000000 -16.000000
v 0.000000 45.000000 -16.000000
v 57.000000 0.000000 -16.000000
v 0.000000 0.000000 -16.000000
v -57.000000 45.000000 -16.000000
v 0.000000 45.000000 -16.000000
v -57.000000 0.000000 -16.000000
v 0.000000 0.000000 -16.000000
# 88 vertices

vt 0.932966 0.781250
vt 1.000000 0.734375
vt 1.000000 0.781250
vt 0.933263 0.734375
vt 0.629237 0.781250
vt 0.629237 0.734375
vt 0.562500 0.734375
vt 0.343750 0.343750
vt 0.343750 0.171875
vt 0.562500 0.171875
vt 0.562500 0.343750
vt 0.218750 0.343750
vt 0.218750 0.171875
vt 0.000000 0.343750
vt 0.000000 0.171875
# 15 texture coordinates

vn -0.242536 0.970142 0.000000
vn 0.242536 0.970142 0.000000
vn 0.000000 0.970142 0.242536
vn 0.000000 0.970142 -0.242536
vn 0.000000 0.000000 1.000000
vn -1.000000 0.000000 0.000000
vn 1.000000 0.000000 0.000000
vn 0.000000 0.000000 -1.000000
# 8 normals

g Regroup02
usemtl Material03
s 1
f 1/1/1 3/2/1 2/3/1
f 5/3/1 6/2/1 4/1/1
f 7/1/2 9/2/2 8/3/2
f 11/3/2 12/2/2 10/1/2
f 13/2/3 16/1/3 14/4/3
f 16/1/3 17/5/3 15/6/3
f 16/1/3 15/6/3 14/4/3
f 15/6/3 17/5/3 18/7/3
f 19/2/4 22/1/4 20/4/4
f 22/1/4 23/5/4 21/6/4
f 22/1/4 21/6/4 20/4/4
f 21/6/4 23/5/4 24/7/4
f 25/8/5 27/9/5 28/10/5
f 25/8/5 28/10/5 26/11/5
f 32/10/5 31/9/5 29/8/5
f 30/11/5 32/10/5 29/8/5
f 33/12/6 35/13/6 36/9/6
f 33/12/6 36/9/6 34/8/6
f 37/12/7 39/13/7 40/9/7
f 37/12/7 40/9/7 38/8/7
f 41/1/1 43/2/1 42/3/1
f 45/3/1 46/2/1 44/1/1
f 47/1/2 49/2/2 48/3/2
f 51/3/2 52/2/2 50/1/2
f 53/2/3 56/1/3 54/4/3
f 56/1/3 57/5/3 55/6/3
f 56/1/3 55/6/3 54/4/3
f 55/6/3 57/5/3 58/7/3
f 59/2/4 62/1/4 60/4/4
f 62/1/4 63/5/4 61/6/4
f 62/1/4 61/6/4 60/4/4
f 61/6/4 63/5/4 64/7/4
f 65/8/5 67/9/5 68/10/5
f 65/8/5 68/10/5 66/11/5
f 72/10/5 71/9/5 69/8/5
f 70/11/5 72/10/5 69/8/5
f 73/12/6 75/13/6 76/9/6
f 73/12/6 76/9/6 74/8/6
f 77/12/7 79/13/7 80/9/7
f 77/12/7 80/9/7 78/8/7
f 81/14/8 83/15/8 84/13/8
f 81/14/8 84/13/8 82/12/8
f 88/13/8 87/15/8 85/14/8
f 86/12/8 88/13/8 85/14/8
# 44 triangles in group

# 44 triangles total

