# Wavefront OBJ exported by MilkShape 3D

mtllib rus_build_5et_01_LOD2.mtl

v -41.000000 49.000000 0.000000
v -59.000000 44.500000 0.000000
v -59.000000 44.500000 -18.000000
v -41.000000 49.000000 0.000000
v -59.000000 44.500000 0.000000
v -59.000000 44.500000 18.000000
v 41.000000 49.000000 0.000000
v 59.000000 44.500000 0.000000
v 59.000000 44.500000 18.000000
v 41.000000 49.000000 0.000000
v 59.000000 44.500000 0.000000
v 59.000000 44.500000 -18.000000
v 59.000000 44.500000 18.000000
v 41.000000 44.500000 18.000000
v -41.000000 44.500000 18.000000
v 41.000000 49.000000 0.000000
v -41.000000 49.000000 0.000000
v -59.000000 44.500000 18.000000
v -59.000000 44.500000 -18.000000
v -41.000000 44.500000 -18.000000
v 41.000000 44.500000 -18.000000
v -41.000000 49.000000 0.000000
v 41.000000 49.000000 0.000000
v 59.000000 44.500000 -18.000000
v 57.000000 45.000000 -16.000000
v 0.000000 45.000000 -16.000000
v 57.000000 0.000000 -16.000000
v 0.000000 0.000000 -16.000000
v -57.000000 45.000000 -16.000000
v 0.000000 45.000000 -16.000000
v -57.000000 0.000000 -16.000000
v 0.000000 0.000000 -16.000000
v 0.000000 45.000000 16.000000
v 57.000000 45.000000 16.000000
v 0.000000 0.000000 16.000000
v 57.000000 0.000000 16.000000
v 0.000000 45.000000 16.000000
v -57.000000 45.000000 16.000000
v 0.000000 0.000000 16.000000
v -57.000000 0.000000 16.000000
v -57.000000 45.000000 -16.000000
v -57.000000 45.000000 16.000000
v -57.000000 0.000000 -16.000000
v -57.000000 0.000000 16.000000
v 57.000000 45.000000 16.000000
v 57.000000 45.000000 -16.000000
v 57.000000 0.000000 16.000000
v 57.000000 0.000000 -16.000000
v 56.000000 44.000000 16.000000
v 56.000000 12.000000 16.000000
v 56.000000 44.000000 19.000000
v 56.000000 12.000000 19.000000
# 52 vertices

vt 0.937500 0.046875
vt 1.000000 0.000000
vt 1.000000 0.046875
vt 0.933263 0.046875
vt 0.933263 0.000000
vt 0.629237 0.046875
vt 0.629237 0.000000
vt 0.562500 0.000000
vt 0.000000 0.859375
vt 0.000000 0.687500
vt 0.218750 0.687500
vt 0.218750 0.859375
vt 0.343750 0.859375
vt 0.343750 0.687500
vt 0.562500 0.687500
vt 0.562500 0.859375
vt 0.812174 0.312500
vt 0.812174 0.296875
vt 0.937174 0.296875
vt 0.937174 0.312500
# 20 texture coordinates

vn -0.242536 0.970142 0.000000
vn 0.242536 0.970142 0.000000
vn 0.000000 0.970142 0.242536
vn 0.000000 0.970142 -0.242536
vn 0.000000 0.000000 -1.000000
vn 0.000000 0.000000 1.000000
vn -1.000000 0.000000 0.000000
vn 1.000000 0.000000 0.000000
# 8 normals

g Regroup15
usemtl Material03
s 1
f 1/1/1 3/2/1 2/3/1
f 5/3/1 6/2/1 4/1/1
f 7/1/2 9/2/2 8/3/2
f 11/3/2 12/2/2 10/1/2
f 13/2/3 16/4/3 14/5/3
f 16/4/3 17/6/3 15/7/3
f 16/4/3 15/7/3 14/5/3
f 15/7/3 17/6/3 18/8/3
f 19/2/4 22/4/4 20/5/4
f 22/4/4 23/6/4 21/7/4
f 22/4/4 21/7/4 20/5/4
f 21/7/4 23/6/4 24/8/4
f 25/9/5 27/10/5 28/11/5
f 25/9/5 28/11/5 26/12/5
f 32/11/5 31/10/5 29/9/5
f 30/12/5 32/11/5 29/9/5
f 33/13/6 35/14/6 36/15/6
f 33/13/6 36/15/6 34/16/6
f 40/15/6 39/14/6 37/13/6
f 38/16/6 40/15/6 37/13/6
f 41/12/7 43/11/7 44/14/7
f 41/12/7 44/14/7 42/13/7
f 45/12/8 47/11/8 48/14/8
f 45/12/8 48/14/8 46/13/8
f 49/17/8 51/18/8 52/19/8
f 49/17/8 52/19/8 50/20/8
# 26 triangles in group

# 26 triangles total

