# Wavefront OBJ exported by MilkShape 3D

mtllib rus_build_9et_03b_LOD2.mtl

v 15.000000 84.000000 -16.000000
v -15.000000 84.000000 -16.000000
v 15.000000 0.000000 -16.000000
v -15.000000 0.000000 -16.000000
v -24.000000 84.000000 16.000000
v -24.000000 84.000000 -16.000000
v -65.000000 84.000000 -16.000000
v -65.000000 84.000000 16.000000
v 24.000000 84.000000 -16.000000
v 24.000000 84.000000 16.000000
v 65.000000 84.000000 16.000000
v 65.000000 84.000000 -16.000000
v 24.000000 84.000000 16.000000
v -24.000000 84.000000 16.000000
v 24.000000 84.000000 -16.000000
v -24.000000 84.000000 -16.000000
v -65.000000 84.000000 16.000000
v -15.000000 84.000000 16.000000
v -65.000000 44.000000 16.000000
v -15.000000 44.000000 16.000000
v -65.000000 44.000000 16.000000
v -15.000000 44.000000 16.000000
v -65.000000 0.000000 16.000000
v -15.000000 0.000000 16.000000
v 65.000000 84.000000 16.000000
v 15.000000 84.000000 16.000000
v 65.000000 44.000000 16.000000
v 15.000000 44.000000 16.000000
v 65.000000 44.000000 16.000000
v 15.000000 44.000000 16.000000
v 65.000000 0.000000 16.000000
v 15.000000 0.000000 16.000000
v 65.000000 84.000000 -16.000000
v 15.000000 84.000000 -16.000000
v 65.000000 44.000000 -16.000000
v 15.000000 44.000000 -16.000000
v 65.000000 44.000000 -16.000000
v 15.000000 44.000000 -16.000000
v 65.000000 0.000000 -16.000000
v 15.000000 0.000000 -16.000000
v -65.000000 84.000000 -16.000000
v -15.000000 84.000000 -16.000000
v -65.000000 44.000000 -16.000000
v -15.000000 44.000000 -16.000000
v -65.000000 44.000000 -16.000000
v -15.000000 44.000000 -16.000000
v -65.000000 0.000000 -16.000000
v -15.000000 0.000000 -16.000000
v 65.000000 84.000000 16.000000
v 65.000000 84.000000 -16.000000
v 65.000000 0.000000 16.000000
v 65.000000 0.000000 -16.000000
v -65.000000 84.000000 -16.000000
v -65.000000 84.000000 16.000000
v -65.000000 0.000000 -16.000000
v -65.000000 0.000000 16.000000
v -15.000000 84.000000 16.000000
v 15.000000 84.000000 16.000000
v -15.000000 0.000000 16.000000
v 15.000000 0.000000 16.000000
# 60 vertices

vt 0.251871 0.390602
vt 0.251871 0.062477
vt 0.373158 0.062477
vt 0.373158 0.390602
vt 0.843750 0.125000
vt 0.843750 0.000000
vt 1.000000 0.000000
vt 1.000000 0.125000
vt 0.796875 0.125000
vt 0.796875 0.000000
vt 0.984375 0.000000
vt 0.984375 0.125000
vt 0.812517 0.390602
vt 0.812517 0.234352
vt 1.000017 0.234352
vt 1.000017 0.390602
vt 0.812517 0.359349
vt 0.812517 0.187474
vt 1.000017 0.187474
vt 1.000017 0.359349
vt 0.812517 0.593727
vt 0.812517 0.437477
vt 1.000017 0.437477
vt 1.000017 0.593727
vt 0.812517 0.562474
vt 1.000017 0.562474
vt 0.250000 0.390602
vt 0.250000 0.062477
vt 0.375000 0.062477
vt 0.375000 0.390602
# 30 texture coordinates

vn 0.000000 0.000000 -1.000000
vn 0.000000 1.000000 0.000000
vn 0.000000 0.000000 1.000000
vn 1.000000 0.000000 0.000000
vn -1.000000 0.000000 0.000000
# 5 normals

g Regroup45
usemtl rus_build_LOD_02
s 1
f 1/1/1 3/2/1 4/3/1
f 1/1/1 4/3/1 2/4/1
f 5/5/2 6/6/2 7/7/2
f 5/5/2 7/7/2 8/8/2
f 9/5/2 10/6/2 11/7/2
f 9/5/2 11/7/2 12/8/2
f 13/9/2 15/10/2 16/11/2
f 13/9/2 16/11/2 14/12/2
f 17/13/3 19/14/3 20/15/3
f 17/13/3 20/15/3 18/16/3
f 21/17/3 23/18/3 24/19/3
f 21/17/3 24/19/3 22/20/3
f 28/15/3 27/14/3 25/13/3
f 26/16/3 28/15/3 25/13/3
f 32/19/3 31/18/3 29/17/3
f 30/20/3 32/19/3 29/17/3
f 33/21/1 35/22/1 36/23/1
f 33/21/1 36/23/1 34/24/1
f 37/25/1 39/13/1 40/16/1
f 37/25/1 40/16/1 38/26/1
f 44/23/1 43/22/1 41/21/1
f 42/24/1 44/23/1 41/21/1
f 48/16/1 47/13/1 45/25/1
f 46/26/1 48/16/1 45/25/1
f 49/27/4 51/28/4 52/29/4
f 49/27/4 52/29/4 50/30/4
f 53/27/5 55/28/5 56/29/5
f 53/27/5 56/29/5 54/30/5
f 57/1/3 59/2/3 60/3/3
f 57/1/3 60/3/3 58/4/3
# 30 triangles in group

# 30 triangles total

