# Wavefront OBJ exported by MilkShape 3D

mtllib rus_build_4et_01a_LOD2.mtl

v -41.000000 41.000000 0.000000
v -59.000000 36.500000 0.000000
v -59.000000 36.500000 -18.000000
v -41.000000 41.000000 0.000000
v -59.000000 36.500000 0.000000
v -59.000000 36.500000 18.000000
v 41.000000 41.000000 0.000000
v 59.000000 36.500000 0.000000
v 59.000000 36.500000 18.000000
v 41.000000 41.000000 0.000000
v 59.000000 36.500000 0.000000
v 59.000000 36.500000 -18.000000
v 59.000000 36.500000 18.000000
v 41.000000 36.500000 18.000000
v -41.000000 36.500000 18.000000
v 41.000000 41.000000 0.000000
v -41.000000 41.000000 0.000000
v -59.000000 36.500000 18.000000
v -59.000000 36.500000 -18.000000
v -41.000000 36.500000 -18.000000
v 41.000000 36.500000 -18.000000
v -41.000000 41.000000 0.000000
v 41.000000 41.000000 0.000000
v 59.000000 36.500000 -18.000000
v 0.000000 37.000000 16.000000
v -57.000000 37.000000 16.000000
v 0.000000 0.000000 16.000000
v -57.000000 0.000000 16.000000
v 0.000000 37.000000 16.000000
v 57.000000 37.000000 16.000000
v 0.000000 0.000000 16.000000
v 57.000000 0.000000 16.000000
v 57.000000 37.000000 -16.000000
v 0.000000 37.000000 -16.000000
v 57.000000 0.000000 -16.000000
v 0.000000 0.000000 -16.000000
v -57.000000 37.000000 -16.000000
v 0.000000 37.000000 -16.000000
v -57.000000 0.000000 -16.000000
v 0.000000 0.000000 -16.000000
v -57.000000 37.000000 -16.000000
v -57.000000 37.000000 16.000000
v -57.000000 0.000000 -16.000000
v -57.000000 0.000000 16.000000
v 57.000000 37.000000 16.000000
v 57.000000 37.000000 -16.000000
v 57.000000 0.000000 16.000000
v 57.000000 0.000000 -16.000000
# 48 vertices

vt 0.937500 0.734375
vt 1.000000 0.687500
vt 1.000000 0.734375
vt 0.933263 0.734375
vt 0.933263 0.687500
vt 0.629237 0.734375
vt 0.629237 0.687500
vt 0.562500 0.687500
vt 0.343750 0.687500
vt 0.343750 0.828125
vt 0.562500 0.828125
vt 0.000000 0.828125
vt 0.000000 0.687500
vt 0.218750 0.687500
vt 0.218750 0.828125
# 15 texture coordinates

vn -0.242536 0.970142 0.000000
vn 0.242536 0.970142 0.000000
vn 0.000000 0.970142 0.242536
vn 0.000000 0.970142 -0.242536
vn 0.000000 0.000000 1.000000
vn 0.000000 0.000000 -1.000000
vn -1.000000 0.000000 0.000000
vn 1.000000 0.000000 0.000000
# 8 normals

g Regroup14
usemtl Material02
s 1
f 1/1/1 3/2/1 2/3/1
f 5/3/1 6/2/1 4/1/1
f 7/1/2 9/2/2 8/3/2
f 11/3/2 12/2/2 10/1/2
f 13/2/3 16/4/3 14/5/3
f 16/4/3 17/6/3 15/7/3
f 16/4/3 15/7/3 14/5/3
f 15/7/3 17/6/3 18/8/3
f 19/2/4 22/4/4 20/5/4
f 22/4/4 23/6/4 21/7/4
f 22/4/4 21/7/4 20/5/4
f 21/7/4 23/6/4 24/8/4
f 28/8/5 27/9/5 25/10/5
f 26/11/5 28/8/5 25/10/5
f 29/10/5 31/9/5 32/8/5
f 29/10/5 32/8/5 30/11/5
f 33/12/6 35/13/6 36/14/6
f 33/12/6 36/14/6 34/15/6
f 40/14/6 39/13/6 37/12/6
f 38/15/6 40/14/6 37/12/6
f 41/15/7 43/14/7 44/9/7
f 41/15/7 44/9/7 42/10/7
f 45/15/8 47/14/8 48/9/8
f 45/15/8 48/9/8 46/10/8
# 24 triangles in group

# 24 triangles total

