# Wavefront OBJ exported by MilkShape 3D

mtllib rus_build_5et_06_LOD2.mtl

v 28.000000 45.000000 -16.000000
v -28.000000 45.000000 -16.000000
v 28.000000 0.000000 -16.000000
v -28.000000 0.000000 -16.000000
v 12.000000 45.000000 16.000000
v 28.000000 45.000000 16.000000
v 12.000000 0.000000 16.000000
v 28.000000 0.000000 16.000000
v 85.000000 37.000000 -16.000000
v 28.000000 37.000000 -16.000000
v 85.000000 0.000000 -16.000000
v 28.000000 0.000000 -16.000000
v 28.000000 37.000000 16.000000
v 85.000000 37.000000 16.000000
v 28.000000 0.000000 16.000000
v 85.000000 0.000000 16.000000
v 85.000000 37.000000 16.000000
v 85.000000 37.000000 -16.000000
v 85.000000 0.000000 16.000000
v 85.000000 0.000000 -16.000000
v 69.000000 41.000000 0.000000
v 87.000000 36.500000 0.000000
v 87.000000 36.500000 18.000000
v 69.000000 41.000000 0.000000
v 87.000000 36.500000 0.000000
v 87.000000 36.500000 -18.000000
v 28.000000 36.500000 -18.000000
v 69.000000 36.500000 -18.000000
v 28.000000 41.000000 0.000000
v 69.000000 41.000000 0.000000
v 87.000000 36.500000 -18.000000
v 87.000000 36.500000 18.000000
v 69.000000 36.500000 18.000000
v 69.000000 41.000000 0.000000
v 69.000000 41.000000 0.000000
v 87.000000 36.500000 0.000000
v 87.000000 36.500000 18.000000
v 69.000000 41.000000 0.000000
v 87.000000 36.500000 0.000000
v 87.000000 36.500000 -18.000000
v 28.000000 36.500000 -18.000000
v 69.000000 36.500000 -18.000000
v 28.000000 41.000000 0.000000
v 69.000000 41.000000 0.000000
v 87.000000 36.500000 -18.000000
v 87.000000 36.500000 18.000000
v 69.000000 36.500000 18.000000
v 69.000000 41.000000 0.000000
v 28.000000 36.500000 18.000000
v 69.000000 36.500000 18.000000
v 28.000000 41.000000 0.000000
v 69.000000 41.000000 0.000000
v 28.000000 36.500000 18.000000
v 69.000000 36.500000 18.000000
v 28.000000 41.000000 0.000000
v 69.000000 41.000000 0.000000
v 12.000000 49.000000 0.000000
v 30.000000 44.500000 0.000000
v 30.000000 44.500000 18.000000
v 12.000000 49.000000 0.000000
v 30.000000 44.500000 0.000000
v 30.000000 44.500000 -18.000000
v -12.000000 44.500000 -18.000000
v 12.000000 44.500000 -18.000000
v -12.000000 49.000000 0.000000
v 12.000000 49.000000 0.000000
v 30.000000 44.500000 -18.000000
v 30.000000 44.500000 18.000000
v 12.000000 44.500000 18.000000
v 12.000000 49.000000 0.000000
v 12.000000 49.000000 0.000000
v 30.000000 44.500000 0.000000
v 30.000000 44.500000 18.000000
v 12.000000 49.000000 0.000000
v 30.000000 44.500000 0.000000
v 30.000000 44.500000 -18.000000
v -12.000000 44.500000 -18.000000
v 12.000000 44.500000 -18.000000
v -12.000000 49.000000 0.000000
v 12.000000 49.000000 0.000000
v 30.000000 44.500000 -18.000000
v 30.000000 44.500000 18.000000
v 12.000000 44.500000 18.000000
v 12.000000 49.000000 0.000000
v 6.000000 44.500000 18.000000
v 12.000000 44.500000 18.000000
v -12.000000 49.000000 0.000000
v 12.000000 49.000000 0.000000
v 6.000000 44.500000 18.000000
v 12.000000 44.500000 18.000000
v -12.000000 49.000000 0.000000
v 12.000000 49.000000 0.000000
v -30.000000 44.500000 -18.000000
v -12.000000 44.500000 -18.000000
v -12.000000 49.000000 0.000000
v -30.000000 44.500000 -18.000000
v -12.000000 44.500000 -18.000000
v -12.000000 49.000000 0.000000
v 28.000000 45.000000 16.000000
v 28.000000 45.000000 -16.000000
v 28.000000 0.000000 16.000000
v 28.000000 0.000000 -16.000000
v -28.000000 37.000000 97.000000
v -28.000000 37.000000 40.000000
v -28.000000 0.000000 97.000000
v -28.000000 0.000000 40.000000
v 4.000000 37.000000 40.000000
v 4.000000 37.000000 97.000000
v 4.000000 0.000000 40.000000
v 4.000000 0.000000 97.000000
v -28.000000 37.000000 97.000000
v 4.000000 37.000000 97.000000
v -28.000000 0.000000 97.000000
v 4.000000 0.000000 97.000000
v -12.000000 41.000000 81.000000
v -12.000000 36.500000 99.000000
v -30.000000 36.500000 99.000000
v -12.000000 41.000000 81.000000
v -12.000000 36.500000 99.000000
v 6.000000 36.500000 99.000000
v 6.000000 36.500000 40.000000
v 6.000000 36.500000 81.000000
v -12.000000 41.000000 40.000000
v -12.000000 41.000000 81.000000
v 6.000000 36.500000 99.000000
v -30.000000 36.500000 99.000000
v -30.000000 36.500000 81.000000
v -12.000000 41.000000 81.000000
v -12.000000 41.000000 81.000000
v -12.000000 36.500000 99.000000
v -30.000000 36.500000 99.000000
v -12.000000 41.000000 81.000000
v -12.000000 36.500000 99.000000
v 6.000000 36.500000 99.000000
v 6.000000 36.500000 40.000000
v 6.000000 36.500000 81.000000
v -12.000000 41.000000 40.000000
v -12.000000 41.000000 81.000000
v 6.000000 36.500000 99.000000
v -30.000000 36.500000 99.000000
v -30.000000 36.500000 81.000000
v -12.000000 41.000000 81.000000
v -30.000000 36.500000 40.000000
v -30.000000 36.500000 81.000000
v -12.000000 41.000000 40.000000
v -12.000000 41.000000 81.000000
v -30.000000 36.500000 40.000000
v -30.000000 36.500000 81.000000
v -12.000000 41.000000 40.000000
v -12.000000 41.000000 81.000000
v -28.000000 45.000000 -16.000000
v -28.000000 45.000000 40.000000
v -28.000000 0.000000 -16.000000
v -28.000000 0.000000 40.000000
v 4.000000 45.000000 40.000000
v 4.000000 45.000000 16.000000
v 4.000000 0.000000 40.000000
v 4.000000 0.000000 16.000000
v 4.000000 45.000000 16.000000
v 12.000000 45.000000 16.000000
v 4.000000 0.000000 16.000000
v 12.000000 0.000000 16.000000
v -12.000000 49.000000 24.000000
v -12.000000 44.500000 42.000000
v 6.000000 44.500000 42.000000
v -12.000000 49.000000 24.000000
v -12.000000 44.500000 42.000000
v -30.000000 44.500000 42.000000
v -30.000000 44.500000 0.000000
v -30.000000 44.500000 24.000000
v -12.000000 49.000000 0.000000
v -12.000000 49.000000 24.000000
v -30.000000 44.500000 42.000000
v 6.000000 44.500000 42.000000
v 6.000000 44.500000 24.000000
v -12.000000 49.000000 24.000000
v -12.000000 49.000000 24.000000
v -12.000000 44.500000 42.000000
v 6.000000 44.500000 42.000000
v -12.000000 49.000000 24.000000
v -12.000000 44.500000 42.000000
v -30.000000 44.500000 42.000000
v -30.000000 44.500000 0.000000
v -30.000000 44.500000 24.000000
v -12.000000 49.000000 0.000000
v -12.000000 49.000000 24.000000
v -30.000000 44.500000 42.000000
v 6.000000 44.500000 42.000000
v 6.000000 44.500000 24.000000
v -12.000000 49.000000 24.000000
v 6.000000 44.500000 18.000000
v 6.000000 44.500000 24.000000
v -12.000000 49.000000 0.000000
v -12.000000 49.000000 24.000000
v 6.000000 44.500000 18.000000
v 6.000000 44.500000 24.000000
v -12.000000 49.000000 0.000000
v -12.000000 49.000000 24.000000
v -30.000000 44.500000 -18.000000
v -30.000000 44.500000 0.000000
v -12.000000 49.000000 0.000000
v -30.000000 44.500000 -18.000000
v -30.000000 44.500000 0.000000
v -12.000000 49.000000 0.000000
v -28.000000 45.000000 40.000000
v 4.000000 45.000000 40.000000
v -28.000000 0.000000 40.000000
v 4.000000 0.000000 40.000000
# 208 vertices

vt 0.218750 1.000000
vt 0.218750 0.828125
vt 0.437500 0.828125
vt 0.437500 1.000000
vt 0.718808 1.000000
vt 0.718808 0.828125
vt 0.781298 0.828125
vt 0.781298 1.000000
vt 0.000000 0.968750
vt 0.000000 0.828125
vt 0.218750 0.968750
vt 0.781250 0.968750
vt 1.000000 0.828125
vt 1.000000 0.968750
vt 0.437500 0.968750
vt 0.562500 0.828125
vt 0.562500 0.968750
vt 0.932966 0.781250
vt 1.000000 0.734375
vt 1.000000 0.781250
vt 0.781735 0.781250
vt 0.629237 0.781250
vt 0.629237 0.734375
vt 0.781735 0.734375
vt 0.562500 0.734375
vt 0.933263 0.734375
vt 0.718128 0.781250
vt 0.718128 0.734375
vt 0.652581 0.734473
vt 0.562500 1.000000
vt 0.656324 0.828125
vt 0.656324 1.000000
vt 0.687558 0.828125
vt 0.687558 1.000000
# 34 texture coordinates

vn 0.000000 0.000000 -1.000000
vn 0.000000 0.000000 1.000000
vn 1.000000 0.000000 0.000000
vn 0.242536 0.970142 0.000000
vn 0.000000 0.970142 -0.242536
vn 0.000000 0.970142 0.242536
vn -1.000000 0.000000 0.000000
vn -0.242536 0.970142 0.000000
# 8 normals

g Regroup02
usemtl Material03
s 1
f 1/1/1 3/2/1 4/3/1
f 1/1/1 4/3/1 2/4/1
f 5/5/2 7/6/2 8/7/2
f 5/5/2 8/7/2 6/8/2
f 9/9/1 11/10/1 12/2/1
f 9/9/1 12/2/1 10/11/1
f 13/12/2 15/7/2 16/13/2
f 13/12/2 16/13/2 14/14/2
f 17/15/3 19/3/3 20/16/3
f 17/15/3 20/16/3 18/17/3
f 21/18/4 23/19/4 22/20/4
f 25/20/4 26/19/4 24/18/4
f 29/21/5 30/22/5 28/23/5
f 29/21/5 28/23/5 27/24/5
f 28/23/5 30/22/5 31/25/5
f 32/19/6 34/18/6 33/26/6
f 35/18/4 37/19/4 36/20/4
f 39/20/4 40/19/4 38/18/4
f 43/21/5 44/22/5 42/23/5
f 43/21/5 42/23/5 41/24/5
f 42/23/5 44/22/5 45/25/5
f 46/19/6 48/18/6 47/26/6
f 50/23/6 52/22/6 51/21/6
f 49/24/6 50/23/6 51/21/6
f 54/23/6 56/22/6 55/21/6
f 53/24/6 54/23/6 55/21/6
f 57/18/4 59/19/4 58/20/4
f 61/20/4 62/19/4 60/18/4
f 65/27/5 66/22/5 64/23/5
f 65/27/5 64/23/5 63/28/5
f 64/23/5 66/22/5 67/25/5
f 68/19/6 70/18/6 69/26/6
f 71/18/4 73/19/4 72/20/4
f 75/20/4 76/19/4 74/18/4
f 79/27/5 80/22/5 78/23/5
f 79/27/5 78/23/5 77/28/5
f 78/23/5 80/22/5 81/25/5
f 82/19/6 84/18/6 83/26/6
f 86/23/6 88/22/6 87/27/6
f 85/29/6 86/23/6 87/27/6
f 90/23/6 92/22/6 91/27/6
f 89/29/6 90/23/6 91/27/6
f 93/19/5 95/18/5 94/26/5
f 96/19/5 98/18/5 97/26/5
f 99/4/3 101/3/3 102/16/3
f 99/4/3 102/16/3 100/30/3
f 106/2/7 105/10/7 103/9/7
f 104/11/7 106/2/7 103/9/7
f 110/13/3 109/7/3 107/12/3
f 108/14/3 110/13/3 107/12/3
f 111/15/2 113/3/2 114/16/2
f 111/15/2 114/16/2 112/17/2
f 115/18/6 117/19/6 116/20/6
f 119/20/6 120/19/6 118/18/6
f 123/21/4 124/22/4 122/23/4
f 123/21/4 122/23/4 121/24/4
f 122/23/4 124/22/4 125/25/4
f 126/19/8 128/18/8 127/26/8
f 129/18/6 131/19/6 130/20/6
f 133/20/6 134/19/6 132/18/6
f 137/21/4 138/22/4 136/23/4
f 137/21/4 136/23/4 135/24/4
f 136/23/4 138/22/4 139/25/4
f 140/19/8 142/18/8 141/26/8
f 144/23/8 146/22/8 145/21/8
f 143/24/8 144/23/8 145/21/8
f 148/23/8 150/22/8 149/21/8
f 147/24/8 148/23/8 149/21/8
f 151/1/7 153/2/7 154/3/7
f 151/1/7 154/3/7 152/4/7
f 155/30/3 157/16/3 158/31/3
f 155/30/3 158/31/3 156/32/3
f 159/32/2 161/31/2 162/33/2
f 159/32/2 162/33/2 160/34/2
f 164/20/6 165/19/6 163/18/6
f 166/18/6 168/19/6 167/20/6
f 170/23/8 172/22/8 171/27/8
f 169/28/8 170/23/8 171/27/8
f 173/25/8 172/22/8 170/23/8
f 175/26/4 176/18/4 174/19/4
f 178/20/6 179/19/6 177/18/6
f 180/18/6 182/19/6 181/20/6
f 184/23/8 186/22/8 185/27/8
f 183/28/8 184/23/8 185/27/8
f 187/25/8 186/22/8 184/23/8
f 189/26/4 190/18/4 188/19/4
f 193/27/4 194/22/4 192/23/4
f 193/27/4 192/23/4 191/29/4
f 197/27/4 198/22/4 196/23/4
f 197/27/4 196/23/4 195/29/4
f 200/26/8 201/18/8 199/19/8
f 203/26/8 204/18/8 202/19/8
f 205/4/2 207/3/2 208/16/2
f 205/4/2 208/16/2 206/30/2
# 94 triangles in group

# 94 triangles total

