# Wavefront OBJ exported by MilkShape 3D

v 28.000000 36.500000 -18.000000
v 87.000000 36.500000 -18.000000
v 28.000000 41.000000 0.000000
v 69.000000 41.000000 0.000000
v 28.000000 36.500000 18.000000
v 87.000000 36.500000 18.000000
v 28.000000 41.000000 0.000000
v 69.000000 41.000000 0.000000
v 87.000000 36.500000 -18.000000
v 87.000000 36.500000 18.000000
v 69.000000 41.000000 0.000000
v 6.000000 36.500000 40.000000
v 6.000000 36.500000 99.000000
v -12.000000 41.000000 40.000000
v -12.000000 41.000000 81.000000
v -30.000000 36.500000 40.000000
v -30.000000 36.500000 99.000000
v -12.000000 41.000000 40.000000
v -12.000000 41.000000 81.000000
v 6.000000 36.500000 99.000000
v -30.000000 36.500000 99.000000
v -12.000000 41.000000 81.000000
v -30.000000 44.500000 -18.000000
v 30.000000 44.500000 -18.000000
v -12.000000 49.000000 0.000000
v 12.000000 49.000000 0.000000
v 6.000000 44.500000 18.000000
v 6.000000 44.500000 18.000000
v 30.000000 44.500000 18.000000
v -12.000000 49.000000 0.000000
v 12.000000 49.000000 0.000000
v 30.000000 44.500000 -18.000000
v 30.000000 44.500000 18.000000
v 12.000000 49.000000 0.000000
v -30.000000 44.500000 42.000000
v -30.000000 44.500000 -18.000000
v -12.000000 49.000000 24.000000
v -12.000000 49.000000 0.000000
v 6.000000 44.500000 18.000000
v -12.000000 49.000000 24.000000
v -12.000000 49.000000 0.000000
v 6.000000 44.500000 18.000000
v 6.000000 44.500000 42.000000
v -12.000000 49.000000 24.000000
v 6.000000 44.500000 42.000000
v -30.000000 44.500000 42.000000
v -12.000000 49.000000 24.000000
v 6.000000 36.500000 99.000000
v -30.000000 36.500000 99.000000
v 6.000000 36.500000 40.000000
v -30.000000 36.500000 40.000000
v 6.000000 44.500000 42.000000
v -30.000000 44.500000 42.000000
v 6.000000 44.500000 -18.000000
v -30.000000 44.500000 -18.000000
v 30.000000 44.500000 18.000000
v 6.000000 44.500000 18.000000
v 30.000000 44.500000 -18.000000
v 6.000000 44.500000 -18.000000
v 87.000000 36.500000 18.000000
v 28.000000 36.500000 18.000000
v 87.000000 36.500000 -18.000000
v 28.000000 36.500000 -18.000000
# 63 vertices

vt 1.000000 0.000000
vt 1.000000 0.250000
vt 0.375000 0.250000
vt 0.375000 0.000000
vt 0.125000 0.000000
vt 0.625000 0.000000
vt 0.750000 0.000000
vt 0.750000 0.250000
vt 0.500000 0.000000
vt 0.000000 0.000000
vt 0.000000 1.000000
vt 1.000000 1.000000
# 12 texture coordinates

vn 0.000000 0.970142 -0.242536
vn 0.000000 0.970142 0.242536
vn 0.242536 0.970142 0.000000
vn -0.242536 0.970142 0.000000
vn 0.000000 -1.000000 0.000000
# 5 normals

g Regroup17
s 1
f 1/1/1 3/2/1 4/3/1
f 1/1/1 4/3/1 2/4/1
f 8/3/2 7/2/2 5/1/2
f 6/4/2 8/3/2 5/1/2
f 11/3/3 10/5/3 9/6/3
f 12/1/3 14/2/3 15/3/3
f 12/1/3 15/3/3 13/4/3
f 19/3/4 18/2/4 16/1/4
f 17/4/4 19/3/4 16/1/4
f 22/3/2 21/5/2 20/6/2
f 23/7/1 25/8/1 26/3/1
f 23/7/1 26/3/1 24/4/1
f 31/3/2 30/8/2 27/9/2
f 28/4/2 29/5/2 31/3/2
f 34/3/3 33/5/3 32/6/3
f 35/7/4 37/8/4 38/3/4
f 35/7/4 38/3/4 36/4/4
f 41/3/3 40/8/3 39/7/3
f 44/3/3 43/5/3 42/4/3
f 47/3/2 46/5/2 45/6/2
f 51/1/5 50/10/5 48/11/5
f 49/12/5 51/1/5 48/11/5
f 55/1/5 54/10/5 52/11/5
f 53/12/5 55/1/5 52/11/5
f 59/1/5 58/10/5 56/11/5
f 57/12/5 59/1/5 56/11/5
f 63/1/5 62/10/5 60/11/5
f 61/12/5 63/1/5 60/11/5
# 28 triangles in group

# 28 triangles total

