# Wavefront OBJ exported by MilkShape 3D

v 28.000000 36.500000 -18.000000
v 87.000000 36.500000 -18.000000
v 28.000000 41.000000 0.000000
v 69.000000 41.000000 0.000000
v 28.000000 36.500000 18.000000
v 87.000000 36.500000 18.000000
v 28.000000 41.000000 0.000000
v 69.000000 41.000000 0.000000
v 87.000000 36.500000 -18.000000
v 87.000000 36.500000 18.000000
v 69.000000 41.000000 0.000000
v -28.000000 36.500000 18.000000
v -87.000000 36.500000 18.000000
v -28.000000 41.000000 0.000000
v -69.000000 41.000000 0.000000
v -28.000000 36.500000 -18.000000
v -87.000000 36.500000 -18.000000
v -28.000000 41.000000 0.000000
v -69.000000 41.000000 0.000000
v -87.000000 36.500000 18.000000
v -87.000000 36.500000 -18.000000
v -69.000000 41.000000 0.000000
v -30.000000 44.500000 -18.000000
v 30.000000 44.500000 -18.000000
v -12.000000 49.000000 0.000000
v 12.000000 49.000000 0.000000
v -30.000000 44.500000 18.000000
v 30.000000 44.500000 18.000000
v -12.000000 49.000000 0.000000
v 12.000000 49.000000 0.000000
v 30.000000 44.500000 -18.000000
v 30.000000 44.500000 18.000000
v 12.000000 49.000000 0.000000
v -30.000000 44.500000 18.000000
v -30.000000 44.500000 -18.000000
v -12.000000 49.000000 0.000000
v -28.000000 36.500000 -18.000000
v -87.000000 36.500000 -18.000000
v -28.000000 36.500000 18.000000
v -87.000000 36.500000 18.000000
v 87.000000 36.500000 -18.000000
v 28.000000 36.500000 -18.000000
v 87.000000 36.500000 18.000000
v 28.000000 36.500000 18.000000
v 30.000000 44.500000 -18.000000
v -30.000000 44.500000 -18.000000
v 30.000000 44.500000 18.000000
v -30.000000 44.500000 18.000000
# 48 vertices

vt 1.000000 0.000000
vt 1.000000 0.250000
vt 0.375000 0.250000
vt 0.375000 0.000000
vt 0.125000 0.000000
vt 0.625000 0.000000
vt 0.750000 0.000000
vt 0.750000 0.250000
vt 0.000000 1.000000
vt 0.000000 0.000000
vt 1.000000 1.000000
# 11 texture coordinates

vn 0.000000 0.970142 -0.242536
vn 0.000000 0.970142 0.242536
vn 0.242536 0.970142 0.000000
vn -0.242536 0.970142 0.000000
vn 0.000000 -1.000000 0.000000
# 5 normals

g Regroup13
s 1
f 1/1/1 3/2/1 4/3/1
f 1/1/1 4/3/1 2/4/1
f 8/3/2 7/2/2 5/1/2
f 6/4/2 8/3/2 5/1/2
f 11/3/3 10/5/3 9/6/3
f 12/1/2 14/2/2 15/3/2
f 12/1/2 15/3/2 13/4/2
f 19/3/1 18/2/1 16/1/1
f 17/4/1 19/3/1 16/1/1
f 22/3/4 21/5/4 20/6/4
f 23/7/1 25/8/1 26/3/1
f 23/7/1 26/3/1 24/4/1
f 30/3/2 29/8/2 27/7/2
f 28/4/2 30/3/2 27/7/2
f 33/3/3 32/5/3 31/6/3
f 36/3/4 35/5/4 34/6/4
f 37/9/5 39/10/5 40/1/5
f 37/9/5 40/1/5 38/11/5
f 41/9/5 43/10/5 44/1/5
f 41/9/5 44/1/5 42/11/5
f 45/9/5 47/10/5 48/1/5
f 45/9/5 48/1/5 46/11/5
# 22 triangles in group

# 22 triangles total

