# Wavefront OBJ exported by MilkShape 3D

v 59.000000 36.500000 18.000000
v 59.000000 36.500000 18.000000
v -59.000000 36.500000 18.000000
v -59.000000 36.500000 18.000000
v 59.000000 36.500000 -18.000000
v 41.000000 41.000000 0.000000
v 41.000000 41.000000 0.000000
v -41.000000 41.000000 0.000000
v -59.000000 36.500000 -18.000000
v -59.000000 36.500000 -18.000000
v 59.000000 36.500000 -18.000000
v -41.000000 41.000000 0.000000
v 41.000000 41.000000 0.000000
v 59.000000 36.500000 -18.000000
v -59.000000 36.500000 -18.000000
v 59.000000 36.500000 18.000000
v -59.000000 36.500000 18.000000
# 17 vertices

vt 1.000000 0.000000
vt 1.000000 0.046875
vt 0.933263 0.046875
vt 0.933263 0.000000
vt 0.629237 0.046875
vt 0.629237 0.000000
vt 0.562500 0.046875
vt 0.562500 0.000000
vt 0.000000 1.000000
vt 0.000000 0.000000
vt 1.000000 1.000000
# 11 texture coordinates

vn 0.242536 0.970142 0.000000
vn 0.000000 0.970142 0.242536
vn -0.081923 0.983078 0.163846
vn -0.242536 0.970142 0.000000
vn 0.000000 0.970142 -0.242536
vn 0.000000 -1.000000 0.000000
# 6 normals

g roof_4et
s 1
f 1/1/1 5/2/1 6/3/1
f 2/4/2 7/3/2 8/5/3
f 2/4/2 8/5/3 3/6/2
f 8/5/3 9/7/4 4/8/4
f 10/4/5 12/3/5 13/5/5
f 10/4/5 13/5/5 11/6/5
f 14/9/6 16/10/6 17/1/6
f 14/9/6 17/1/6 15/11/6
# 8 triangles in group

# 8 triangles total

